/* XPM */
static char *_315823a0586485dd48a98cdc2e24395Ot55aTmFYg46PNU6[] = {
/* columns rows colors chars-per-pixel */
"64 64 186 2 ",
"   c #05051B",
".  c #04041E",
"X  c #09071E",
"o  c #0B0A1E",
"O  c #100C1F",
"+  c #050622",
"@  c #090622",
"#  c #070823",
"$  c #0A0B25",
"%  c #060A2A",
"&  c #0D0E2A",
"*  c #110E24",
"=  c #110E2A",
"-  c #0E1027",
";  c #0F102B",
":  c #0F112C",
">  c #0D112E",
",  c #0F102E",
"<  c #121126",
"1  c #191627",
"2  c #12112A",
"3  c #15122A",
"4  c #10112F",
"5  c #15122D",
"6  c #15152E",
"7  c #1A162C",
"8  c #16182F",
"9  c #1C192D",
"0  c #0E1330",
"q  c #121331",
"w  c #131531",
"e  c #151531",
"r  c #181631",
"t  c #161833",
"y  c #1A1A34",
"u  c #1D1D39",
"i  c #211D33",
"p  c #1E203B",
"a  c #2C252C",
"s  c #242334",
"d  c #2A2635",
"f  c #22233C",
"g  c #2D2939",
"h  c #382D35",
"j  c #332F3B",
"k  c #3F3439",
"l  c #453939",
"z  c #443B3C",
"x  c #52423C",
"c  c #232541",
"v  c #262943",
"b  c #2A2B44",
"n  c #2E2E49",
"m  c #312D44",
"M  c #343241",
"N  c #3E3C45",
"B  c #33334C",
"V  c #353652",
"C  c #373955",
"Z  c #3B3C54",
"A  c #423D51",
"S  c #3F405C",
"D  c #4E4141",
"F  c #564942",
"G  c #524A4B",
"H  c #5C524C",
"J  c #43435D",
"K  c #48475E",
"L  c #5A5453",
"P  c #625142",
"I  c #6B5A4A",
"U  c #715D4B",
"Y  c #615C57",
"T  c #776249",
"R  c #6A6358",
"E  c #74695A",
"W  c #474963",
"Q  c #4B4B63",
"!  c #504F65",
"~  c #4F526D",
"^  c #52536C",
"/  c #59566D",
"(  c #585972",
")  c #625D68",
"_  c #5D607B",
"`  c #786F64",
"'  c #7A7166",
"]  c #7C756B",
"[  c #626277",
"{  c #696274",
"}  c #65647C",
"|  c #876B4A",
" . c #9A7C4F",
".. c #8C7C5C",
"X. c #887D6D",
"o. c #D9963E",
"O. c #DA9C3E",
"+. c #DEA03E",
"@. c #998053",
"#. c #AC864F",
"$. c #A68455",
"%. c #B18C54",
"&. c #B69054",
"*. c #BC9555",
"=. c #968968",
"-. c #8A8070",
";. c #B59F6A",
":. c #A69A77",
">. c #B5A57C",
",. c #DA9541",
"<. c #DC9C43",
"1. c #C59C55",
"2. c #CB9D53",
"3. c #C59A59",
"4. c #DDAE4E",
"5. c #CBA254",
"6. c #CFAD5F",
"7. c #D3A456",
"8. c #DBAA55",
"9. c #D7A758",
"0. c #DEAF5C",
"q. c #E4A644",
"w. c #E5AA45",
"e. c #EBAD44",
"r. c #E7A94D",
"t. c #E6AA4C",
"y. c #EDB344",
"u. c #EDB54B",
"i. c #E9BA4B",
"p. c #EEBA4B",
"a. c #F0B646",
"s. c #F2BA45",
"d. c #F0B74A",
"f. c #F2BD4C",
"g. c #E6AD51",
"h. c #E2B154",
"j. c #E9B956",
"k. c #EEBC54",
"l. c #E4B359",
"z. c #ECB75C",
"x. c #EDBD5A",
"c. c #F1BE53",
"v. c #F2BD59",
"b. c #CFB16C",
"n. c #DEBC6A",
"m. c #C0AB7F",
"M. c #C9B578",
"N. c #E6BF60",
"B. c #EBBE65",
"V. c #F3BE61",
"C. c #F3C04F",
"Z. c #EFC257",
"A. c #EDC15C",
"S. c #F3C253",
"D. c #F4C45B",
"F. c #F9C458",
"G. c #F5C85E",
"H. c #DBC177",
"J. c #EEC364",
"K. c #EEC468",
"L. c #EFCC6E",
"P. c #F4C563",
"I. c #F5CA63",
"U. c #FACC64",
"Y. c #F2C76B",
"T. c #F5CB6A",
"R. c #F9CE6E",
"E. c #F7D168",
"W. c #EDCC79",
"Q. c #F4CE73",
"!. c #F6D173",
"~. c #FAD475",
"^. c #F5D47D",
"/. c #FAD67A",
"(. c #696A84",
"). c #76738B",
"_. c #7A7C96",
"`. c #C7B68D",
"'. c #DDC285",
"]. c #DFCD9A",
"[. c #E1CD89",
"{. c #EED68A",
"}. c #F4D484",
"|. c #F5D787",
" X c #FAD886",
".X c #F9D98B",
/* pixels */
"# . # & & # & # & $ & # & $ & & & 0 & % $ & $ $ $ X o O 1 { { 1 $     $ $ $ & $ # # & # # ; w # & % % % & & & @ # = # # # 7 X   ",
"w # # & , 4 & & & & , & & & & , , 0 & & & & & 2 & < < O 9 A A 9 5 $ $ 4 = 4 4 4 , & 4 , , & , % % & & & & & & & $ $ & 6 5 3 $ 9 ",
"q # + & & & & & q , 4 $ & # & & & & # # $ # # 2 & $ * * * o * * = # # $ $ @ & & 4 # # # $ # & ; & , q q & & & & & y $ 5 r J f = ",
"& # $ & $ # & , , & , & & # & & & # + # & . . & $     o X 9 1 o & # @ & $ $ & = 4 # # $ & # , 6 & 4 w 4 & & & & $ 4 & & e n i & ",
", , 4 q & & & q & & 4 & , & & & ; $ # 2 4 # . 2 6 2 2 3 $ * * & 2 = = 4 & $ $ & & # & 4 t , , $ $ & 4 5 = = 4 4 & $ & 4 & $ $ 4 ",
"e q , 4 w & # & $ $ , & 4 & & $ & # # = 3 o   $ 6 ^ ( y $ & 6 4 & 2 2 2 & # . $ # . $ & w 4 4 $ & 2 3 5 4 = 4 4 e & & , & e 4 & ",
"4 4 & & 4 $ + $ $ $ & & , $ & $ # # X $ * X   # 2 B Z ; 4 ; 4 & & 4 4 4 4 # . & $ . # $ 4 4 y 6 3 3 3 3 3 = = = 4 # , & 0 & q q ",
"& 4 4 4 & # # q & & 4 & 4 & & & & & $ * * $ $ 2 2 # $ ; 6 & & & & 4 4 4 4 $ $ 4 ; . # & e 4 4 2 < * * < 3 3 2 5 4 # # 4 & q & & ",
"e & # $ # . $ & 4 , # $ 4 $ & & 3 $ 3 i < X # = & # . # & & & , 4 & # # # # $ & 4 # # & u u $ & * $ 1 9 7 i * 2 = # . # & & + , ",
"e # . # # $ 4 6 , $ . # $ # # .   $ i m 5 # . = & & 4 & & + # , & # + $ $ , , & e . . & Z J 2 # X X 7 B B ).f 6 2 & $ # # . # w ",
"4 $ 2 6 ; 2 & # & # . $ # # $ . X # 3 y $     & & & t e & # & t u # # t w & $ & 4 # . 4 y y 2 . # 3 3 u f Z s # # & 6 2 6 # & 2 ",
"# . # # . # & 2 ; $ $ ; # # 6 $ 2 & 7 3 5 # $ & 4 $ $ & # + # $ # . $ $ # $ w & 4 # # & # $ t # & # & 6 6 6 $ 2 2 # . . $   . . ",
"6 ; ; 6 ; . # 6 2 & & ; . . ; # & $ 2 X $ . $ 4 4 # + & & & & & $ 4 ; & # . $ & 4 & $ & $ # $ $ 2 6 2 # 6 Q b & 2 .   2 6 < $ < ",
"; y 6 e t # # ; $ $ $ $ . . & # 2 2 # # $ = & e & . # t q q q w , p & t u # $ y & & 4 4 . . $ + & 2 # ; & t t 3 < . $ i 6 y * 7 ",
"J ^ b 6 6 . # $ . $ # # $ $ ; # . $ # = e t # # # . $ u $ # . # y ~ v & e . . # $ # # 2 . # y # + # . 6 ; 2 . X X   X y 9 K K [ ",
"^ } B e t # # # # & # # & $ $ . . & = & q & $ & $ . # u & # # # c (.C 4 t # $ & # # $ # $ & @   . & 4 ; & 2 & # o   o y y / / (.",
"u u e t t # & 4 4 & $ $ $ & $ . # 4 4 & , & 4 4 4 . # y y w y e t f u t e # & 4 & & & # & & & # $ e & $ 4 & & 4 & # # 6 e y t u ",
"# # $ & & . $ & & $ & 4 4 w e & # & $ $ $ $ & , & $ . # # $ $ & & & $ & & . & 4 4 $ & & 4 & 4 & # # & w $ # 4 & & . . # & $ # # ",
"# $ & $ & # & & 4 $ $ , & # # . + & $ $ & $ & , 4 # # f N Y ] -.X.` L M 6 . & w t $ & e e & & + # # $ 4 & # & 4 4 # . # & $ # # ",
"4 , 4 & , $ & 4 4 # $ 4 & $ $ # # & # $ & & & & e M ' `.[.{..X X X}.}.'.>.Y s e e $ & e , $ $ # $ 4 # # 4 & $ & & # + $ 4 , & & ",
"e & & & 4 # $ , , # # 4 4 4 4 4 $ $ . # & $ $ 6 ] ]..X/.^.Q.Y.J.J.Y.R.!.!.}.m.G & $ & 4 $ & w w $ & . . & & & # # # # & , & & , ",
"w # & & 4 & $ 4 4 $ $ & & & & & $ & # # & $ s :.{.^.Q.B.r.,.,.,.,.o.<.g.V.T.Q.H.E 6 # & 4 w & & # 4 # . & & # & $ $ & 4 4 & & & ",
"4 # & & w 4 & 4 & $ $ & 4 w 4 & $ & $ & & y :. X^.P.<.o.r.v.P.I.I.D.j.q.<.r.P.Y.W.E # & e w & y e e # # 4 $ # 4 4 , , 4 4 , & & ",
"& # & $ , 4 & & & $ & & & 4 & # . $ # $ 6 =.^.Q.z.O.g.I.T.T.T.T.T.T.I.G.c.w.q.v.P.n.H 2 & & y S B & # & # # ; & , & $ & & & & $ ",
"e , 4 & & 4 & & , $ & 4 4 4 & # # # # $ R W.Q.x.O.v.T.T.T.T.T.T.I.I.I.P.G.F.u.q.c.J.b.M 4 & e c u & # & $ # & , , $ & , & & 4 & ",
"# & , e w b C & # . # & 4 4 4 & & w w g M.T.D.+.v.I.I.I.I.I.I.I.I.G.G.G.D.D.c.y.e.c.D...4 4 4 4 & & & & & & $ # $ # & 4 & 4 w & ",
"e $ $ & $ y n $ & # $ 4 & $ $ # # $ & R L.Y.w.r.G.P.I.P.G.G.G.G.G.D.D.D.S.S.S.f.e.u.f.6.j $ $ # # $ & 4 4 4 & # $ $ , e 4 w e 4 ",
"4 # & & , & $ & & # $ , & $ & , 4 $ 2 ;.I.v.q.F.G.G.G.G.G.D.D.D.D.S.S.S.S.S.C.f.a.e.p.j.I & & q $ # # & 4 & & 4 4 4 4 w 4 4 w w ",
"& , , $ 4 & # 4 & # # $ $ # & 4 w & d n.G.u.u.F.D.D.D.D.D.S.S.S.S.S.S.S.S.C.f.f.s.e.s.p.@.2 & , $ # # $ $ $ & 4 4 4 4 4 4 & & , ",
"e 4 # # & # & & 4 & $ & # # $ # # $ G N.S.y.f.S.S.S.S.S.S.S.S.S.S.C.C.f.f.f.f.s.s.e.y.y.*.9 & # # & & $ # & & & & , 4 w e & # & ",
"4 # . 4 e & 4 & & $ & & & 4 4 $ & e R x.c.y.f.c.S.S.S.S.S.C.f.f.f.f.f.f.f.f.s.s.s.y.y.a.5.d e & & 4 e & & 4 4 & & , & & 4 $ # , ",
"w # # # # $ # $ $ $ & & & 4 4 # $ & T j.f.y.s.f.f.f.f.f.f.f.f.f.f.f.f.f.f.f.s.s.s.a.p.d.5.d 4 # & & , 4 & & & , , , $ # $ . # 4 ",
", , $ # # # # $ $ $ & & & @ # $ & . P i.f.s.s.f.f.f.f.f.f.f.f.f.f.f.f.f.f.f.f.f.p.s.p.u.1.) [ 3 & # $ , & & 4 & & $ & $ $ # & 4 ",
", & & & & ; 4 4 $ & 4 4 = # @ 4 4 # z h.f.s.f.s.f.f.f.f.f.f.f.f.f.f.c.f.f.f.f.f.f.f.x.p.%.A Z u 4 # $ & & & 4 & w & & & & $ , & ",
"& & & & ; , 4 4 & f b & $ # $ $ & # 9 2.f.f.f.f.f.f.f.f.c.c.c.c.c.c.c.c.k.k.k.c.c.S.c.u.| < < 3 & # # $ # $ & & , # $ # $ # & $ ",
"& & & & & & & & e B J y & # 5 4 & # <  .u.c.S.c.f.f.c.c.c.c.c.c.c.c.c.c.c.c.c.c.F.G.v.8.x & 3 6 & $ # $ $ & & & & # $ $ & # & $ ",
"$ & & , 4 , & & e 4 4 # e & & $ ; 2 3 F 4.k.F.S.c.k.c.c.c.c.c.c.c.c.c.c.c.c.x.D.U.D.j.&.d 3 5 2 & & & & , & & 4 , & 4 4 4 $ & $ ",
"& & , , , & & $ # # $ $ 4 $ 4 e ; 2 2 s $.k.Z.G.D.c.c.c.c.c.x.x.x.x.x.c.c.x.Z.I.I.x.l.P * # . # # $ $ $ & $ # $ $ # 4 , & # $ $ ",
"& & , , & & $ # # $ $ # & & & $ $ & & ; D 7.i.D.U.G.D.c.c.c.x.x.x.x.x.x.v.D.U.E.A.l.$.1 $ & = & # $ # $ & # + $ # . $ $ & $ & $ ",
"$ & & , 4 4 & & w & & 4 e = & ; & ; & ; t U 4.k.P.E.I.G.D.Z.x.x.x.D.D.D.I.!.!.J.j.*.h r 5 & = $ & 4 & & 6 4 & 4 4 $ & & 4 & 4 & ",
"$ & & 4 4 & & & & & & $ 4 , 4 & ; & # # $ < T h.x.D.R.!.R.T.I.P.P.I.R.~.~.T.A.j.3.l . $ # # # = 4 $ # $ # 4 4 & , e & & e & & 4 ",
". . . . # # $ & & 4 & # $ # # & & $ . $ $ ; 9 I 2.z.x.I.R.~.~.~././.!.T.J.x.0.#.k 6 e = # # $ & & $ # & $ w w & 4 J Z & # # # # ",
"$ $ & & & = 4 4 # 4 , 4 w $ # 4 t # . ; ; 2 $ $ z $.8.j.x.B.K.K.K.J.B.z.h.3.U i # # & 5 =   # 6 4 $ $ ; & 4 & $ 4 y e , & & 6 & ",
"4 2 4 4 4 4 4 & $ & # # $ # . & # & 6 # # # 2 6 6 7 l | %.1.9.8.8.7.*.$.U j 2 & 4 2 $ # $     . # . . # $ $ & 4 e $ # , # # , # ",
"r 4 $ # # $ & 4 & # # & 4 & , 6 t Q / t ; . $ & 2 # # 3 1 a l x x k g y # $ 2 4 & .   $ $ * < & 2 & & & & $ $ 4 & & $ & # . $ & ",
"= & $ $ $ & & & , # $ y e $ p ; t K ^ p f & & & $ . # 6 . . 6 # # w q & # & & & 6   . y 1 y 7 $ 6 6 e e y $ # & w $ # 4 & . # # ",
"  + @ & 4 4 $ # # . # e 6 t _ Z $ $ ; $ u #   # $ . . $ # . $ & # & # & u e # # .   o y 1 J Z $ . . # & t # . $ # # & 4 # # w # ",
"+ # $ = e 4 & $ $ . $ u , t (.J 2 . # 4 t . . $ # . # & ; 2 6 $ # & & & $ $ # $ &   . y y ! J < # . # & y $ . # # $ # $ & & $ . ",
"# 5 = 5 r & = 5 4 # # y 6 u y y t e w t e # & 4 & & $ & 4 4 w 4 & , & , , $ # 4 & # . 8 f y u f b t 6 6 8 # # ; ; # & $ & & , # ",
"  $ # $ $ = 5 $ & & . # # # $ # # # # $ $ . $ & & & & & 4 4 4 4 $ & $ $ $ + . & & $ . . # # $ b _.b $ $ .   ; # ; # , , 4 & 4 $ ",
". & & & 4 f b r e & . & 2 $ = & # $ & & & # & 4 , & & , w 4 4 & & & $ # & # # 4 e & . ; 4 w 4 v W 3 # & $   # 3 6 # & 4 4 $ $ + ",
". & $ $ 4 f f 6 t 2 # 6 $ # 5 $ & & 4 , , # $ 4 4 & $ & w 4 4 , 4 4 # # & $ # & e 4 # t & 4 4 & 2 $ & $ 8 # . 6 6 # $ & , # # # ",
". 4 .   2 & # # t W e $ 6 & & 4 ; # & & 4 $ & ; , $ $ & , 4 4 4 e & . . & # . # t W u & e 4 $ 6 3 $ 2 $ $ $ & & & $ # & 4 , & w ",
". 6 . . 6 $   & 6 B e 2 & 4 $ & 4 $ & & 4 4 , 4 4 & & & 4 4 w e e 4 + # & $ . $ e V e & & & 4 & ; . - < ; $ 2 - & & # & 4 w , e ",
"  2 # # 2 # # 2 & & 2 6 2 6 # 2 , $ , $ & & & & 4 4 4 4 4 , 4 e 4 4 $ $ & $ # , 4 4 $ 4 e q , & 6 $ $ # t 6 - 6 ; 4 $ & & 4 $ , ",
"  2 2 2 & # $ 4 & & & & 2 & 2 $ & # 4 & 4 & & , & & 4 4 & $ $ & $ & $ # $ . + 4 4 $ w , & q $ $ $ $ - o - $ # ; & 4 $ & & 4 $ & ",
". & ; ; ; & & 2 ; $ $ ; 6 ; ; ; , 4 , e 4 # & # 4 , , w 4 & $ & $ & $ $ & 4 p e 4 & & & , 4 4 6 2 3 6 2 - X   $ 6 $ $ ; & $ # $ ",
"$ 6 6 & & & # . # # $ 4 6 6 ; & & & & w & # & # & & 4 4 4 w 4 , & e , & 4 ~ _.p # # # & 4 , & & & & 2 2 $ .   . .   # & & 4 e e ",
"# $ $ $ 3 6 ; $ $ ; 2 6 t t 6 ; , & & w 4 & 4 & 4 4 4 4 4 & $ & & $ e e $ f V , & $ $ $ $ $ & ; $ $ 3 - #       # . # & & & & & ",
"; # . & 6 & # ; 6 e 6 6 6 t t 6 6 , 4 e w 4 e 4 & # # , , # # , & 4 $ e u $ & 4 , & & 4 , $ $ & 6 # o < u 2 # 2 6 . # 4 4 # $ 4 ",
"; # . # $ . . & ; 6 6 ; ; 6 6 ; 6 & , 4 4 4 4 4 & + . $ $ + # , & e # # & . # $ $ # $ & & # # & - f f $ & $ . ; 6 . # & & # # , ",
". $ # + # $ , ; $ ; , , , , , ; 4 $ & 4 , 4 , , 4 , & # # $ $ $ # $ $ $ $ $ $ y 4 $ $ $ # . # & ; S Z 3 X $ $ ; ; $ $ # # # $ # ",
"$ 6 6 $ $ ; ; ; ; ; , 6 6 ; ; , 4 $ & 4 4 e 4 ; $ ; ; $ & 4 e & $ y $ 4 e , & & , & 4 e 4 # # $ ; & $ - 3 - $ ; $ $ & & & 4 w & ",
"& , ; ; 6 , ; , 6 6 , , ; $ , 6 , # & & , e , 4 4 w e 4 4 4 & & & 4 w w & e 4 t e & , 4 4 $ & e 3   # t 8 8 y 6 e 6 e y t e w 4 "
};
