/* XPM */
static char *e2345680ce3e4ec592ee36ea8f79be13g6J4QnT33PRKWtkW[] = {
/* columns rows colors chars-per-pixel */
"64 64 157 2 ",
"   c #010101",
".  c #0D0603",
"X  c #06060B",
"o  c #07080A",
"O  c #0A0B0D",
"+  c #100703",
"@  c #140B05",
"#  c #1C0E07",
"$  c #1E0F08",
"%  c #1F1007",
"&  c #1F1009",
"*  c #030217",
"=  c #070812",
"-  c #0A0A14",
";  c #04041E",
":  c #09071E",
">  c #06081F",
",  c #0C0B1D",
"<  c #100C1F",
"1  c #0E1011",
"2  c #131516",
"3  c #10101D",
"4  c #171B1C",
"5  c #191D1E",
"6  c #211209",
"7  c #2B160A",
"8  c #321B0C",
"9  c #3B210F",
"0  c #3C2211",
"q  c #050622",
"w  c #090722",
"e  c #070824",
"r  c #0A0B25",
"t  c #060A2A",
"y  c #0D0E2A",
"u  c #110E24",
"i  c #110F2A",
"p  c #0E1026",
"a  c #0F102B",
"s  c #0D112E",
"d  c #0F102E",
"f  c #121225",
"g  c #161125",
"h  c #181922",
"j  c #12112A",
"k  c #15122A",
"l  c #10112F",
"z  c #15122D",
"x  c #15152E",
"c  c #19162C",
"v  c #1A162E",
"b  c #16182E",
"n  c #1C182D",
"m  c #0E1330",
"M  c #121331",
"N  c #131531",
"B  c #151531",
"V  c #181631",
"C  c #161833",
"Z  c #1A1A34",
"A  c #1D1E39",
"S  c #201C33",
"D  c #1E2323",
"F  c #1F203C",
"G  c #212627",
"H  c #24292A",
"J  c #23233B",
"K  c #2D3435",
"L  c #2F3738",
"P  c #303637",
"I  c #303638",
"U  c #343B3C",
"Y  c #422511",
"T  c #482813",
"R  c #522D15",
"E  c #553017",
"W  c #5A3116",
"Q  c #5D3419",
"!  c #623618",
"~  c #663A1A",
"^  c #683B1A",
"/  c #77421F",
"(  c #232440",
")  c #272942",
"_  c #2A2B44",
"`  c #2E2E49",
"'  c #312D44",
"]  c #33334C",
"[  c #353752",
"{  c #373854",
"}  c #3B3B54",
"|  c #423D51",
" . c #3C4445",
".. c #3F405C",
"X. c #424A4C",
"o. c #42425E",
"O. c #49465D",
"+. c #4A5356",
"@. c #535D5F",
"#. c #474962",
"$. c #4C4B63",
"%. c #4F506C",
"&. c #545E61",
"*. c #52536C",
"=. c #59566D",
"-. c #5B5B73",
";. c #576365",
":. c #586466",
">. c #5D6A6C",
",. c #696274",
"<. c #65647C",
"1. c #647173",
"2. c #687678",
"3. c #854922",
"4. c #8C4E23",
"5. c #904F24",
"6. c #965427",
"7. c #A05728",
"8. c #A45D2A",
"9. c #AF5F2B",
"0. c #AF602B",
"q. c #B4652E",
"w. c #B46730",
"e. c #C96F32",
"r. c #CE7234",
"t. c #DC7936",
"y. c #EC8239",
"u. c #F6893C",
"i. c #FD8A3B",
"p. c #6F6B82",
"a. c #6E7D80",
"s. c #76738B",
"d. c #777992",
"f. c #7D7E9A",
"g. c #728184",
"h. c #768688",
"j. c #79888B",
"k. c #819295",
"l. c #849599",
"z. c #899B9E",
"x. c #8A9DA1",
"c. c #8DA0A4",
"v. c #93A7AB",
"b. c #A3BABE",
"n. c #A8BFC3",
"m. c #ABC2C6",
"M. c #ADC5C9",
"N. c #B1CACD",
"B. c #B5CED3",
"V. c #B9D2D7",
"C. c #BCD6DB",
"Z. c #BFDADD",
"A. c #C4DFE3",
"S. c #C4E0E5",
"D. c #C8E2E7",
"F. c #C7E2E8",
"G. c #C8E4E8",
/* pixels */
"e ; e y y e y e y t y e y t y y y m y e r r e t r : , < g ,.,.c r ; ; r t t y e e e y e e a N e y t t t y y y w w i w w w c : * ",
"N e e y d l y y y y d y y y y d d m y y y y y j y f g < n | | n z r r l i l l l l y l a d y d t t y y y y y y y t r y x z k r n ",
"M e q y y y y y l d l t y e y y y y e e t e e j y r u u u , u u i w w t e e y i l e e e r e y a y d M M y y y y y Z r z V o.J i ",
"y e t y t e y d d y d y y e y y y e q e y ; ; y r ; ; : : n c , y e w y t t y j l e e t y e d x y l N l y y y y t l y y V ` A y ",
"d d l M y y y M y y l y d y y y a t e j j e ; j x j j k r u u y j i i l y t t y y e y l B a d t t y l z i i l l y t y l y t t l ",
"B M d l N y e y t t d y l y y t y e e i k : ; t x *.-.Z e y x j y j l l y e ; t e ; t y x l l t y j k z l i l l B y y d y B l y ",
"l l y y l t q t t t y y d t r t e e : r u : ; e j ] } a l a l y y l l l l e ; y t ; e t l l Z x k k k k k i i i l e d y M y M M ",
"y l l l y e e l y y l y l y y y y y r u u r r j j e t a x y y y y l j j j t e l a ; e y B l l j f u u g k k j z l e e l y M y y ",
"B y e t e ; t y l d e t l r y y k r k S g : w i y ; ; e y y y d l y e e e e e y l e e y A S t y u r c n c S u j i e ; e y y q d ",
"B e ; e e t l x d r ; e t e e ; * r S ' z w ; i y y l y y q e d y e q t t d j y B ; ; y } o.j e : : c ] ] s.J k j y t e e ; e N ",
"l r j x a j y e y e ; r e e r ; : e k Z r ; ; y y y C B y e y C A e e C N y t y l e ; l Z Z j ; e k k S J } J e e y x j x e y j ",
"e ; e e ; e y j a t t a e e x r j y c k z w y y l t t y e q e t e ; t r e r N y l e e y e e Z e y e y c x x r j j e ; ; e ; ; ; ",
"x a a x a ; ; x j y y a ; ; a e y r j : r ; r l l e t j p , , p f b x y e ; t y l y t y t e r t j x j e x $.) y j ; ; j x f r f ",
"a Z x B C e e a r r r r ; ; y e j j w w r l y Z h O                 O h J e t Z y y l l ; ; r e r j e a y Z Z k f ; r S x Z u c ",
"o.*.) x x ; e t ; t e e e r a e ; t e i B Z -           O 4 5 2 .         - r e t e e j ; e Z w q e e x a j ; : : * : Z n O.O.,.",
"*.<.] B C e e e e y e e y r e ; ; y i i g       O  .h.m.A.F.F.A.N.z.+.4       - e e t e t y w ; ; y l a y j y e : ; : Z Z =.=.p.",
"A A B C C e y l j y t t t y t ; e l l -     O 1.M.F.F.A.A.A.A.A.A.A.F.V.k.D     O y y e y y y e t B y t l y y j y e e x B Z Z A ",
"e e t y y ; t y y t r l l N B y e y -     U n.F.A.F.A.M.v.l.l.c.b.C.F.F.S.C.;.    o p y l y l y e e y N t e l y y ; ; e y t e e ",
"e t y t r e y y l t t d y e e ; ; -     ;.Z.A.A.Z.a.H O         o 5 &.M.A.F.A.l.    o x B y y q e e t l y e y l l e ; e y t e e ",
"l a l y d t y l l e t l y t t e -     >.A.A.A.k.5                     O >.C.F.F.c.o   - l t t e t l e e l y t y y e ; t l d y y ",
"B y y y l e t d j e e l l l l f      .A.F.A.;.      Y 7.r.@   8.q.Q .     K B.F.F.h.    - y N N t y ; ; y y y e e e e y d y y a ",
"x e y y l y t l l t t y y y y X   5 V.F.A.+.      & y.i.y.@   q.i.i.R       H N.S.S.+.    x y y e l e ; y y e y t t y l l y y y ",
"l e y y x l y l y t t y l N f     k.A.F.g.    #   & y.i.y.@   q.i.i.W   @ .    .A.F.m.1   - y Z B B e e l t e l l a d l l d y y ",
"y e y t j l y r r t r y y l -   D Z.F.n.O   T 6.  & y.i.y.@   q.i.i.W   R 4.    g.F.F.@.    Z ..] y e y e e a y a y t r y y y t ",
"B d l y y l y y a t y l l j     g.F.A.X.  @ t.8.  & y.i.y.@   q.i.i.W   R u.0   5 V.A.m.    f ( A y e y t e r a d t y d y y l y ",
"e y d B N _ { y e ; e y l p   o N.A.N.1   3.i.8.  6 y.i.y.@   q.i.i.W   R i.e.    z.A.F.K   - l y y y y y y t e t e y l y l N y ",
"B t t y t Z ` t r e t l y -   H A.A.z.  . t.i.8.  6 y.i.y.@   q.i.i.W   R i.i.0   +.F.S.:.  X e e t y l l l y e t t a B l x B l ",
"l e y y d y t y y e t a y =   X.F.F.;.  8 u.i.8.  6 y.i.y.@   q.i.i.W   R i.i./   5 F.A.j.    M t e e y l y y l l l l N l l x x ",
"y a d t l y e l y e e t t X   ;.F.G. .  & ! ! 0   . Q ! W .   T ! ! 6   6 ! ! 0     C.A.x.    d t e e t t t y l l l l l l y y a ",
"B l e e y e y y l y t y e X   >.F.G.K                                               B.A.v.    e e y y t e y y r r d l x B r e y ",
"l e ; l B y l y y t y y y O   >.S.G.K   2 K K K K K K K K K K K K K K K K K K D     B.A.v.    a r l B y y l l y y d y y l t e a ",
"N e e e e t e t t t y y y O   >.S.G.K   &.F.D.D.D.D.D.D.D.D.D.D.D.D.D.D.D.F.F.x.    B.A.v.    e y y d l y y y d d d t e t ; e l ",
"d a r e e e e t t t y i i X   >.F.G.K   @.F.F.F.F.F.F.F.F.F.F.F.F.F.F.F.F.A.F.z.    B.A.v.    f y e t d y y l y y t y t t e y l ",
"a y y y y a l l t y z l i o   >.F.G.K   H >.>.>.>.>.>.>.>.>.>.>.>.>.>.>.>.>.>.X.    B.A.v.    Z j e t y r y l y B y y y y t a y ",
"y y y y a d l l y J ) y t o   >.S.G.K                                               B.A.v.    k y e e t e t y y a e t e t e y t ",
"y y y y y y y y B ] o.Z y o   >.S.G.K   + 7 7 #     7 7 6     % 7 7 .   . 7 7 #     B.A.v.    k y t e t t y y y y e t t y e y t ",
"r y y d l d y y B l l e B X   >.F.G.K   ~ i.i.8.  6 y.i.y.@   q.i.i.W   R i.i.q.    B.A.v.    k y y y y a y y l a r l l l t y t ",
"y y d d d y y t e e t t l X   >.F.G.K   ~ i.i.8.  % y.i.y.@   q.i.i.W   R i.i.9.    B.A.v.    r e t t t y t e t t e l d y e t t ",
"y y d d y y t e e t t e y X   >.F.G.K   ~ i.i.8.  & y.i.y.@   w.i.i.W   R i.i.q.    B.A.v.    j e t e t y e ; t e ; t t y t y t ",
"t y y d l l y y x i y l B O   >.F.G.K   @ 7 7 $     7 7 7     6 7 7 @   + 7 7 &     B.A.v.    y y l y y x l y l l t y y l y l y ",
"t y y l l i y y y y y t l O   >.F.G.K                                               B.A.v.    j l t e t ; j l y d B y y B y y l ",
"e ; ; ; e w t y y l y e t o   >.F.G.K   H ;.;.;.;.;.;.;.;.;.;.;.;.;.;.;.;.;.;. .    B.A.v.    f y t e y t x x y l o.} y e e e e ",
"t t y y y y l l e l d l N X   >.F.G.K   @.F.F.F.F.F.F.F.F.S.S.F.F.F.F.F.S.F.F.x.    B.A.v.    x l t t d y l y t l Z B d y y x y ",
"l l j j j l l i t y e e t o   >.F.G.K   @.F.F.F.F.F.F.F.F.F.F.F.F.F.F.F.F.F.F.x.    B.A.v.    : e ; ; e t t y l B t e d e e d e ",
"V l t e e t y l y e e y l X   >.F.G.K   2 I P K I L K P P P P L P I P P P I P G     B.A.v.    f j y y y y t t l y y t y e ; t y ",
"i y t t t y y y d e t Z B o   >.A.G.K                                               B.A.v.    f x x B B Z t e y N t e l r ; e e ",
"; ; w y l l t e t ; e B x o   >.A.G.K   6 W W 0   . E W R .   Y W W 6   & W W 0     B.A.v.    r ; ; e r C e ; t e e y l e e x e ",
"q w r i x l y t r ; t A d X   >.F.G.K   ~ i.i.8.  6 y.i.y.@   q.i.i.W   R i.i.q.    B.A.v.    f > ; ; y Z t ; e e t e t y y t ; ",
"w z i z V i i z l e e Z x O   >.F.G.K   ~ i.i.8.  & y.i.y.@   q.i.i.W   R i.i.0.    B.A.v.    J _ Z x x C e e a a e y t y r a e ",
"; r e r r i z r y y ; e ; X   U A.F.K   ~ i.i.8.  6 y.i.y.@   q.i.i.W   R i.i.9.    B.A.2.    _ d._ r r ; ; a e a e d d l y l t ",
"; y y y l J _ V B y ; y j ,      .g.5   9 5.4.Q   @ 4.5.3..   ^ 4.5.8   8 5.5.!     2.;.o   - ) #.x e y r * e k x e y l l t t q ",
"; i r t l J J x Z j e x t e -                                                             o j y j r y r b e ; x x e t y a e e e ",
"; l ; ; j y e e Z #.B t x y y p -                                                 o   o 3 j t x x r j r r r y y y t e y l a y N ",
"; x ; ; x t ; y x ] B j y l t y l y d y B N l l l j y l l l B C B l e e y t ; t B [ C y y y l y a ; p f p r j a y y e y l x d B ",
"; j e e j e e j y y j x j x e j d t d t y y y y l l l l l l l B l l t t y t e d l l t l B M j y x e e e Z b a x a l t y y l t a ",
"; j j j y e t l y y y y j y j r y e l y l y y d y y l l y t t y t y t e t ; e l l t x a y l t e r r p : p r e a y l t y y l t y ",
"; y a a a r y j a r t a x a a a d l d B l e y e l d d N l y t y t y t t y j F B l y y y d l l x j k k j p > * r x r r a y t e t ",
"r x x y y y e ; e e r l x x a y y y y N y e y e y y l l l N l d y B d y l %.f.F e e e y l a y y y y j j r ; * ; ; * e y y l B B ",
"e r t r k x a r r a j x C C x a d y y N l y l y l l l l l y t r y t B B r J [ d y t t t t t y a r r k p e * * ; e ; e y y y y y ",
"a e ; y x y e a x B C x x C C x x a l B N l B l y e e d d e e a r l t B A t y l a y y l a t t y b r : f A j e j x ; e l l e t l ",
"a e ; e r ; ; y a x x a a x x d x y d l l l l l y q ; t t q e a y B e e r ; e t t e t y y e e y p J J e p r ; a x ; e y y e e d ",
"; r e q e r a a r a d x d d d a l t y l a l d d l d y e e t t t e t e t t t t Z l t t t e ; e y a ..} k > r r a a r t e e e t e ",
"r x x r r a a a a a d x x a a d l t y l l B l a r a a t y l B y t Z t l B d y y d y l B l e e r a y r p k p r a r r y y y l N y ",
"r a a a x d a d x k d a a r a x d e y y a B d l l N B l l l y y y l x x y B l C B y a l l t y x k * e Z b b Z x B x B Z C B N l "
};
