/* XPM */
static char *f1698a38ad524a70d728be5c20145e23wnRVMMfLgAnJMxck[] = {
/* columns rows colors chars-per-pixel */
"64 64 146 2 ",
"   c #010101",
".  c #060609",
"X  c #05090C",
"o  c #0A0A0C",
"O  c #050517",
"+  c #070E12",
"@  c #0A0A13",
"#  c #04041E",
"$  c #09071E",
"%  c #07081F",
"&  c #0C0B1D",
"*  c #100C1F",
"=  c #0F1016",
"-  c #0C141C",
";  c #131414",
":  c #141518",
">  c #1C1E1E",
",  c #050622",
"<  c #090722",
"1  c #070824",
"2  c #0A0B25",
"3  c #060A2A",
"4  c #0D0E2A",
"5  c #110E24",
"6  c #110E2A",
"7  c #0E1026",
"8  c #0F102B",
"9  c #0D112D",
"0  c #0F102E",
"q  c #121125",
"w  c #121026",
"e  c #161125",
"r  c #11112B",
"t  c #14112A",
"y  c #131429",
"u  c #10112F",
"i  c #17132E",
"p  c #14142C",
"a  c #15152F",
"s  c #1A152A",
"d  c #1A162E",
"f  c #16182E",
"g  c #1C182B",
"h  c #1A192E",
"j  c #1D182D",
"k  c #0E1330",
"l  c #121331",
"z  c #121532",
"x  c #151532",
"c  c #181631",
"v  c #161833",
"b  c #161834",
"n  c #1B1C33",
"m  c #1A1A34",
"M  c #1C1A37",
"N  c #1D1E39",
"B  c #201C33",
"V  c #132C37",
"C  c #1F213C",
"Z  c #132C38",
"A  c #15313E",
"S  c #242525",
"D  c #272828",
"F  c #2B2C2C",
"G  c #23233C",
"H  c #2A2B3C",
"J  c #2F3131",
"K  c #323433",
"L  c #3B3D3D",
"P  c #173341",
"I  c #193847",
"U  c #1A3C4C",
"Y  c #272942",
"T  c #292A44",
"R  c #2E2E49",
"E  c #312D44",
"W  c #313445",
"Q  c #33334C",
"!  c #37394B",
"~  c #353652",
"^  c #373854",
"/  c #3A3B54",
"(  c #3B3B54",
")  c #423D51",
"_  c #3F405C",
"`  c #234F65",
"'  c #225065",
"]  c #225369",
"[  c #255771",
"{  c #265B74",
"}  c #424444",
"|  c #474A4A",
" . c #484A4A",
".. c #42435E",
"X. c #49465D",
"o. c #4F5252",
"O. c #535556",
"+. c #575959",
"@. c #595C5B",
"#. c #474963",
"$. c #4C4B63",
"%. c #4F506C",
"&. c #52536C",
"*. c #59566D",
"=. c #5B5B73",
"-. c #5D6160",
";. c #5C607B",
":. c #626465",
">. c #656968",
",. c #696274",
"<. c #65647C",
"1. c #6E7271",
"2. c #717575",
"3. c #757979",
"4. c #7A7E7E",
"5. c #636681",
"6. c #6F6B82",
"7. c #76738B",
"8. c #777992",
"9. c #7D7E9A",
"0. c #7C8080",
"q. c #888D8D",
"w. c #8E9493",
"e. c #919796",
"r. c #969B9A",
"t. c #999E9D",
"y. c #9DA3A2",
"u. c #A0A6A5",
"i. c #A6ACAC",
"p. c #AEB4B3",
"a. c #B5BCBB",
"s. c #B8BEBE",
"d. c #BCC3C2",
"f. c #C0C7C6",
"g. c #C4CACA",
"h. c #C8CFCF",
"j. c #CDD6D5",
"k. c #D1D8D7",
"l. c #D5DDDC",
"z. c #D8E0DF",
"x. c #DBE4E3",
"c. c #E1E7E7",
"v. c #E6EFEE",
"b. c #E7F0EF",
"n. c #E8F0EF",
"m. c #EBF3F3",
/* pixels */
"1 # 1 4 4 1 4 1 4 3 4 1 4 3 4 4 4 k 4 1 2 4 3 3 2 $ & * e ,.,.s 2 # # 2 3 3 4 1 , 1 4 , 1 8 z 1 4 3 3 3 3 4 4 < < 6 < $ < d $ O ",
"z 1 1 4 4 u 4 4 4 4 0 4 4 4 4 0 0 k 4 4 4 4 4 r 4 w e * g ) ) j i 2 2 u 6 u u u u 4 u 8 0 4 0 3 4 4 4 4 4 4 4 4 3 2 4 p i t 2 d ",
"l 1 , 4 4 4 4 4 u 0 u 3 4 1 4 4 4 4 1 1 3 1 1 r 4 & 5 5 5 & 5 5 6 < < 3 1 1 4 6 u , , 1 2 , 4 8 4 0 l l 4 4 4 4 4 M 2 i c ..G 6 ",
"4 1 3 4 4 1 4 0 0 4 0 4 4 1 4 4 4 1 , 1 4 # # 4 2 O O $ $ h s & 4 1 < 4 3 3 4 r u , , 3 4 1 0 p 4 u z u 4 4 4 4 3 u 4 4 c R N 4 ",
"0 0 u l 0 4 4 l 4 4 u 4 0 4 4 4 8 3 1 r r 1 # r p r r y 2 5 5 4 r 6 6 u 4 3 3 4 4 , 4 u b 0 0 3 3 4 u i 6 6 u u 4 3 4 u 4 3 3 u ",
"x l 0 u z 4 1 4 3 3 0 4 u 4 4 3 4 1 1 6 t $ # 2 p &.=.n 3 4 p u 4 r u u 4 , # 3 , # 3 4 z u u 3 4 r t i u 6 u u x 4 4 0 4 x u 4 ",
"u u 4 4 0 3 , 3 3 3 4 4 0 3 4 3 1 1 $ 2 5 $ # 1 r ! / 8 u 8 u 4 4 u u u u , # 4 3 # , 3 u u m p t t t t t 6 6 6 u , 0 4 k 4 l l ",
"4 u u u 4 , 1 u 4 4 u 4 u 4 4 4 4 4 2 5 5 2 2 r r 1 3 8 p 4 4 4 4 u r r r 3 1 u 8 # , 4 x u u r w 5 5 e t t r i u , , u 4 l 4 4 ",
"x 4 , 3 1 # 3 4 u 8 1 2 u 2 4 4 t 2 t B e $ < 6 4 # # , 4 4 4 0 u 4 , , , , 1 4 u , , 4 N B 2 4 5 2 s j d B 5 r 6 # # , 4 4 , 0 ",
"x , # 1 , 3 u p 8 2 # 1 3 , , # O 2 B E i < # 6 4 4 u 4 4 , 1 0 4 , , 3 3 0 r 4 x # # 4 / ..r 1 $ $ d Q Q 7.G p r 4 2 , 1 # 1 z ",
"u 2 r p 8 r 4 1 4 1 # 2 1 , 2 # $ 1 t n 2 # # 4 4 4 x x 4 1 4 b M , 1 b z 4 3 4 u , # u m M r # 1 t t B G / G 1 1 6 p r p 1 4 r ",
"1 # 1 1 # 3 4 r 8 3 3 8 1 1 p 2 r 4 d t i < 2 4 u 3 3 4 1 , 1 3 , # 3 2 , 2 z 4 u , , 4 , 1 v , 4 1 5 d p p 2 r r 1 # # 1 O # # ",
"p 8 8 p 8 # , p r 4 4 8 # # 8 1 4 2 r $ 2 # 2 u u , , 4 4 4 4 4 2 u 8 4 1 # 3 4 u 4 3 4 3 1 2 3 r p r 1 p $.T 4 r # O r p w 4 w ",
"8 m p x v 1 , 8 2 2 2 2 # # 4 1 r r < < 2 u 4 x 4 # , m p p w 2 2 h 4 v N , 3 m 4 4 u u # # 2 , 2 r 1 8 4 v v p r # 2 B p n 5 d ",
"..&.T p p # , 3 # 3 1 1 1 2 8 1 # 3 , 6 x m , , 1 # @ o               . @ @ 1 , 3 , , r # , M < , , , p 8 r # $ $ O $ n h X.$.<.",
"&.<.Q x v , , , 1 4 1 1 4 2 3 # # 4 6 4 l 4 3 w @         o D K K >         . & 1 , 3 1 3 4 < # # 4 u 8 4 r 4 1 1 O $ n n *.*.6.",
"N M x b v , 2 u r 4 3 3 3 4 3 # , u u 4 0 4 &       K 4.d.c.m.m.m.m.l.y.@.;     o 4 4 , 4 4 4 , 3 x 4 3 u 4 4 u 4 1 1 p x m v N ",
", , 3 4 4 # 3 4 4 3 2 u u z x 4 , 4 3 3 4 @     F i.m.v.v.v.v.v.v.v.v.v.v.x.>.o     w 4 u 4 u 4 1 , 4 z 3 , u 4 4 # # 1 4 3 , , ",
"1 3 4 3 4 , 4 4 u 3 3 0 4 1 , # , 4 3 3 X   . 3.c.v.v.v.v.v.v.v.b.b.v.v.v.v.v.g.D     e x 4 4 , , 1 3 u 4 , 4 u u , # , 4 3 , , ",
"u 8 u 4 0 3 4 u u 1 3 u 4 3 3 1 1 4 1 @   o y.v.v.v.b.b.b.v.v.v.b.b.v.v.v.v.v.v.z.}     w 3 3 , 3 u , , u 4 3 4 4 , , 3 u 0 4 4 ",
"x 4 4 4 u 1 3 0 r , , u u u u u 3 3 O     r.b.v.b.v.b.b.b.v.v.v.b.b.v.b.v.v.b.v.v.x.L   . 8 z z 3 4 # # 4 4 4 1 1 , , 4 0 4 4 8 ",
"z , 4 4 u 4 3 u u 3 3 4 4 4 4 4 3 4     3.n.v.v.b.v.v.v.b.v.v.v.b.v.v.b.b.v.v.v.v.v.j.;   @ 4 4 , u , # 4 2 1 4 3 3 4 u u 4 4 4 ",
"u 1 4 4 x u 4 u 4 3 3 4 u p u 4 3 @   D x.v.v.b.b.b.b.b.b.b.v.b.b.b.b.b.b.v.v.v.b.v.v.y.    w m x x , 1 u 3 , u u 0 u u u 0 4 4 ",
"4 1 4 3 r u 4 2 2 3 2 4 4 u 4 , $     i.v.b.b.b.v.b.v.v.b.b.b.b.b.b.b.v.v.v.v.v.v.v.v.v.K   : _ Q 4 , 4 1 , 0 4 0 4 3 4 4 4 4 3 ",
"x 0 u 4 4 u 4 4 0 3 4 u u u 4 3 @   D c.v.v.v.v.v.v.v.v.b.v.v.b.b.b.b.v.v.v.v.v.v.v.v.v.r.  . G N 4 1 4 3 1 4 0 8 3 4 u 4 4 u 4 ",
"1 4 0 x z T ^ 4 , # , 4 u u u 4 X   1.v.v.v.b.v.m.v.n.b.v.v.v.b.b.v.v.v.m.v.b.b.v.v.b.v.v.;   w 4 4 4 4 4 4 3 , 3 , 4 u 4 u z 4 ",
"x 3 3 4 3 m R 3 2 , 3 u 4 3 3 1     a.v.v.v.v.s.| : S 0.x.v.v.b.v.v.v.s. .: S 4.x.v.v.v.m. .  @ , 3 4 u u u 4 , 3 3 8 x u p x u ",
"u , 4 4 0 4 3 4 4 , 3 8 4 3 2 r   o x.v.v.v.y.o         K x.v.v.v.v.y.o         J x.v.v.v.2.  @ 3 , 1 4 u 4 4 u u u u z u u p z ",
"4 0 0 3 u 4 , u 4 , , 3 3 1 4 w   > m.v.v.l.;   - U A     4.v.b.v.z.;   - U A     3.v.v.v.q.  o 3 , , 3 3 3 4 u u u u u u 4 4 8 ",
"x u , 3 4 , 4 4 u 4 3 4 1 , 3 $   S m.v.v.u.  . ] { { V   K m.b.v.u.  . ] { { Z   K m.v.v.e.  . 3 4 4 3 1 4 4 4 2 0 u z x 2 , 4 ",
"u , # u x 4 u 4 4 3 4 4 4 u u 2   D m.v.v.r.  X [ { { I   F m.v.v.r.  X [ { { I   D m.v.v.e.  . 4 u x 4 4 u u 4 4 0 4 4 u 3 , 8 ",
"z , , , 1 3 , 3 3 3 4 4 4 u u $   D m.v.v.f.    P [ ` +   +.n.v.v.g.    A [ ' +   O.m.b.v.e.  . 8 4 0 r 4 4 4 0 0 0 3 , 3 # , u ",
"0 0 2 1 , , , 3 3 3 4 6 4 < , &   D m.v.v.v.-.    X .   . d.v.v.v.b.:.    X .   . d.v.v.v.e.  . 8 , 3 u 4 4 u 4 4 3 4 3 3 , 4 u ",
"0 4 4 4 4 8 u u 3 4 i u 6 , < w   D m.v.v.v.x.:..     S p.b.v.b.v.v.x.:..     S p.b.v.v.v.e.  . i , 3 4 4 4 u 4 z 4 4 4 4 3 8 4 ",
"4 4 4 4 8 0 u u 4 G T 4 3 , 2 &   D m.v.v.v.v.n.k.i.s.v.v.v.v.b.v.v.v.b.k.i.a.v.v.v.v.v.v.e.  . r , , 3 1 3 4 4 8 , 3 , 3 1 4 3 ",
"4 4 4 4 4 4 4 4 x Q ..m 4 , i w   D m.v.b.b.b.v.v.v.v.v.v.v.b.b.v.v.v.v.v.v.v.v.v.v.v.v.v.e.  . r 3 1 3 3 4 4 4 4 , 3 3 4 1 4 3 ",
"2 4 4 0 u 0 4 4 x u u 1 x 4 4 &   D m.v.b.v.v.v.b.b.b.b.v.v.v.b.b.b.b.b.b.b.b.b.v.v.b.b.v.e.  . u 4 4 4 0 4 4 u 8 2 u u u 3 4 3 ",
"4 4 0 0 0 4 4 3 1 , 3 3 u 3 u w   D m.v.v.v.v.v.v.v.v.b.v.v.v.b.b.b.b.b.b.b.b.b.b.b.b.b.v.e.  . 3 3 3 3 4 3 , 3 3 1 u 0 4 , 3 3 ",
"4 4 0 0 4 4 3 1 1 3 3 , 4 4 4 2   D m.v.v.v.v.v.v.v.v.b.b.v.v.b.b.b.b.b.v.v.b.b.b.b.b.v.v.e.  . 3 3 3 3 4 1 # 3 1 # 3 3 4 3 4 3 ",
"3 4 4 0 u u 4 4 p 6 4 u x u 4 w   D m.v.v.v.v.v.v.v.v.b.v.v.v.b.b.b.b.b.v.v.b.v.v.v.b.b.v.e.  . r u 4 4 p u 4 u u 3 4 4 u 4 u 4 ",
"3 4 4 u u 6 4 4 4 4 4 3 u 0 u 7   D m.v.v.v.b.v.v.v.b.b.v.v.v.b.b.b.b.v.v.v.b.v.v.v.b.b.v.e.  . u 3 # 3 # r u 4 0 x 4 4 x 4 4 u ",
", # # # , < 3 4 4 u 4 , 3 , 1 2   D m.v.b.b.b.v.v.v.v.v.b.v.v.v.v.v.v.v.v.v.v.v.v.b.v.v.v.e.  . u 3 , 4 3 p p 4 u ../ 0 , , , , ",
"3 3 4 4 4 4 r u 1 u 0 u p 3 , w   D m.v.b.v.v.v.v.v.v.v.v.v.v.v.v.v.v.v.v.v.v.v.v.v.v.v.v.e.  . u 3 3 0 4 u 4 3 u m x 0 4 4 p 4 ",
"u r u u u u u 6 3 4 , , 3 , # &   D m.v.b.v.v.x.t.2.0.s.v.v.v.v.v.v.v.x.t.1.0.s.v.v.v.v.v.e.  . 3 # # 1 3 3 4 u x 3 1 0 , , 0 , ",
"c u 3 , , 3 4 u 4 1 , 4 u 4 8 w   D m.v.v.v.h.S       . 2.v.v.v.v.v.h.S       . 2.v.v.b.v.e.  . r 4 4 4 4 3 3 u 4 4 3 4 , # 3 4 ",
"6 4 3 3 3 4 4 6 0 , 3 m x 3 C w   D m.v.v.v.F     @ X     t.v.v.v.v.J     @ o     t.v.v.v.e.  . p p x x m 3 , 4 z 3 , u 4 # , , ",
"# # < 4 u u 3 , 3 # , v p b ;.W   D m.v.v.p.    2 # # @   } m.v.v.p.    v x , @   } m.v.v.e.  . # # , 4 v 1 # 3 , , 4 u , 1 p , ",
", < 2 6 x u 4 3 2 # 3 M 0 v 5.!   S m.v.v.w.  . 1 # , 7   S m.v.v.w.  . 4 3 , 2   S m.v.v.w.  . 1 # # 4 m 3 # 1 1 3 , 3 4 4 3 # ",
"< i 6 i c 6 6 i i , 1 m p M m h   . s.n.c.o.  @ 8 4 2 r     a.b.c.o.  @ 0 3 , p     a.n.v.O.  = T v p p v 1 1 8 8 1 4 3 4 2 8 , ",
"# 2 1 2 2 6 i 2 4 4 # 1 , , 3 < .   o  .F     w 4 4 4 4 o   o  .F     2 3 , # 4 o   o  .F     H 8.T 2 2 # O 8 1 8 1 0 0 u 4 u 3 ",
"# 4 4 4 u G T c x 4 # 4 r 3 4 4 2 .         & u 8 4 4 0 p o         & 3 2 , , u v o         - Y #.p 1 4 2 O 1 y p 1 4 u u 3 3 , ",
"# 6 2 3 u G G p v r 1 p 3 1 u 3 4 4 w @ & $ 3 u u 4 3 4 z p w @ & r , , 4 3 , 4 x u & & & r u 4 r 2 4 2 f 1 # p p 1 3 4 0 1 , , ",
"# u # # r 4 , , v #.x 1 p 4 4 u 8 1 4 4 u 4 4 0 8 3 3 4 u u u u p 4 # # 2 1 # 1 b #.N 4 x u 3 p p 2 r 2 2 2 4 4 4 3 , 4 u 8 4 z ",
"# p # # p 3 # 4 p Q x r 4 u 3 4 u 3 4 4 u u 0 u u 4 4 4 u u x x x r , , 4 3 # 3 x ~ x 4 4 4 u 4 8 # 7 w 8 2 r 8 4 4 1 4 u p 8 x ",
"# r 1 1 r 1 , r 4 4 r p r p 1 u 0 3 0 3 4 4 4 4 u u u u u 0 u x u u 3 3 4 3 , 0 u u 3 u x l r 4 p 2 2 1 v f 4 u 8 u 3 4 4 u 3 8 ",
"# r r r 4 , 3 r 6 4 4 4 r 4 r 2 4 1 u 4 u 4 4 0 4 4 u u 4 3 3 4 3 4 3 1 3 # , u u 3 p 8 4 u 3 1 2 2 7 $ 7 2 1 0 4 u 3 4 4 u 3 4 ",
"# 4 8 8 8 4 4 u 8 2 3 8 p 8 8 8 8 u 0 x u 1 4 1 u 0 0 z u 4 3 4 3 4 3 3 4 u C x u 4 4 4 0 u u p r y y r 7 % # 2 p 2 2 8 4 3 1 3 ",
"2 p p 4 4 4 1 # 1 1 2 r p p 8 8 4 4 4 z 4 , 4 , 4 4 u u u z u 0 2 x 0 4 u %.9.C , , 1 4 u 0 4 4 4 4 r r 2 # O # # # , 4 4 u x x ",
"1 2 3 2 p p 8 2 2 8 r p v v p 8 0 4 4 z u 4 u 4 u u u u u 4 3 4 4 3 x x 2 G ~ 0 4 3 3 3 3 3 4 8 2 2 y 7 1 O O O 1 # 1 4 4 4 4 4 ",
"8 1 # 4 p 4 1 8 p p p p p v v p p 8 u x z u x u 4 , , 0 8 1 1 0 4 u 1 x N 3 2 u 0 4 4 u 8 3 3 4 p 1 $ r M r 1 r p # , u u 1 3 u ",
"8 1 # 1 2 # # 4 8 p p 8 8 p p 0 p 4 0 u u u u u 4 , # 3 3 # , r 4 x , # 2 # , 3 3 1 3 4 4 1 1 4 4 G G 2 7 2 # 8 p # , 4 4 , 1 0 ",
"# 2 1 , 1 2 0 8 2 8 0 p 0 0 0 8 u 3 4 u 0 u 0 0 u 0 4 1 , 3 3 3 , 3 1 3 3 3 3 m u 3 3 3 , # , 4 8 / / y % 2 2 8 8 2 3 1 , , 3 , ",
"2 p p 2 2 8 8 8 8 8 0 p p 8 8 0 u 3 4 u u x u 8 4 0 0 3 2 u x 4 3 m 3 u x 0 4 4 0 4 u x u , , 2 8 4 2 7 p 7 2 8 2 2 4 4 4 u z 4 ",
"2 8 8 8 p 0 8 0 p p 0 0 8 2 0 p 0 , 4 4 8 x 0 u u z x u u u 4 4 4 u p z 4 x u m x 4 r u u 3 4 p y O 2 v f f v p x p x m b x z u "
};
