/* XPM */
static char *b54ac0271e5b482cc678f0924cbe57d6GGVOtXQnCBnFJocY[] = {
/* columns rows colors chars-per-pixel */
"64 64 155 2 ",
"   c #000016",
".  c #01021C",
"X  c #09061D",
"o  c #06091E",
"O  c #0B081E",
"+  c #050622",
"@  c #090622",
"#  c #070823",
"$  c #0A0B25",
"%  c #070A29",
"&  c #0C0E2A",
"*  c #110E25",
"=  c #110E2A",
"-  c #0E1126",
";  c #0E112B",
":  c #121227",
">  c #10112D",
",  c #11112D",
"<  c #10102C",
"1  c #13102D",
"2  c #13132D",
"3  c #11102F",
"4  c #10112F",
"5  c #11122E",
"6  c #12122E",
"7  c #12132F",
"8  c #13132F",
"9  c #15122D",
"0  c #17132C",
"q  c #14112E",
"w  c #15122F",
"e  c #10142F",
"r  c #14142E",
"t  c #12132D",
"y  c #19142B",
"u  c #18142D",
"i  c #19162D",
"p  c #16182E",
"a  c #1D182C",
"s  c #0D1230",
"d  c #0D1431",
"f  c #0F1330",
"g  c #111230",
"h  c #121331",
"j  c #161330",
"k  c #131430",
"l  c #101532",
"z  c #131432",
"x  c #131732",
"c  c #141430",
"v  c #141531",
"b  c #151531",
"n  c #161630",
"m  c #141533",
"M  c #151433",
"N  c #151632",
"B  c #161733",
"V  c #171733",
"C  c #121534",
"Z  c #161735",
"A  c #141531",
"S  c #191631",
"D  c #181532",
"F  c #1B1732",
"G  c #191632",
"H  c #171834",
"J  c #161A35",
"K  c #151A35",
"L  c #171833",
"P  c #181830",
"I  c #181832",
"U  c #181935",
"Y  c #181937",
"T  c #1A1B37",
"R  c #1B1B35",
"E  c #1D1934",
"W  c #1A1A35",
"Q  c #171B38",
"!  c #1A1B39",
"~  c #1E1F3B",
"^  c #1E1F3D",
"/  c #1C1D39",
"(  c #211D35",
")  c #221F36",
"_  c #221F3C",
"`  c #201D3A",
"'  c #1E2035",
"]  c #1E213B",
"[  c #242039",
"{  c #262338",
"}  c #22233D",
"|  c #28263C",
" . c #252839",
".. c #2A283E",
"X. c #252641",
"o. c #292641",
"O. c #272844",
"+. c #292945",
"@. c #2A2B44",
"#. c #272B48",
"$. c #2C2D49",
"%. c #302D4A",
"&. c #2E3049",
"*. c #34344C",
"=. c #383B4E",
"-. c #353551",
";. c #363851",
":. c #383852",
">. c #3B3B54",
",. c #3E3E58",
"<. c #3C3E5A",
"1. c #413D54",
"2. c #4A4355",
"3. c #44465F",
"4. c #43435B",
"5. c #4D455A",
"6. c #474A5B",
"7. c #4A485D",
"8. c #444661",
"9. c #494B67",
"0. c #4D4E6A",
"q. c #504D62",
"w. c #4F506C",
"e. c #525065",
"r. c #53546B",
"t. c #59566B",
"y. c #555770",
"u. c #575971",
"i. c #5A5B76",
"p. c #605C73",
"a. c #5E6079",
"s. c #64617C",
"d. c #62637D",
"f. c #6A6D7E",
"g. c #656682",
"h. c #666A84",
"j. c #6C6C84",
"k. c #6A6B80",
"l. c #6D6E8A",
"z. c #757287",
"x. c #7C7587",
"c. c #72728A",
"v. c #7F788A",
"b. c #777D97",
"n. c #7B7B93",
"m. c #7A7A94",
"M. c #817D94",
"N. c #8587A0",
"B. c #8688A1",
"V. c #908EA4",
"C. c #8D91AC",
"Z. c #9294AD",
"A. c #969AB5",
"S. c #B4B4CD",
"D. c #BFC0DC",
/* pixels */
"+ . + ; # + % + % # & + & + ; & % d & # $ & # # $ X X *   x.M.X $ . . = $ $ & + . + ; . # ; H + & & % % % % $ @ + z X X . (   . ",
"Y + + 4 g g g % g & g $ ; $ g s s z ; & ; ; & r * : : O a 2.5.y D $ = D 4 4 v 4 4 & H r z & ; # % % & & & ; g 4 @ + = R D X   { ",
"Z + + % & & ; & z ; g + & + & & ; & + # & # # r & X * : O     y = . + $ + + & & v . + + $ . & ; & ; z z = & & 4 $ @.. D & s.o.$ ",
"% + # & # + % g 4 & g # & + & % & # . # & . . < $ .   O   { ( . = @ @ & $ $ & 4 Y . + # ; + ; H & 4 v z & & & & $ 4 & $ 9 :._ & ",
"; 4 g v g % & Z & & z & g % & & 4 $ # 4 v # o < I # o I $ $ # : 9 4 4 v 4 $ $ 4 & + 4 v ! ; ; # $ & 9 9 = = 4 4 4 . 4 4 4 . + z ",
"Z v ; g Z & + & # # g & z % & $ & $ # < r @ . & # j.n.< + & R < & 4 & & & . . $ . . $ & z ; r + = < 9 9 4 = 4 4 v 4 & 4 $ ^ g & ",
"4 4 & & 4 $ . % # # 4 $ 4 # & $ # O X $ * X . $ # ,.3.. I 4 v & & v 4 4 4 + . & & . # # z 4 / I i y 0 : : < = = 4 . v % Y + C C ",
"$ v v 4 4 + + ! & & v & 4 $ ; & & * $ $ : & $ 9 v . . v v & & $ $ v 4 4 v $ + H 4 . # & v & z & : * * * : : 9 9 v + + ! # Q % % ",
"Y $ . & + . $ & 4 4 + & 4 & ; < i X : ( = . # = 4 . . . ; % ; s v & + + . . + & 4 . $ & Y / + = * * y y : * # < < . . . s & . s ",
"H + . + + $ H v 4 & . # $ . + .   O ( 1.9 @ . = 4 4 Z & & . + & & . + + $ v v # / . . . 9.d.+ $ X   i 4.o.S.r I < < & . + . + H ",
"I $ I / r r & . ; + . & # o ; . X X * ( o . . = $ & ! Y z + & ! #.. # ] Y $ + & v . . 4 Y v &   X R * I [ >.{   o < Y v R # ; r ",
".     . . # & r 4 # $ r # # I # I $ ( = ` . < = r $ # $ + . + # . . % # . & Y ; v + . v . . X.. < . * / r .   R r $   . #   . . ",
"R ; r v ; . o I r & ; r . . r o $ @ 9 . $ . $ & Y . . & % % & % % z ; & . . $ + v & & $ $ & $ $ r v r   + m.$.o r .   < i : < r ",
". r & I / + . r $ $ $ & . . < # r D @ @ @ 9 4 / $ . + ^ Z Z ! ! ; ! . ! $.. $ X.$ & v v . . @ . & v # r $ & I / < o & ..: i   O ",
"8.d.X.; I . + & . $ # # $ $ 4 # . $ . z Z _ . . $ . $ } @ . . . ; h.] + R . + . & . . v + . %.. + . . H & v   . X   . ( * t.q.z.",
"i.N.*.& R . # . o ; o # < & $ . . 4 g & z & $ 4 $ . + } + + . . ! A.<.$ ' . & & + + & + & 4 . + . $ H ; & r & # & . # ( $ z.p.M.",
"v 4 4 / / . & v 4 & & $ + $ $ . # H 4 ; 4 & v z v . + } } v } / Z Z z ! ^ + z z & & 4 . 4 & & . $ / $ + Y 4 $ r 4 # $ v Y 4 & r ",
"+ + + $ & . $ & & # & 4 v Y Y 4 . & $ $ $ + & & & & . . . + . . + + + % & . $ 4 4 # 4 & 4 & H 4 + . & / + . H $ & . . # & # . + ",
"+ $ & # & . 4 & v $ $ 4 & + . . . & + $ & $ 4 4 H . . / $ 4 & & + + % % $ . & v / + & v Y & & . + # $ v & . & 4 4 + . + & $ + + ",
"z 4 v & z # 4 4 4 + + 4 4 $ # + # ; + $ 4 & 4 & & + . / + $ & $ 4 & g & 4 . & v Y + & Y 4 $ $ . $ Y . . Y & + 4 ; + . & 4 4 & 4 ",
"H $ ; & z + $ ; 4 . + 4 v 4 v v # $ . . & $ $ + } g.4 $ H H $ 4 4 # ; $ 4 # $ $ & $ & 4 + $ v ! + 4 . . & & & + + . + & 4 & & 4 ",
"v + & & v $ $ 4 v $ $ & & $ & $ $ & . + ; $ $ + v 0.$ + v ; $ & 4 + ; $ v ; $ & ; & + & 4 v & & . v + . 4 & + & $ $ & 4 4 & & ; ",
"z + z $ v z & z & $ $ 4 4 v H 4 $ 4 $ & 4 + & 4 & + . Y 4 & 4 4 r o r # r r ; r v 4 . & Y Y + z ; / + + Y # . H z 4 4 z z 4 & & ",
"& + z + ; v & $ $ # & & & 4 ; + . $ # $ # . + 4 z + 4 . + 4 . & ; . 4 . $ $ # < # 4 . & & $ v i.,.# . v . . Y $ 4 & # $ & & $ # ",
"! 4 4 $ 4 & . 4 z & & v z z ; + + + + $ & + + H & & & & 4 4 4 r & t - $ & o . ; ' # + v 4 & v } / & + & & + $ v 4 $ ; 4 $ ; v & ",
". $ z Y ; -.0.. . . . & 4 z v 4 4 Y Y 4 & + . . . + $ z v 4 $ # R $ - R r # .   . . + & & g v 4 $ & & & & & $ . $ + & z & 4 v & ",
"! + + & . v ,.. 4 + $ z & # + + . $ $ $ ; & + + ; $ # $ $ & 4 I p   o $     $ o # o $ ; $ $ + . + & 4 4 4 z & . & $ ; v 4 v H 4 ",
"v . ; 4 ; & . 4 4 + $ z & $ & 4 H $ + 4 v # + Y $ $ & v v & & ; p . O ' p . o < v . + v z & ; H $ + + 4 z & & z v 4 z v 4 4 v v ",
"$ 4 v + v 4 . Y & . + & $ + & 4 Y & . $ ; . . v $ $ & 4 ; + + $ o o   $ R o   p r . . $ $ + % z $ . . $ $ # & v 4 4 4 4 4 & $ ; ",
"Y H . + $ . 4 & H & $ & + + # + . $ + . $ & & & v & # $ + . + 4 o 6.=.    - & r r ; & $ + + % . + & ; + + & 4 $ $ 4 4 v H & + & ",
"4 . . Y ] & H & & $ & & & z v $ & / ! ; 4 v 4 & & $ 4 Y v + . # R f.f. .: ' 0 . ; ; z z g ! / g $ v H & & z 4 $ & 4 & 4 v $ + 4 ",
"H + + . + & . & $ $ & & ; H v + $ ; & & & & & v v & & 4 & + # r - .   X O   . & ; . . $ + . . . ; & ; 4 4 & & 4 4 4 # + $ . . v ",
"r ; $ # + + + + + & $ & & + . $ < . . ; & ; < # & $ & ; r ; # Y z g $ $ & + . + # . : .   k.V.  ; . $ 4 & ; z $ & + & $ & + 4 4 ",
"; ; & & & ; z v + $ 4 v z . @ v r o # r ; < r ; # t r . # [ r + & ; & & = & & Y o # r F F *.6.R 4 + $ ; & & z & Y & 4 & & # 4 & ",
"& & & ; ; ; 4 4 $ } $.+ $ @ = . < . # ; $ # & & ' o r R r ; & Y & & % # $ + $ v & r $ $ $   X < < + + $ + $ & & 4 + $ + & + ; $ ",
"& & & & & & & & & 4.i.Y $ . R D & # # & # . # ; . I o . 4 o . r & & $ + $ o . $ 4 +   X $ $ F r < $ + $ $ & & ; & . $ + & + & $ ",
"% & ; ; 4 ; ; & Y $ $ . / & & . t t r r < # $ I / & . | $   [ . $ $ $ & v r & < < & . 9 ( r 9 r 4 & & ; 4 4 & 4 4 $ v 4 z + & $ ",
"; ; ; ; 4 & & $ + + & + D @ 4 Y ; r r r 4 # # r . B.3.. I r v + $ # + $ I r & & + *.` . * .   o + $ # $ & $ + $ $ + z 4 4 + & # ",
"& ; ; ; & & # + + $ $ . & & & $ # - $ & < + . ; $ a.:.# v o . 4 # # o # < & + # . $.R . $ = 4 r . $ + + & + . $ + . $ $ & + & $ ",
"# $ & ; 4 4 4 ; Y 4 $ v / 4 $ v $ r ; < I $ . r / . # & $ r r $ & ; & ; r < & 4 /   . ` D $ 9 o & v 4 4 Y 4 & v v $ 4 & z & z & ",
"& = 4 4 4 4 4 ; & & & # v 4 v & 4 < . o $ .   I r o # r $ & / $ r & r & v o & = < . . @ + + . v 4 # . $ . 4 4 & & & . & / 4 & v ",
". . . . . . $ & 4 4 & . $ + + ; # $ o & # r ; ; ; Z.d.. & . . r.r..   o + . Y $ @ Y R & + $ $ $ & + . 4 # Y v & + d.w.+ . . . . ",
"$ $ & & & 4 4 4 . 4 v v ! ; . z } # . I < r $ . & ;.@.4 ; < v r I I v . + & v # o . $ D D . . [ r & $ v & v & + 4 v & ; ; ; Y 4 ",
"4 9 4 4 v 4 4 4 & & . . # . . &     # . # . r Y I     < # . ; . . & & ; [ r o & D 9 = . @       . . . + + & & 4 ] . + v . . z . ",
"R 9 $ + + $ & 4 & $ . & H ; z H r i.c.r &   # # v $ $ 4 .   ; ; I $ & 4 . + r 4 & .   X & : r < 4 & & & ; + $ v + 4 & $ + . $ 4 ",
"4 & $ $ & & 4 4 z # # ! H . ! . r y.h.I &.$ ; r $   . R . . / . . Y H $ . & & & / . . | 0 i : # Y Y ! Y / + . & / $ . v ; . + + ",
". . @ = v 4 $ . $ . . H z ; b.8.  . + . } .   # $ + . $ $ . # ; + % . & $.Y . $ . . X R X e.7.X . . . $ / + . & . . & v . + / + ",
"@ @ $ = v v & $ & . $ } & . C.9.# . . r I #   < . . + 4 ; r R + + & % g + % + $ 4 .   } * d.t.. # . . # } # . + + ; . + v & + . ",
"@ R 9 9 R $ $ D I   # | 4 o.# I / / Y / / . 4 4 4 & & & 4 4 z H & v 4 4 v $ + v 4 # . R @.< r | ' I ' r / # . I 4 + 4 $ & $ v . ",
"  @ @ @ @ $ 9 @ & 9   . .   &   . . . # $ . # & ; & $ & 4 4 ; 4 + & $ # & . . 4 $ & . . . . . ' S.} . #   . Y . 4 + 4 ; z & v $ ",
". & < < < o.-.v Y & . < Y $ 4 < + $ & ; ; . & z 4 & & 4 v z 4 & $ ; $ # & + . 4 Y & . 4 v Y & @.u.o o r $   + r r # ; 4 r # $ . ",
"o 4 $ # r X.@.< /   + / . o D + 4 & v 4 z . & 4 4 & $ & v z 4 ; z 4 + + 4 $ + ; Y . . X.# 4 v + # $ ; # [ #   / r # $ 4 4 + . + ",
". I .   < & . . < c.< . [ < # Y & + & $ z $ & 4 ; $ + & ; 4 4 4 v & . . & # . + & l.H + / z . R I $ r o $ $ ; $ ; # + ; v 4 & H ",
". / .   Y #   & & 4.4 < o 4 $ & v # 4 $ H z 4 4 4 & & & 4 4 v Y H 4 . . 4 $ . $ 4 8.; & $ $ 4 $ ;   t r - $ r & ; ; + & 4 v & Y ",
"  v + o v + . v $ o < v < / . v 4 + 4 + 4 & $ & 4 4 4 z 4 ; 4 H z v $ $ 4 $ + 4 4 & . z Y v ; $ ' # o o [ I & r & v + & & z + ; ",
"  r 4 < & o $ 4 < < $ & < & 4 # & + v $ 4 4 & v & & 4 4 & $ $ & + & $ + $ . . 4 z + / & $ v + # o # t . t $ # r # v + & & H # ; ",
". & ; ; r & & I r $ $ < r ; ; r 4 z & Y 4 + & . H ; ; v v $ $ ; $ 4 + $ ; . z v 4 & & & ; 4 z I 4 I r < t o   $ R # $ r & + + $ ",
"$ Y I $ $ $ + . # # $ r I r ; ; & & $ v & + & + $ & 4 4 z H v 4 + / 4 $ $ g.D.4 . . # 4 z 4 & $ & $ - t & o . o     . $ & v ! H ",
". $ # # r Y r ; # & 4 r I I I ; ; & & v 4 & z & z v v z 4 & $ # v . Y H . Y -.+ 4 & + + + # & r # $ r - . . .   $ o $ ; & & & & ",
"r # . ; I $ . ; r I I r r I R r v ; 4 H v 4 H z ; . . 4 z + + v # v . Y $.. + Y 4 & 4 v 4 & $ $ ' .   t o.r + r I . + H z + # z ",
"r # . % ; .   $ ; I r ; - r r ; v & ; z 4 4 4 4 & . . & & . + v & } . . & . + . $ + $ 4 ; # # & # @.' . & # . ; I . . 4 & . # z ",
". $ # . # $ ; r % ; r r ; ; ; ; v # ; 4 & z ; ; 4 z ; + + $ $ + . . & $ + & . X.4 $ + # + . + r o u.r.& . & & t 4 $ $ # . + $ . ",
"$ H I $ $ r ; $ $ ; r I r ; ; ; v + 4 4 4 H ; 4 # 4 4 $ $ v Y 4 . O.. z ! & 4 # & & 4 Y v + . # r .   $ I & o < # $ & & $ v H & ",
"& ; ; ; I r ; r I ; ; r ; # $ z 4 . & & & H & 4 v v v v z 4 & & & 4 v H + Y 4 Y v & & z 4 # & Y I   # ' p p ' r Y r v / Y v v 4 "
};
