/* XPM */
static char *_e6c0747da19465bb8efba98310b7fa0ZpS0vxNqFGvTkdOI[] = {
/* columns rows colors chars-per-pixel */
"64 64 118 2 ",
"   c #47704C",
".  c #158EE2",
"X  c #0E8FE9",
"o  c #E41D52",
"O  c #FA1555",
"+  c #0394FA",
"@  c #F01954",
"#  c #0593F9",
"$  c #0394FB",
"%  c #F6E80F",
"&  c #0294FC",
"*  c #0D92F1",
"=  c #0693F7",
"-  c #0395FB",
";  c #FA1555",
":  c #E71953",
">  c #FCED06",
",  c #E41B52",
"<  c #E7DB27",
"1  c #0494F9",
"2  c None",
"3  c #0594F8",
"4  c #128CE4",
"5  c #FC1455",
"6  c #108CE2",
"7  c #649FA2",
"8  c #0A91F2",
"9  c #FCEE08",
"0  c #E6D917",
"q  c #FA1555",
"w  c #0294FB",
"e  c #656092",
"r  c #C82453",
"t  c #0796F0",
"y  c #D5276D",
"u  c #FD1454",
"i  c #0D90EC",
"p  c #EC1B55",
"a  c #148BDC",
"s  c #0E8EE8",
"d  c #D92154",
"f  c #0294FB",
"g  c #556ABA",
"h  c #E6DC2C",
"j  c #0F8DE6",
"k  c #F41756",
"l  c #F4E918",
"z  c #E41C50",
"x  c #D02A70",
"c  c #0992F1",
"v  c #0B91F0",
"b  c #7B55A0",
"n  c #1C87EB",
"m  c #1F86EA",
"M  c #F91555",
"N  c #E11F5B",
"B  c #F81757",
"V  c #0894F4",
"C  c #F6EA1B",
"Z  c #F6EB1F",
"A  c #FAEC17",
"S  c #D23358",
"D  c #0892F2",
"F  c #FBED07",
"G  c #FBEC04",
"H  c #F4E80F",
"J  c #F4E80D",
"K  c #FA1555",
"L  c #F43A44",
"P  c #1E86E7",
"I  c #FBDA0A",
"U  c #EC1A54",
"Y  c #EA1A54",
"T  c #5E64BD",
"R  c #ED1A56",
"E  c #F9EB0C",
"W  c #F8D50F",
"Q  c #F01956",
"!  c #F1E614",
"~  c #F1E517",
"^  c #F41755",
"/  c #2384E3",
"(  c #F8D511",
")  c #F43744",
"_  c #2682E0",
"`  c #CD2B72",
"'  c #F1164A",
"]  c #E21D53",
"[  c #2B7EDA",
"{  c #EEAD2B",
"}  c #F01753",
"|  c #9D4492",
" . c #1C88EB",
".. c #F43943",
"X. c #E78234",
"o. c #0195FE",
"O. c #0194FD",
"+. c #0195FD",
"@. c #0096FF",
"#. c #FF1255",
"$. c #FF1456",
"%. c #0095FF",
"&. c #FFF101",
"*. c #FE1455",
"=. c #FEF002",
"-. c #FCD80A",
";. c #F93543",
":. c #FC1456",
">. c #0891F9",
",. c #327CDC",
"<. c #E91E63",
"1. c #6461B9",
"2. c #CA2E76",
"3. c #2184E8",
"4. c #DA256D",
"5. c #158BF0",
"6. c #FDED01",
"7. c #516BC5",
/* pixels */
"                                                                                                                                ",
"                                                                                                                                ",
"                                                                                                                                ",
"                                                                                                                                ",
"                                                                                                                                ",
"                                                                                                                                ",
"                                                                                                                                ",
"                                                                                                                                ",
"                                                                                                                                ",
"                                                                                                                                ",
"                                                                                                                                ",
"                                                                                                                                ",
"                                                                                                                                ",
"                                r Y @ @ @ @ @ @ @ p o               r U @ @ @ @ @ @ @ p d                                       ",
"                                o O :.:.:.:.5 :.:.; :               o O :.5 :.:.:.:.:.; ,                                       ",
"                                o O $.*.*.$.*.*.$.q :               o O $.:.:.$.*.*.$.; ,                                       ",
"                                o O $.:.5 5 5 :.$.q :               o O $.:.5 5 5 *.*.; ,                                       ",
"                                o O *.K N p @ M *.q :               o O *.q N p @ M *.; ,                                       ",
"                                o O $.q :   d O $.q :               o O $.; ]   o B $.; ,                                       ",
"                                o O #.u :   o O #.u :               o O #.; '   z B #.; ,                                       ",
"                                o x 4.y b t g x 4.y b t 4 4 4 4 4 t g x 4.y b t g ` 4.y S                                       ",
"                                . / 3.m # # # n 3.m # # # # # # # # # n 3.m # # # n 3.P 4                                       ",
"                                . 3 @.@.o.o.o.+.@.@.+.o.o.+.o.o.o.@.o.o.@.@.+.o.o.%.@.+ X                                       ",
"                                . 3 %.+.o.%.o.+.%.o.+.o.+.+.%.O.o.o.+.+.@.+.+.%.o.o.%.+ X                                       ",
"                                . 3 O.O.O.O.O.O.O.f 8 = 8 $ O.O.O.O.f 8 = 8 & O.O.O.O.# X                                       ",
"                                . 3 %.+.O.%.+.+.%.$ *   . - %.O.O.o.+ *   6 1 %.o.o.o.+ X                                       ",
"                                . 3 %.o.o.%.o.O.%.$ *   . - %.%.%.%.$ *   6 1 %.o.o.%.+ X                                       ",
"                                . 3 +.w >.>.>.O.o.$ *   . - o.O.O.o.$ *   6 1 o.O.w w # X   e 7 7 7 e                           ",
"                                7 s c [ | 2 2 3.+.$ *   . - O.O.O.O.+ *   6 1 O.& v i i a   a = V 8 6                           ",
"                                      o O #.<.,.@.$ *   . - %.o.o.%.$ *   6 1 %.+ 4         6 1 @.$ X                           ",
"                                      o O #.<.,.@.$ *   . - %.%.%.%.$ *   . 1 %.+ 4         . 1 o.+ X                           ",
"                    e t X X X X X X X g B #.<.,.@.$ *   . - O.O.O.O.& c 4 s 1 O.$ i X X X X s 1 +.+ X                           ",
"                    . V $ + + + + + + P 2.#.<.,.@.$ *   . - +.O.O.+.O.$ + + w +.w $ + + + + + w +.+ X                           ",
"                    . 3 @.+.+.@.+.+.@.5.2.#.<.,.@.$ *   . - %.o.O.%.o.+.@.+.+.@.o.o.+.+.+.@.+.+.%.+ X                           ",
"                    . 3 @.+.+.o.+.O.@.5.2.#.<.,.@.$ X   a - %.+.@.@.@.@.@.@.@.@.@.+.@.+.+.o.o.O.o.$ X                           ",
"                    . 3 O.f 8 = = = = _ y #.<.,.+.f D v v # O.>.7.1.1.1.1.1.1.1.T 8 = = = = = = = D 6                           ",
"                    . 3 o.& j         o O #.<.,.@.+.+.+.O.O.@.5.2.*.:.:.:.:.:.:.; ,                                             ",
"                    . 3 @.& j         o O #.<.,.@.o.o.@.%.o.@.5.2.#.*.*.$.*.*.$.; ,                                             ",
"                    . 3 +.+ j     r r z O #.<.,.O.>.>.>.>.>.>. .2.5 5 :.*.*.*.*.; : e r e                                       ",
"                    7 s c i a   d R k k K *.:.2.2 2 2 2 2 2 2 2 N } @ M :.:.:.:.5 ^ k Q z                                       ",
"                                o O *.:.:.$.*.#.#.#.#.#.#.#.#.u :   o O $.*.*.$.*.*.*.q ,                                       ",
"                                o O #.#.#.#.#.#.#.#.#.#.:.#.#.q :   o O #.#.#.#.#.#.#.; ,                                       ",
"                                o L ;.;.;.;.;.;.;.;.;.;.;.;.;...X.0 { L ;.;.;.;.;.;.;.) S                                       ",
"                                < ( -.-.-.-.-.-.-.-.-.-.-.-.-.I > > > I -.-.-.-.-.-.-.W 0                                       ",
"                                < 9 &.=.=.&.&.=.&.&.=.&.&.=.&.=.=.=.=.=.&.=.=.&.=.=.&.> 0                                       ",
"                                < 9 =.=.=.=.=.=.=.=.=.=.=.=.=.=.6.=.=.=.=.=.=.=.=.=.=.> 0                                       ",
"                                h ~ % H > 6.G J % % % % % % % % % % % % % H > 6.G J % ! <                                       ",
"                                      < 9 =.> l                           < 9 =.F 0                                             ",
"                                      < 9 =.> l                           < 9 =.F 0                                             ",
"                                      < E =.F l                         e < 9 6.F 0                                             ",
"                                      7 Z A C h                           7 Z A C h                                             ",
"                                                                                                                                ",
"                                                                                                                                ",
"                                                                                                                                ",
"                                                                                                                                ",
"                                                                                                                                ",
"                                                                                                                                ",
"                                                                                                                                ",
"                                                                                                                                ",
"                                                                                                                                ",
"                                                                                                                                ",
"                                                                                                                                ",
"                                                                                                                                ",
"                                                                                                                                "
};
