/* XPM */
static char *eb2cb1c5aba44ac89657a45ab09d6231UVPg3nPbGWF9tAmJ[] = {
/* columns rows colors chars-per-pixel */
"64 64 203 2 ",
"   c white",
".  c #FFFFFE",
"X  c #FEFEFE",
"o  c #BB6846",
"O  c #FAFDFD",
"+  c #FCFFFD",
"@  c #EEF7F8",
"#  c #E07845",
"$  c #E0F0F3",
"%  c #F6FBFB",
"&  c #F4FAFA",
"*  c #D9EDF1",
"=  c #BD6946",
"-  c #C36B46",
";  c #732A03",
":  c #B15224",
">  c #DCEEF2",
",  c #CBE7ED",
"<  c #ECF6F7",
"1  c #9E461B",
"2  c #F8FCFB",
"3  c #E9F5F6",
"4  c #CE6E46",
"5  c #924522",
"6  c #FEFFFE",
"7  c #F2F9F9",
"8  c #E6F3F5",
"9  c #D6ECF0",
"0  c #D3EAEF",
"q  c #D0E8EE",
"w  c #337574",
"e  c #863915",
"r  c #C86D46",
"t  c #E3F1F4",
"y  c #C7E5EC",
"u  c #93411B",
"i  c #341608",
"p  c #A1512E",
"a  c #44B7B7",
"s  c #B15C38",
"d  c #732E0E",
"f  c #6B949B",
"g  c #FCFDFD",
"h  c #BD6A46",
"j  c #C3E3EC",
"k  c #B3633F",
"l  c #7A2F08",
"z  c #C16945",
"x  c #6F969E",
"c  c #DB7748",
"v  c #C96A44",
"b  c #626E6E",
"n  c #E4F2F5",
"m  c #D17345",
"M  c #D26F45",
"N  c #CC6D45",
"B  c #B86643",
"V  c #C4602F",
"C  c #994A26",
"Z  c #D97546",
"A  c #B05730",
"S  c #E27641",
"D  c #9C4D2A",
"F  c #DF7540",
"G  c #67A9AF",
"H  c #BCE0EA",
"J  c #974724",
"K  c #AB5C39",
"L  c #42BCBB",
"P  c #B4DCE7",
"I  c #C3C1C1",
"U  c #67A0A5",
"Y  c #5BD7DA",
"T  c #5FC8CC",
"R  c #AAD7E4",
"E  c #5EC3C7",
"W  c #BB653F",
"Q  c #59D0D3",
"!  c #B9DEE8",
"~  c #61B6BB",
"^  c #B05324",
"/  c #A5522F",
"(  c #A44C23",
")  c #4C656B",
"_  c #5CCACE",
"`  c #6B9BA3",
"'  c #63ACB2",
"]  c #9A9B99",
"[  c #F2F2F1",
"{  c #95CEE0",
"}  c #50696D",
"|  c #BFE1EB",
" . c #4A6265",
".. c #986340",
"X. c #A1471C",
"o. c #3D3329",
"O. c #B4B9BA",
"+. c #DB8054",
"@. c #B95B30",
"#. c #AFDAE6",
"$. c #99431A",
"%. c #D36C39",
"&. c #A0D3E3",
"*. c #BE6038",
"=. c #E97A46",
"-. c #AA5833",
";. c #6A8F96",
":. c #F7F8F8",
">. c #458F92",
",. c #66A6AE",
"<. c #5ADCDE",
"1. c #60BDC2",
"2. c #69979E",
"3. c #872C28",
"4. c #282928",
"5. c #8D3C17",
"6. c #50C1C3",
"7. c #B7A79F",
"8. c #D57145",
"9. c #B67457",
"0. c #81320C",
"q. c #4DABAC",
"w. c #3B5D61",
"e. c #662709",
"r. c #62868B",
"t. c #63B1B6",
"y. c #58E2E3",
"u. c #4A1E09",
"i. c #3F5357",
"p. c #73645C",
"a. c #A7B3B6",
"s. c #C5ADA0",
"d. c #678D94",
"f. c #293838",
"g. c #292E2C",
"h. c #9C4318",
"j. c #869291",
"k. c #B86F4C",
"l. c #D88861",
"z. c #A96D40",
"x. c #4C5E5E",
"c. c #995531",
"v. c #6A6130",
"b. c #3F1705",
"n. c #366D6E",
"m. c #91352B",
"M. c #C5612F",
"N. c #B46946",
"B. c #758A8B",
"V. c #784222",
"C. c #7E6739",
"Z. c #498586",
"A. c #572007",
"S. c gray75",
"D. c #55E9EA",
"F. c #B87D63",
"G. c #77381C",
"H. c #614E26",
"J. c #C86637",
"K. c #874421",
"L. c #8E4926",
"P. c #477175",
"I. c #83512D",
"U. c #745445",
"Y. c #643A16",
"T. c #836150",
"R. c #65A4AA",
"E. c #A54433",
"W. c #AB5124",
"Q. c #414416",
"!. c #47989A",
"~. c #B7CDD2",
"^. c #87592E",
"/. c #6F5931",
"(. c #3F2212",
"). c #519D9E",
"_. c #9DA1A1",
"`. c #587B7F",
"'. c #35231C",
"]. c #344442",
"[. c #735E4A",
"{. c #C8AFA1",
"}. c #CDD1D2",
"|. c #8F5934",
" X c #D6D5D6",
".X c #49797E",
"XX c #92A4A8",
"oX c #E4E5E6",
"OX c #1E1614",
"+X c #4B5C5A",
"@X c #593820",
"#X c #4D7578",
"$X c #3B4C4D",
"%X c #35827F",
"&X c #717E7E",
"*X c #637777",
"=X c #D4E2E4",
"-X c #DCDCDB",
";X c #717369",
":X c #AC4435",
">X c #C3CBCD",
",X c #787A7A",
"<X c #78797A",
/* pixels */
"7 X           g > t       . * &               % H * 8 O , %                       . 8 9 .         X y 7       X j n * P &.{ &.y ",
"q > & .   g > j P 9 .       $ 7               g j * 8 < * 2                     . @ j &     .     g ! @       . P { , 8 7 % 3 9 ",
"O < q * g 3 q 3 % * q @ O . t &               + | n 2 $ y 2             . . X 7 0 R R 3 n 0 q $ < $ { 8       6 #., .           ",
"    7 #.! 7       O y y 9 9 , O               O j &   6 $ q [ :.:.:.:.:.@ > y R &.$ 7 * q > y #.#.! R >       & R 7             ",
"      t #.2         & > % $ j 6               & q g [ [ I x.+Xx.x.x.+XB.=XoX8 R , X   . .     X 2 @ j H X     3 ! 6             ",
"      7 , X         g 9 O % q 6               % =X-X*Xx.Z.L L L L L L q.) x.a.~.t                   O ! 3     n ,               ",
"      7 9 6       . < 9 X O 0 O             [  XB.n.a 6.Q Y t.,.,.G E <.6.6.>.w.O.oX                  > q     3 >               ",
"      X > 2     . 7 * 2     * $ .       [ S.j.n.6._ ,.U U E E x x R.Y ,.U U ~ Y Z.#Xa. X              7 j X   & $               ",
"      g ! y 7 O @ j @       2 y 8 .   [ XXn.!.Q Y E ` x x ).Z. . .} !.2.x f ' Q Q 6.w `.}.            O H 7 . 2 * X             ",
"    . > H j > t R 9 .         & , $ [ XXq.y.t.2.` 1.t.w.i.o.i i i i '.$Xi.Z.T G 2.` Q Q d.}.          g ! <   X , @             ",
"  . < 0 2     O q 8             & R x !.E T t.f ;.w.w.(.b.A.; ; ; ; e.b.b.].w.`.f U E T q.d. X      O $ { 9 & X j | O           ",
"& 8 0 %         & * 2           :.j.!.t.2.R.E P.f.(.u.; ; $.@.p p p C l l e.u.o.].q.~ 2.R.q.r.>X> , | ! { &.! 0 | P , 8 7 % 2 2 ",
"y j 0 .         6 < * $ < O 6 X ] ).~ x x f } o.A.; 0.-.( : c = = h K u J.X.l A.u.$Xr.x f ,.a #X~.@ 7 O j > % 2 O g & 7 @ 7 < > ",
"O O $ 7 .         X @ 0 j , 3 [ *XL Y ,.f x.(.d 0./ s - A : c o o = K 1 =.v s u l A.o.r.` 1.y.n.S..   X > 2 .               6 O ",
"  . 3 j 2               . & 9 B.).~ ' 1. .(.e.@.M = o r A : c o o = K 1 # N N z *.0.A.o.).1.R.6.P.-X  g < X                     ",
"  . . * 8 .               6 ~.#Xq.G x `.i d 0.M.S v h M A W.Z o z = -.1 # - 4 M v 5.e u.].` 2.1.w O.g 2 3                       ",
"    . < > .             6 3 &X>.~ f d.+Xo.L.K.V Z - h z.c.m.E.K W / m.u k.N.- 4 z K.J.Y.o.`.f ` 6. .[ O t .                     ",
"    . 7 9 X             2 ~.r.q.T 1.r.'.H./.V.^.z.C.z.C.H.3.3.3.3.3.3.H.C.z.C.z.I.Y...v.u.$Xt.E E >.O.7 y $ O                   ",
"    X $ ! %             7 _.%XE ~ 1.i.o.H.C.G.Y.c./.^.|.H.m.u m.3.3.3.Y.K ^./.c.@XG.C.v.e.o.>.E ' 6. .[ q 9 q O                 ",
"6 7 q q * 0 2 .         < _.%XE f r.OXY...N.C c.v.Q.|.v.I.( @.E.E.m.J V.v.I.Q./.c.$.m ..L.b.i.x U 6. .[ 8 2 9 > 6               ",
"$ > < g 6 3 , 8 .     & , _.%X1.f r.'.d B = C ^.v.Q.N.z.p ( :XE.*.m.D $.z...Q.v...$.F - p b.i.f U 6.} [ 8 & O 0 <             2 ",
"< g         3 &.$ .   n a.Z.6.' U ].A.5.B = J V - ..r h p ^ *.A W / -.1 # o |.k v h.F - / e.'..XG ~ q.j.8 @   7 0 g       2 > y ",
"          . t P j $ < | ` n.D.<.Q f.d %.z = J V m o = h p : # v z r s 1 # o = N v h.F - B 5 i >.<.y.L b 3 <     3 n & % @ * > % ",
"          3 | & 2 3 7 & a.w _ U 2.g.d S - h J M.m o h h / : =.r = 4 s 1 # h = r v $.S - h C i } U t.a b < 3 .   X 7 t H q % .   ",
"        O 0 3           S.w T f ;.o.; @./ p 5.( A p p p 5 $.@./ p -.C 5.@.p p p D e @./ p 5.u.} x G a b :.@ .       . $ @       ",
"        < <             I w T f ;Xc.: : : : : : : : ^ ^ ^ : : : : ^ ^ ^ : : : : : : : ^ ^ : W.T.B.G a b n $ X       6 8 & .     ",
"      X t O             I w y.T [.%.# Z +.l.Z Z Z c l.c Z Z Z c l.+.Z Z Z Z l.+.Z Z Z +.l.Z Z L.U Y L b y * < X     X > &       ",
"      O n X             I w <.~ [.%.- B k.9.B B B N.9.N.B B B B 9.N.B B B B 9.k.B B B k.9.B B K.f T L  .0 X $ > 2 . g , &       ",
"      % > X             I w T f &XI.e e e e e e e e e e e e e e e e e e e e e e e e e e e e e p.d.G a ) >   g 8 > 3 < * X       ",
"      8 0 6             I w T f ;.o.e.0.l l d l 0.l l l l l 0.l l l l ; 0.l l l l ; 0.l l ; b.} x ,.a } 8   . . O 7 9 >         ",
"2 2 7 , q 8 @ % 6 . . O O.w Q ' R.g.d %.k k 5 @.M W k k D ( 8.W k k A h.M k k k K 5.%.W W 5 i P.' 1.a  .t           7 n     6 O ",
"9 y H 7 O 7 $ | 9 * > $ O.w D.Y _ f.d S - h J V # 4 = = p ^ =.r = h *.X.# = o h k u F 4 4 D i >.Y y.L ) <       X 7 3 9 % 3 * 0 ",
"2 y $ . .   X t j &.9   I w _ ` f 4.d F N...J V 8.N z o p : # 4 - - *.X.# o o o k u S 8.4 ( i ) ` ' a b g     . , , @ $ j j > 7 ",
"&.j X         X @ 9 9 2 I w T f d.4.d m T.p.V.V m N v h p : c r - 4 *.1 # o z h k u S M r ( i ) x G a b 7 X 6 8 R @   . 7 , #.P ",
"{ ,               . @ , S.w _ 2.;.4.d h p.<X@XM.m - 4 h p ^ c r N 4 s 1 # o v - k u S M r ( i ) ` ' a ) j q q P y         . 2 @ ",
", j .               . , a.w D.Y _ f.d m T.p.V.V m = 4 r p ^ c z 4 M s 1 # = v - k u S M r ( i >.Y <.L b % & 3 j $               ",
"8 ! O                 < a.w Y ~ ' g.d S ..U.C V m o v 4 / : c o N M s 1 # = v - k u S 8.M ( i .X~ E a b g     8 <               ",
"2 ! <               6 7 XXw T f d.4.d S ..U.J V m o z 4 p : c o N M s 1 # o v - k u S 8.4 C i ) x G a b g     3 @               ",
"  * 8                 < ` w T f d.4.d # ..U.J V m o z 4 / : c o N M s 1 # o r - k u F N r C i ) x G a b g   6 q 8               ",
"  7 , 2               3 a.w Y ~ ' g.d S ..U.C V m o = N A : c o N M s 1 # h N v k u F r 4 C i .X~ E a b g   O P 3               ",
"  & ! q 2             7 O.w D.Y _ f.d m T.p.V.V m o o - A : c o N M s 1 # v M M W u F r M ( i >.Y <.L b g   8 H g               ",
"  @ 9 * , & X       . n O.w _ 2.;.4.d h p.,X@XM.m o o - A : c o N M s 1 # v M M W u F r 4 D i ) ` G a b g   0 9                 ",
"  & > O 0 y q 3 & & , 0 S.w T f d.4.d m T.p.V.V m o o - A : c o - - K 1 # v N 4 W u F r r C i ) x G a b g   j 8                 ",
"  g $ O . O 7 < $ 0 ! 9 O.w _ ` f 4.d F k ..J V m o o - A : c o o o K 1 # 4 v v W u F - - C i } ` ' a b g X ! @                 ",
"  6 $ 7         g g X 7 a.w D.Y _ f.d F z = J V m o o - A ^ c o o = K 1 =.N = N W u F - o C i >.<.y.L b g % R @                 ",
"  . 8 @ .               S.w Q ' R.g.d S z h J V m o = - A : c o = h K 1 =.N = r v $.F - h C i P.' 1.a  .P H &.q X               ",
"  . $ 7 .               I w T f ;.g.d J.s K u ^ W K s *.C ( J.K K K p u %.*.s s s 5.J.s K 5 b.} x G a  .{ $ % q 9 2 .           ",
"7 > H O                 I w T f &XI.$.X.1 1 h.1 X.1 1 X.h.1 X.1 1 1 1 h.X.X.1 1 1 h.X.1 1 h.u p.;.G a b q $ . X 8 > < X     . 6 ",
", 0 j                   I w <.~ [.%.=.# +.+.# # # # l.# # # # # l.+.# # # # +.+.# # # +.+.# # L.f T L b :.9 X     % t 9 n 3 8 0 ",
"O 2 9 X                 I w y.T [.%.r o 9.F.= o o k.F.k.o = = h F.k.o = = = F.9.o = = 9.F.= o K.U Y L b % 0 O       6 3 ! R 9 $ ",
". O 0 7                 I w T f ;Xc.J 5 5 5 5 5 5 5 5 5 5 5 5 5 5 5 5 5 5 5 5 5 5 5 5 5 5 5 5 [.B.G a b t 0 % O       . 7 j g   ",
"  6 7 $ & . .           I w T f ;.o.e.; ; ; ; ; ; ; ; ; ; ; ; ; ; ; ; ; ; ; ; ; ; ; ; ; ; ; u.} x G a } R , * $ t 3 g 6 % , g   ",
"    . 3 #.| $ 7 % % & % O.w _ U 2.g.; M.@.s 5.W.@.-.s -.J X.*.-.s -.D u *.A A s / 5.*.-.-.u i } U t.a w.! % O O @ q , & $ 9 6   ",
"      . $ { P q * > 3 7 O.w D.<.Q f.d S 4 N J M.m h 4 z p : c r M 4 K 1 # r r 4 W u S - h C i >.<.y.L  .q         X > ! #.&     ",
"        6 > % 6 6 6 .   I w Q ,.U g.d F r N J V m h r = p ^ c r v N s 1 # = r 4 W u F - = C i P.,.~ a w.#.X           * q       ",
"        X 0 &           I w T f d.4.d F - 4 ( V 8.r z = p : c N - N s 1 # o - - k u F - = C i ) x G a  .{ 8           8 $       ",
"  X % O & R 3           I w _ x ;.4.d # - - C M.Z r = h p : =.4 z r *.X.# = = o k u S - h C i ) x G a b y j           2 * %     ",
"> q | y P ! 0           oXx n.i.i.OXu./ D D d K.A D D D G.G.A D D D 5 d / D D D L.e./ D D G.OXf.i.w.Z.O.0 ,           . $ P 9 $ ",
"3 7 2 2 8 j &.7 .     X @ }.] ] ] ] _.7.7.{.7.7.s.s.s.s.7.7.s.s.7.] j.j.j.] ] B.r.j.s.{.{.7.] ] ] ] O.g y n           6 X 0 { y ",
"          O * j 7   < q > 2           + 8                     > , , n % 2 & 3 9 j H 3                 7 P 7 g .           7 0 X ",
"            . 8 j | &.* X     7 8 t t 0 P 7               X 8 t 2           6     % > < .           . q P q * 7           < *   ",
"              . 3 { , t 3 O < q 8 3 3 < t 0 7 6         X 8 3 .                     g 3 O           & , % 2 2 8 %         $ 0   ",
"                % 0 g X < 0 #.@           < , 7 .   6 % 9 * X                       6 $ 2           $ $       3 $         0 q   ",
"                7 t     X @ j 2             3 q @ . 3 q ! @                         g 0 2           9 @       7 y X     O R q   "
};
