/* XPM */
static char *e1bae7b446344278c33912ed6e1c09676BMzrKPzuZnaTkPL[] = {
/* columns rows colors chars-per-pixel */
"64 64 224 2 ",
"   c white",
".  c #FFFFFE",
"X  c #FDFDFD",
"o  c #FFFEFF",
"O  c #FAFDFC",
"+  c #FCFEFD",
"@  c #F6FBFB",
"#  c #FDFFFE",
"$  c #F8FCFB",
"%  c #FEFFFF",
"&  c #EBF6F7",
"*  c #FEFEFE",
"=  c #F1F8F9",
"-  c #E6F4F6",
";  c #EFF8F8",
":  c #F5F9F9",
">  c #B7DD3D",
",  c #DCEFF2",
"<  c #E1F0F3",
"1  c #F3FAFA",
"2  c #D9ECF1",
"3  c #E4F1F3",
"4  c #D4EAEE",
"5  c #EDF7F9",
"6  c #E9F5F7",
"7  c #D0E9EE",
"8  c #E1F1F4",
"9  c #DAEEF1",
"0  c #D2EAF0",
"q  c #EDF6F7",
"w  c #D6ECF0",
"e  c #DEF0F3",
"r  c #EAF4F6",
"t  c #E4F2F4",
"y  c #C6E4ED",
"u  c #FFFEFE",
"i  c #CAE6ED",
"p  c #DFEFF2",
"a  c #ADD9E5",
"s  c #D4EBF1",
"d  c #BEE1EA",
"f  c #B6DC3D",
"g  c #CCE6EC",
"h  c gray98",
"j  c #B5DDE8",
"k  c #E8F3F5",
"l  c #FEFFFE",
"z  c #B2DBE7",
"x  c #BBE0EA",
"c  c #96B437",
"v  c #1A0F0D",
"b  c #C6E4EB",
"n  c #C4E3EC",
"m  c #DCEEF1",
"M  c #4F5327",
"N  c #F14736",
"B  c #5D6B27",
"V  c #5D672A",
"C  c #DBDADA",
"Z  c #C1E2EB",
"A  c #A6C73B",
"S  c #36301D",
"D  c #FCFDFC",
"F  c #CDE8EF",
"G  c #C8E5EC",
"H  c #B9DEE8",
"J  c #F8F8F8",
"K  c #726E68",
"L  c #6D6864",
"P  c #545A26",
"I  c #829B32",
"U  c #642824",
"Y  c #FAFBFC",
"T  c #CEE8EF",
"R  c #A9CC3B",
"E  c #D2D1D0",
"W  c #CBC9C8",
"Q  c #9CD1E2",
"!  c #EFEFEF",
"~  c #A4A09F",
"^  c #93948E",
"/  c #657528",
"(  c #697B2A",
")  c #44461F",
"_  c #9DBC39",
"`  c #4A4D20",
"'  c #39391D",
"]  c #77726C",
"[  c #ABA9A7",
"{  c #E1E0E0",
"}  c #A7D6E4",
"|  c #B1D53D",
" . c #B4D93D",
".. c #94CEE0",
"X. c #A2C23A",
"o. c #89362E",
"O. c #F6F6F6",
"+. c #E9E9E9",
"@. c #7E7776",
"#. c #7C962E",
"$. c #58534A",
"%. c #49433C",
"&. c #514C47",
"*. c #70842C",
"=. c #607025",
"-. c #8EAA34",
";. c #A3D4E3",
":. c #4C4E36",
">. c #70382F",
",. c #E5E5E4",
"<. c #B3B1AE",
"1. c #F2F1F1",
"2. c #8DA636",
"3. c #B9B6B6",
"4. c #BFBEBD",
"5. c #30271A",
"6. c #ACCF3D",
"7. c #738A2C",
"8. c #AFD33C",
"9. c #261E13",
"0. c #B8DDE6",
"q. c #556224",
"w. c #851F1F",
"e. c #E34234",
"r. c #EDECEC",
"t. c #5F5A54",
"y. c #F44737",
"u. c #918D8A",
"i. c #6A514B",
"p. c #86827E",
"a. c #88A231",
"s. c #77912D",
"d. c #CECCCC",
"f. c #C7382D",
"g. c #867C79",
"h. c #727C32",
"j. c #666A47",
"k. c #5D6148",
"l. c #3F3E1E",
"z. c #601D1A",
"x. c #5C5E2B",
"c. c #CDE7ED",
"v. c #A68078",
"b. c #B6928A",
"n. c #B8DF3D",
"m. c #9B2D26",
"M. c #8C8983",
"N. c #869E36",
"B. c #6D7339",
"V. c #9F9796",
"C. c #CD3B2E",
"Z. c #788633",
"A. c #60312C",
"S. c #C5C3C3",
"D. c #444232",
"F. c #7C8A74",
"G. c #442119",
"H. c #D5D8D4",
"J. c #745956",
"K. c #5F583B",
"L. c #827F45",
"P. c #8BA138",
"I. c #B5382C",
"U. c #80923D",
"Y. c #73443F",
"T. c #5E492F",
"R. c #A5352A",
"E. c #4F1C18",
"W. c #341714",
"Q. c #CD9C91",
"!. c #924D44",
"~. c #924237",
"^. c #91CDE1",
"/. c #D83E31",
"(. c #645F5B",
"). c #A89A70",
"_. c #B4A16F",
"`. c #F4F4F3",
"'. c #EBF0EB",
"]. c #D1E7D3",
"[. c #B72E29",
"{. c #A86357",
"}. c #BACABB",
"|. c #8EA28D",
" X c #8A6E68",
".X c #782720",
"XX c #C0E2C3",
"oX c #BDA7A0",
"OX c #7AC3DB",
"+X c #7A6360",
"@X c #978550",
"#X c #737853",
"$X c #7F8C45",
"%X c #837145",
"&X c #F8DB83",
"*X c #FBEBB3",
"=X c #787A61",
"-X c #F5D780",
";X c #F1D581",
":X c #DCC073",
">X c #7C6A42",
",X c #A08E76",
"<X c #A9453A",
"1X c #DA9988",
"2X c #D57D6A",
"3X c #9DB59D",
"4X c #C2493B",
"5X c #F0BEB1",
"6X c #C4D8C4",
"7X c #DCB9B1",
"8X c #F7D8CE",
"9X c #DFF0E2",
"0X c #D7ACA1",
"qX c #BF7162",
"wX c #8ECBDF",
"eX c #E5C97A",
"rX c #808266",
"tX c #D8BC73",
"yX c #E88979",
"uX c #D3BA70",
"iX c #D2BD7B",
"pX c #B5D3B6",
"aX c #956158",
"sX c #DEA99C",
/* pixels */
"= *           + 9 8       . 9 1               @ x 9 k O i @                       . k s .         * y =       + Z t 2 z ;.^.Q i ",
"c.9 1 .   D , n j w .       < =               + n 9 k q 2 $                     . 5 b :     .     + H 5       . j ..c.- 1 @ 6 w ",
"O q T 2 + r 7 - @ 2 7 5 O . 3 1               # d t $ < b @             . . + = s } } 6 t s T e & e Q -       l z i .           ",
"    1 a x =       O b G w s c.O               O n 1   * t p @         D & 9 G a Q e = 2 T 9 y z a 0.a 9       1 a 1             ",
"      8 a $         1 m @ < n l               1 c.D     l 1 k r ; : q p < ; ; } g +   . .     * $ 5 n x +     - H l             ",
"      = c.+         D 2 O @ 7 l               1 t       * * Y k 2 q = : D .   Z -                   O H 6     t c.              ",
"      1 w #       . & 2 + O 4 O               O r Y *       + X O.1.O.%   * Y n 1                     9 7     6 9               ",
"      * m $     . = 2 $     2 e .             D Y   r.W C [ p.L i.i.J.g.3.r.  q Y *                   = n +   1 <               ",
"      + H G 1 O ; b 5       $ i k .         X * ,.<.L ] (.^ W t.z.f.C.I.o.i.[ O.* Y *                 O x = . $ 2 *             ",
"    . m x y m 3 } w .         1 g , + .   * * ! K t.~ O E 4.  +.^ o.N y.N /.o.] ,.  Y *               + H q   * i 5             ",
"  . & 0 Y     O c.k             1 z d - @ D   3.g.'.`.# Y ! *   `.i.C.y.N y.N R.J.{ l h             O e Q w 1 * n d O           ",
"1 k 4 Y         : 2 $             1 d a 7 =   V.^ ].6XH.$ l l % J ] U f.N N N N I.+X! D D   + & 2 c.d H ^.;.H 7 d z i k = @ $ $ ",
"b n 4 .         l q 9 < q O l       , y D   d.L |.F.:.$.}.].'.# # 1.3.Y.f.y.N N N m.V.  h D < g , 6 1 O b m @ $ O + 1 = ; = q 9 ",
"+ O p = .         * ; s n g 6 l     = m D   d.&.K.( 7.B :.:.^ + %     ~ z./.f.e.y.e.Y.{ $ < 8 O       + , $ .               % O ",
"  . r b $               . 1 4 1     * = * ! { j.2.> 8.X.a.V :.}.9Xq # [ &.A.w.m.N y.m.~ % @           D q *                     ",
"  . . 2 k .               + x m .   X * C L %.2.n.f f f  .X.=.:.k.3X9X,.'.^ z.z.C.y.f.+Xh X           $ r                       ",
"    . & m .             l 3 g 4 < @ D X @.S 9.P.R  .f f f | R I q.D.K {   S.E.E.w.C./.Y.+.*           $ 3 .                     ",
"    . 1 w *             @ m O Y k 9 9 * M.v v ) 2.A f f  .c 6.I ) v &.}.O 4.&.D.z.w.f.>.H.            @ b < Y                   ",
"    * e H @             6 ;       * @ * { %.v 9.2. .f f f 2.V 5.v v 9.F.].6XF.%.W.w.[.>.d.            1 c.w 7 O                 ",
"l = T T 9 4 $ .         k @           X O.p.S v / f  . .c ' v v v S l.|.XXXX3X$.K U m.U W             D t $ 2 m l               ",
"p m & + l 6 g t .     1 g @ 5 p 6 * *   C )._.9.S U.N.Z.S v v S >Xx./ k.|.pXXXL E @.w.U E             l k 1 O 4 q             $ ",
"& D         6 Q p .   < H 4 4 9 b , @   <._.;XT.v 5.S 9.v 9.>XuX:Xh.c B ' ^ F.] O.d.U A.C               6 q   = 4 D       $ m g ",
"          . 3 j n < & x ..s +   D : l E k.,X-XK.5.' S 5.v T.;X*XiXZ.f c B 5.L ,.  O.J.A.,.              5 q     k t : @ 5 9 p @ ",
"          6 d : $ 6 : ; 4 -     X . E k.-.L.:XtX%X) ` @XK.).&X*X).2.n.A #.` L h     u.%.! * *           = 6 .   * : 3 x 7 @ .   ",
"        O 4 6           & <     X h u.B. .P.B.L.h./ P L.eX&X-X_.h.8.> A #.B t.1.    u.5.4.  X           Y ; .       . e 5       ",
"        q &             $ r     X D p.*.n.R _ R A R | P.L.@X%XB.A f f c s.( K Y   h @.p.K W   *       . 6 p *       l - 1 .     ",
"      * 3 O             O k *   * O.&.B f f > > c A > f X.N.N.A > f R I s.q.K D   C @.+ ~ K X = & q = : T 9 q *     * m 1       ",
"      O t +             + e 1   X h @.M 6.> f f 6.| f f f > f f f R I s.( S [     W L C L ~ * Y Y @ & b 2 * < m $ . D g 1       ",
"      @ , +             . t t   X u H.] Z.6.n.| _ | f f f f f  .X.I ( / :.@.1.O D r.(.t.~ h X *       - e   D t p r q 2 *       ",
"      k 0 l             . 8 7 Y l X   C t.B _ _ B I  .f > f R -.#.*.` %.3.h   $ D * ! ,.* X X         = 6   . . O 1 w p         ",
"Y $ : i 7 k 5 @ l . . @ 3 < q r = D D   E L ` / -._ | 6.c -.I s.B T.A.S j.M.+.* X X * % X *           t t           = t     l O ",
"w i x = O : < Z w 9 m m 6 +   + p x w < + ! [ $.M ( *.x.T.l.q.) ~.4XI.>.=.` t.1.* *                 + m ;       + = k 2 @ 6 2 7 ",
"$ G < . .   * 8 n Q w +         - c.1 & @ *   1.d.^ A.<Xo.U v U R..Xm..XB 7.M [ + X *             . r ;       . c.c.; < n Z 9 = ",
";.Z +         * ; s w 1 .       6 t . . * + X . `.~ .XR.U W.W.G.W.U U G.` *.N.V <.* D *         * m m = @ + l t } ;   . 1 i z j ",
"..F               . 5 b @       < 5           +.L K  Xg. X>.4XY.,XoXoXv.G.) c A U.W   D * . O 1 i ..j x i 7 7 z b         . $ 5 ",
"c.y .               . b -     @ 3 $         * { $.b.Q.Q.b.o.e.o.v.v.v.aXz.G./ R X.j.E % 3 p < 2 ;.wXt O O 1 - n <               ",
"- H O                 k -   D 3 @         X . +.&.v.Q.1Xb.~.e.o.b.sX0X!.E.G.' *.A a.] O.: = O . - j *     .   k &               ",
"$ H &                 & n : i 7 .       * X h ^ l.$.i.b.7X~.e.o.oX8X0X:.l.P M 9.V 8.V 4.+ :   . w w           6 ;               ",
"  9 k                 - } < i b =       X X <.x.V M l.%.J.!.e.R.b.5XV.) ( P.X.P P | / p.O < l @ 7 @         l 7 k               ",
"  = g $               - 9     t j p . *   W B./ U.Z.( =.i.!.N I.v.8XQ.' q.N. ._ -.c =.K Y 7 O t t           O j -               ",
"  1 H 7 $             q q     . 6 d 6 D u g.#.I 6.A c ` {.~.e.C. X5X7X>.) *._ -.( q.j.^   T - w @           - x D               ",
"  5 2 2 i 1 *       . < =       . @ < r * g.h.#.-._ x.!.2Xo.[.[.>.1XyX2XU 5.) ' S %.W ! * x ..x *           0 w                 ",
"  : p O 0 b 7 k 1 1 F c.O           + :   S.L D.M S >.qXqX>.w.w.U {.{.<XE.S / q.K { * * k 7 t d <           n -                 ",
"  D p O . O 1 & < 4 0.4 : .           @ r Y r.3.~ :.M M M ` ` P P V V V / 7.#.M g.  D ; 3 $   = n 0 ; .   * x 5                 ",
"  l < :         + + + 5 2 :       D 5 T 9 X *   S.x.c _ X.A 6.8.| | 8.8.c s.7.' <.+ g G $ .     $ 9 H 9 . @ a ;                 ",
"  . k ; .               ; t . . q 3 3 ; +   X   [ ' X. .f > f f f > > | a.7.V ] `.q H z O           ; a j d ;.T *               ",
"  . e = .               + < r k 4 $ .       *   C u.V c 6.R  .f f X.c -.s.=.D.E   D = z t             , ..8 @ T w $ .           ",
"1 9 x Y                 % Y k 0.6           * ; + O.@.M a.c A R A I 7.*.P D.3.  X .   w T             l 4 < . * k p q +     . l ",
"c.0 n                       $ 9 $           l m :   `.M.' q.B =.( / ) l.' V.  X *     - x +           . @ w +     @ 3 2 t 6 - 4 ",
"O $ s *                     1 3 *           l 3 = X   [ P ` %.$.$.(.&.M #.=X! *       - wX-             O 0 O       # 6 H } s 8 ",
". O 4 :                     ; 9 *             & k * O.rXa.P d.O.1.J { k._ h.S.  *     0 OXz =           - 4 @ Y       . 1 b +   ",
"  l = p 1 . .           . l 9 a $             @ &   J =X-.j.!         p.I j.C   * X * z y t b 8 O * * = z g 9 p 3 6 + l @ c.+   ",
"    . r a d e = @ @ 1 = & m s 4 k         * *   J { E V.V B.4.      ,.#XB @.4.W +.  D j 6   : m p e s z x @ O O 5 c.g 1 p w l   ",
"      . 8 Q z 7 9 p k & 5 ; * O 3 Y     * * O.3.F.$XU.$XV V #X+.  h M.B M Z.I I rX<.h 5 @ * + * $ 1 @ 8 0         * p H a 1     ",
"        l , @ l l l .         . r &     X D M.P a.2.#.7./ x.k.H.  `.] M P V B ( *.P ^ h : k q < c.d n H z *           9 7       ",
"        + 0 :                   - a 6 + + r.t.) M K.K u.[ S.C h X * 1.C W 4.<.~ u.K &.C O Y * O 1 & m y Q -           - <       ",
"  * @ O 1 a -               O < i y c.4 ; C ] ~ E r.Y         * * X q $           h +.J X               c.b           $ 2 @     ",
", c.Z G z 0.4           . @ 9 p Y   * k 3 X h     * X X * *       . 4 d = + . D 9 k   * *               0 F           . < j s 8 ",
"- = $ $ t b ;.= .     * q p = .       @ t * * * *           . l @ 7 a ;.a 7 0 a OXT . .               * G t           % * s ..y ",
"          + 2 b =   & 7 m @     .     $ < l                 + 2 G G e = 1 ; 8 T Z 0.3 l               1 0.= + .           1 4 * ",
"            . k n d Q 2 *     : k < 3 0 j :               + k 3 Y                 @ m & .           . T j 7 9 :           & 2   ",
"              . - ..i 3 r O & 7 k r r q 8 4 : l         * k r .                     D r O           1 g @ $ $ k @         e 0   ",
"                @ 4 + + & 4 a ;           & g : .   l @ 4 2 +                       % < $           < 8       6 e         0 7   ",
"                : 3     u 5 Z $             r 7 ; . r c.0.5                         X 0 $           w 5       1 b +     O } T   "
};
