/* XPM */
static char *_843f52f56fa4e84a4e8a2265f0dc26dyYcpVXjZEG7dNLUY[] = {
/* columns rows colors chars-per-pixel */
"64 64 226 2 ",
"   c white",
".  c #FFFFFE",
"X  c #FEFEFE",
"o  c #DB2647",
"O  c #E1F1F3",
"+  c #F4FAFB",
"@  c #F8FCFC",
"#  c #DB2748",
"$  c #FCFEFD",
"%  c #FAFDFD",
"&  c #FEFFFE",
"*  c #D92847",
"=  c #F2F9FA",
"-  c #DDEFF3",
";  c #EBF5F6",
":  c #F0F8F9",
">  c #D3EAEF",
",  c #FCFDFD",
"<  c #E8F4F5",
"1  c #E9F5F7",
"2  c #D8ECF1",
"3  c #F6FBFB",
"4  c #DFF0F2",
"5  c #CEE8EE",
"6  c #D72948",
"7  c #DBEEF1",
"8  c #C6E4EC",
"9  c #F6FAFB",
"0  c #D82746",
"q  c #FFFEFD",
"w  c #D0E9EF",
"e  c #D5ECF0",
"r  c #C6E42D",
"t  c #CBE7ED",
"y  c #F14848",
"u  c #C4E3EC",
"i  c #D72C49",
"p  c #E12F46",
"a  c #E6F3F4",
"s  c #C5E62C",
"d  c #BBE0E9",
"f  c #EEF7F8",
"g  c #ADD9E6",
"h  c #D42945",
"j  c #EDF6F7",
"k  c #120406",
"l  c #C4E526",
"z  c #B7DDE8",
"x  c #D3E9ED",
"c  c #E4F2F3",
"v  c #BFE2EB",
"b  c #2F0A10",
"n  c #0C0F09",
"m  c #D32C41",
"M  c #FAFCFD",
"N  c #C9E12C",
"B  c #E33546",
"V  c #E4F3F6",
"C  c #B3DBE6",
"Z  c #430D15",
"A  c #180E0F",
"S  c #C2E22B",
"D  c #EE4348",
"F  c #CE9B37",
"G  c #CD7A39",
"H  c #EAEBEB",
"J  c #681623",
"K  c #A5D5E3",
"L  c #731929",
"P  c #AE253F",
"I  c #CB2B48",
"U  c #C8E5ED",
"Y  c #57131D",
"T  c #E3F2F5",
"R  c #CAD235",
"E  c #BA2944",
"W  c #C82945",
"Q  c #454F1E",
"!  c #C8E32C",
"~  c #E73A46",
"^  c #F2F3F3",
"/  c #17180F",
"(  c #CBE738",
")  c #8D2538",
"_  c #2D3418",
"`  c #A22B3C",
"'  c #2C2F2E",
"]  c #702032",
"[  c #E43646",
"{  c #21060A",
"}  c #D92F4E",
"|  c #252523",
" . c #DA2A49",
".. c #9CD1E2",
"X. c #D0C13A",
"o. c #922134",
"O. c #DC2D44",
"+. c #611D2B",
"@. c #91A939",
"#. c #4B1923",
"$. c #3B1118",
"%. c #C02843",
"&. c #9A243A",
"*. c #C2D836",
"=. c #A4BD39",
"-. c #93CEE1",
";. c #728038",
":. c #65722D",
">. c #899B34",
",. c #891E30",
"<. c #999C9B",
"1. c #7B2431",
"2. c #1D1D1D",
"3. c #403C3B",
"4. c #3D4445",
"5. c #8F9494",
"6. c #C73141",
"7. c #BD3044",
"8. c #4B4C4B",
"9. c #DDEF63",
"0. c #5A6628",
"q. c #BCDEE6",
"w. c #BFC3C2",
"e. c #D28538",
"r. c #888C8C",
"t. c #7A7C79",
"y. c #E2E4E4",
"u. c #F7F9F9",
"i. c #872C35",
"p. c #666C6C",
"a. c #CD4E3C",
"s. c #CE3D3E",
"d. c #D55140",
"f. c #495722",
"g. c #3A431D",
"h. c #A1B5B7",
"j. c #C8C8C9",
"k. c #C6DBDF",
"l. c #DFE0E0",
"z. c #A19FA0",
"x. c #D8D9D8",
"c. c #CCCC33",
"v. c #CAC035",
"b. c #C2DC2D",
"n. c #202410",
"m. c #7A7E56",
"M. c #272C13",
"N. c #667B2F",
"B. c #D09338",
"V. c #695256",
"C. c #B7BCBB",
"Z. c #B4B4B5",
"A. c #D43444",
"S. c #D7334F",
"D. c #CF4342",
"F. c #A6A9A9",
"G. c #9C9230",
"H. c #99712F",
"J. c #C1CDCE",
"K. c #C6E331",
"L. c #B5BD73",
"P. c #271A16",
"I. c #D6EC52",
"U. c #C0C870",
"Y. c #D0573A",
"T. c #648533",
"R. c #B2CC3D",
"E. c #7A8487",
"W. c #D32C4B",
"Q. c #D14643",
"!. c #D2A438",
"~. c #D94145",
"^. c #676A44",
"/. c #E5F376",
"(. c #54575A",
"). c #6A6F55",
"_. c #CBE14A",
"`. c #DAE57C",
"'. c #778E2B",
"]. c #555F2B",
"[. c #AE323C",
"{. c #B99A32",
"}. c #AABCBE",
"|. c #D3E1E2",
" X c #D9723C",
".X c #68222C",
"XX c #BC763B",
"oX c #4C5343",
"OX c #CE9837",
"+X c #63615A",
"@X c #CBAE31",
"#X c #C5D850",
"$X c #84902B",
"%X c #ACC72F",
"&X c #495C62",
"*X c #A0CF34",
"=X c #A3AB64",
"-X c #CEB840",
";X c #542E28",
":X c #8AA6AC",
">X c #CED4D4",
",X c #E55F3A",
"<X c #AE463B",
"1X c #D2C532",
"2X c #D46842",
"3X c #753435",
"4X c #D4E275",
"5X c #BF693C",
"6X c #8D915D",
"7X c #C5D170",
"8X c #5F4226",
"9X c #A09A4C",
"0X c #CCDA77",
"qX c #564B22",
"wX c #A7C448",
"eX c #7CC3DB",
"rX c #647C82",
"tX c #8F7F82",
"yX c #3D2B2B",
"uX c #84797A",
"iX c #8D3A48",
"pX c #B0A62D",
"aX c #EAF680",
"sX c #8D5F66",
"dX c #AEB23F",
"fX c #7D4627",
/* pixels */
"= X           $ 7 O       . 7 +               3 d 7 a % t 3                       . a e .         X 8 :       $ u T 2 C K -...U ",
"5 7 + .   , - u C 2 .       4 :               $ u 7 a j 2 M                     . f u 9     .     $ z f       . z -.t V = 3 1 2 ",
"% j 5 2 $ < w < 3 2 w f % . O +               & v T @ 4 8 3             . . $ : > K K 1 T e 5 4 j 4 ..<       & g t .           ",
"    = g d :       % 8 U 2 e t %               % u +   X c 4 3         , j 7 U g ..4 = 2 5 7 8 C g z g 7       + g =             ",
"      O g @         + 7 3 O u &               + 5 ,     & + a < : + j 4 4 : : g t $   . .     X @ f u d $     < d &             ",
"      = t $         , 2 % 9 w &               = c         . $ O > f = @ &     v a                   % d 1     T t               ",
"      = 2 &       . ; 2 $ % > %               % ; ,         X 4 =           % u +                     7 w     1 7               ",
"      X 7 @     . = 2 @     2 4 .             . c c .       3 w $           @ U %                     : u $   + 4               ",
"      $ d U = % : 8 f       @ U a .             + w ,       f t             @ x $                     % d = . @ 2 X             ",
"    . 7 d 8 7 c K e .         + t - $ .         $ 2 X       : -             3 > $                     $ z j   X t f             ",
"  . ; > M     % 5 a             = C v < 9 % M H |.k.H u.    M c $         . < 2                     % 4 ..e + X u v %           ",
"+ a x @         + 2 M             = v g e V |.(.' ' ' z.    . a j     , f c u >             $ j 2 t v z -.K z x v C U a : 3 @ @ ",
"8 u > .         & ; 7 4 j % &       O C F.<.<.).^.^.^.t.F.H j t t @ 3 4 a + % k.<.<.<.<.x.  O t - 1 = % 8 - 3 @ % $ + : f = j 7 ",
"$ % 4 : .         X : > u t ; &     < }.' / g.0X/./.aX6X' w.7 : : j c f     u.h.| / / / 5.x 4 %       $ - @ .               & % ",
"  . < 8 @               . + x =     5.oXL.U.7X_.( ( ( #XL.oX5.      X       E.oXL.U.U.U.).(.^         , j X                     ",
"  . . 2 a .               $ d - .   p._ `./.I.K.S l S I.`.M.p.          H F.m.;.9.9.9.9.9X^.z.x.      @ ;                       ",
"    . j 7 .             & O t > 4 3 p._ 4XI.b.*.b.l S I.4X_ p.^ ^ u.  M C.| =X/.K.S S N I.7X_ r.u.X   @ O .                     ",
"    . = 2 X             9 7 % M a 7 p.M.#X( %XQ '.s r s _.U.6X4.4.r.M E.+XL.#X( l l r K.( _.L.m.+XH   3 8 4 M                   ",
"    X 4 q.3             ; f       X F.).>.%XR.].:.@.b.l r 9.9XZ Z V.Z.).;.9.( S S =.>.>.>.@.9.:.2.l.  + 5 e 5 %                 ",
"& = w 5 7 > @ .         a 3           x.| ;._.`.m.M.=.S l ! F 7.I i.P.=X9.K.r S *.0.n n n _ R.:.| l.  , c @ 2 7 &               ",
"4 7 1 $ & 1 t a .     + U 3 = T :     x.2.n.g.Q m.=XQ '.s ( G.$.Z 8X>.*.( l s =.Q ;.@.@.g.n.R.:.| y.  & a + % x j             @ ",
"; ,         1 ..- .   4 q.k.h.h.:Xh.C.z.#.Z b k ;.0X].:.@.@.;.g.n Q K.s l S =.;.n 0.@.@.:.Q >.f.| l.    ; f   : > ,       @ - U ",
"          . O z u O ; q.-.h.2.P.A A A $.E I P { 0.wX`.m.n n ].R._ Q *.S S *.f.n n n n n ;.=.n.k | l.  X f j     < c + 3 f 7 - 9 ",
"          1 d + @ f >Xp.&XV.) ,.,.,.,.&.h # W o.;Xg.f._ n N.N.f.N.:.Q Q Q f.:.T.T.T.0.n M.qX1.,.i.+Xp.t.y.j .   X = c d 5 3 .   ",
"        % > 1       C.n k Y A.p p  .# # # o i d.fXM.k / g.>.;._ T.N._ M.n.n '.*X*X*X@.g.P.Y 6.p 6.Z k 2.>X+ .       . 4 f       ",
"        j ;         Z.A #.` y y D * h m m m a.X.*.=.n.].wX_ Q @._ Q R.=.T./ >.S S S S R XX6.D y ~.i.#.2.J.O X       & < + .     ",
"      X c %         Z.n +.P B [ [ ~  XB.OXB.!.b.r b.>.N.f.n ;X5Xi.3X0.f.0.'.%Xl s l l N e.~ [ [ A.&.#./ }.- j X     X 7 +       ",
"      % c $         Z.A #.) h 0 p D !.r r s N c.X.v.X.H.b b L h i &.Z b 8X-XX.1X1Xb.l ! e.D  .o W 1.$.2.J.  O 7 @ . , t +       ",
"      3 - $         Z.n k Y I 6 i m F s l r c. Xd.s.s.6.%.%.W # * h 7.7.6.s.d.,X,X@X! ! G O.6  .E $./ 4.k.  , a - ; j 2 X       ",
"      a > &         l.5.' { +.J ,.m F r l @X X~.[ ~ ~ ~ ~ # 0 o * p ~ ~ ~ ~ [ [ [ F s ! G %.L J Y A t.C.7   . . % = e -         ",
"@ @ = t w a f 3 & .   = 8.k { k Z ` {.r N G h 0 [ y y y D p O.O.O.B D D D D p 0 m F s N XX&.b k k k 5.1 V           : c     & % ",
"2 U d : % = 4 v e 7 - x 8.{ ] 1.+.b $Xs N G m i i O.O.O.O.D D D y ~ O.O.O.O. .6 m F ! K.0.b .X1..Xk r.4 f       $ : < 2 3 ; 2 w ",
"@ U O . .   X O u ..e u.8.b ` P ) #.G.s K.H.L L L ,.W * 6 6.~.y s.6.# 6 E L L L L G.s r :.Y ` P &.{ r.+       . t t f O u v 7 = ",
"K u $         X f e e ^ 8.Z I 6 W ) {.! K.0.k k k b ` %.E o.[.y ` &.%.%.) { k k k $Xr N H.&.h 6 E b r.+ 3 $ & V K :   . = t C z ",
"-.t               . f q.8.Z I * 0 W F r K.H..X] ] .X$.b $.] [.y ` +.b b Z ] ] ] .XG.r ! G W 6 * E b rXv U w 5 C 8         . @ f ",
"t 8 .                 q.4.Z I 6 6 m 2X!.b.pXH.[.P &.#.$.$.#..Xi.+.#.$.$.+.` P P ` {.r N G 0 6 6 E b r.& % + < u 4               ",
"a d %                 4 4.Z I # # * h a.R ! X.D.W.I &.) 1.b k { k $.) ) P W.* * m F ! N G h 6  .E b <.    .   < j               ",
"@ z j               q a 4.Z I * * 6 o a.R l v.D.} } I W E 1.i.<X1.) W W W 0 * * m F ! N G h *  .E b <.        1 :               ",
"  7 a                 c E.V.) %.* * 0 a.R l v.Q.i } i 6 h P 6.y 7.E 6 # # # 0 # m F ! N G h # P iXuXj.      & w a               ",
"  : t @               < - w.A o. .# 0 a.R r X.Q.i i 6 * * 6 B y O.0 * * # # # # m OXK.N G h  .L 3.H         % C <               ",
"  + q.w M             j = w.A o. .# 6 a.c.K.X.Q.i 6 6 6 * * [ y p # * * * # # # m OXr N G h 6 J 3.H         V d ,               ",
"  f 2 2 t + X       . 4 3 w.A o. .* 6 d.R K.X.D.* * * * * * [ y p # # # # # # # m OXr N G h } L 8.^         > e                 ",
"  + - % > 8 w < + + 5 t   w.A o. .* } d.R r X.s.6 * # * * 0 [ y p # # # # # # # m OXK.N G h S.L 8.^         u V                 ",
"  , 4 % . % = j 4 > z > @ w.A o.6 * i d.R S v.s.0 * # * 0 0 [ y p # # # # o # # h OXK.! G i S.] 4.k.: .   X d f                 ",
"  & 4 =         $ $ $ f 7 C.A o.W.i 0 Q.!.c.c.5X~.0 # * * 0 [ y p # # # # # # A.Y.@X*.-X2X} S.J 3.k.d 7 . 3 g :                 ",
"  . a : .               3 h.A o.S.} W.h A.OXN *.e.0 * * * 0 [ y p o # # # # o d.c.N v.a.A.} W.J 3.H : g z d K 5 X               ",
"  . 4 : .               & }./ ) S.} i 6 h B.l ! e.h # # * 0 B y p o # # # # 0 Y.R r v.~.} i i J 4.^   - -.O 3 5 e M .           ",
"= 7 d M                   w.2.] E W.6 6 m B.r N e.0 # # # o B y p o # # # # o Y.R r X.D. .I P Y 8.^   & e 4 . X a - j $     . & ",
"t w u                     j.2.A Y 7.W.W.m B.r N e.0 # # # o B y p o # # # # 0 Y.R s -Xs.6 7.;XP.(.^   . 3 e $     3 O 2 T 1 V > ",
"% 3 e X                 & H z.5.tX+.Y Y Y G.( ! e.0 # # # o B y p o # # # # 0 Y.R $XqXY Y sXj.j.x.,     % > %       & ; d K e O ",
". % > =                     3 V x.3.' ' ' ;.=.=.XX0 # # # o B y p o # # # o %.<XdXm.(.&X&X:X=           < > 3 M       . = 8 $   ",
"  & : 4 + . .           . & 7 g u.H H H H t./ / 1.i i i i 0 B y p 0 6 6 6 W..XP.3.J.M g 8 T 8 O % X X = C t 7 4 O 1 $ & 3 5 $   ",
"    . < g v 4 : 3 3 + : j 7 e > a     X   w.r.E.V.J J J L %.[ y p P J J J 3Xz.C.j.^ & C 1   = 7 - 4 e C d 9 % % f 5 t + - e &   ",
"      . O ..C w 7 - < j f : X % O M         @ - 5.| | | yX` 7.D.7.i.| ' 3.r.y.        v 1 X $ X M + 3 O >         X - z g +     ",
"        & - 3 & & & .         . < j       $ O 8 |.l.l.y.x.3.{ { { V.J.y.H , X     & $ v 2 < j O 5 v u d C X           7 w       ",
"        $ > +                   < g 1 & : c 4 V %       u.z.t.t.t.F.5 $           & 4 z a % X % + j 7 8 ..a           < 4       ",
"  X 3 % + g <               % O U 8 t x 7 @                         > f         & O 2 3 .               t 8           @ 2 3     ",
"- 5 v U C z >           . 3 7 4 @   X a c                         . > d = X   $ 2 e ,                   > 5           . 4 C e O ",
"< = @ @ V 8 K = .     X j 4 : .       3 c                   . & 3 w g K g w > g eX5 . .               X U c           & X e -.U ",
"          $ 2 u :   j x 7 9     .     @ 4 &                 $ 2 U U 4 = + f O w v z c &               = z = $ .           = > X ",
"            . a u v ..2 X     = a O O > C =               $ < O M                 3 7 ; .           . w z w 7 =           j 2   ",
"              . < -.U c ; % ; x < 1 1 j O x = &         X < < .                     , < %           = t 3 @ @ < 9         4 >   ",
"                3 > $ $ ; > g f           ; t = .   & 3 e 2 $                       & O @           4 O       ; 4         w w   ",
"                = c     q f v M             ; x : . < 5 q.f                         , > @           2 f       = 8 $     % K w   "
};
