/* XPM */
static char *_e5103a1c66b4b45877b0ec65d55ee14yxfoWjTGY8032gt3[] = {
/* columns rows colors chars-per-pixel */
"64 64 176 2 ",
"   c white",
".  c #292E31",
"X  c #FFFFFE",
"o  c #FEFEFE",
"O  c #F9FDFC",
"+  c #F6FBFB",
"@  c #F8FBFB",
"#  c #E1F1F4",
"$  c #FCFFFD",
"%  c #FEFFFE",
"&  c #DCEEF2",
"*  c #E7F3F5",
"=  c #DAEDF1",
"-  c #E4F2F4",
";  c #F1F9F9",
":  c #202325",
">  c #EBF5F6",
",  c #DFF0F2",
"<  c #EEF8F8",
"1  c #9A4A22",
"2  c #E9F5F7",
"3  c #332C27",
"4  c #EDF6F7",
"5  c #CDE7EE",
"6  c #D5EAEF",
"7  c #FBFDFD",
"8  c #BF5D2D",
"9  c #D7ECF1",
"0  c #F4FAFA",
"q  c #D0E8EE",
"w  c #FFFEFE",
"e  c #D2EAEF",
"r  c #F4FAFB",
"t  c #292F31",
"y  c #CE6837",
"u  c #FD9451",
"i  c #C4E3EC",
"p  c #437F80",
"a  c #FD8245",
"s  c #AA4F25",
"d  c #BA5B2F",
"f  c #D46E3D",
"g  c #5FBCC1",
"h  c #C6E4EC",
"j  c #A44B20",
"k  c #D67343",
"l  c #BEE0E9",
"z  c #CB6535",
"x  c #BADFE9",
"c  c #CBE6ED",
"v  c #B7DDE8",
"b  c #3C9090",
"n  c #DC713D",
"m  c #A1491F",
"M  c #B2B3B2",
"N  c #ADD9E6",
"B  c #C1E2EB",
"V  c #E1DDDC",
"C  c #9F4C27",
"Z  c #E17541",
"A  c #399393",
"S  c #C3673E",
"D  c #E3A063",
"F  c #292F32",
"G  c #4F1F0B",
"H  c #94CFE1",
"J  c #AD5730",
"K  c #65AFB5",
"L  c #B3DCE7",
"P  c #9B471F",
"I  c #772D08",
"U  c #6D959D",
"Y  c #2F4044",
"T  c #5DD0D3",
"R  c #A4522C",
"E  c #B36944",
"W  c #A6D6E4",
"Q  c #FA8144",
"!  c #6D9298",
"~  c #67A5AD",
"^  c #5DC1C6",
"/  c #465B5F",
"(  c #7F340F",
")  c #8D3D16",
"_  c #F2F7F7",
"`  c #DEDCDC",
"'  c #5EC9CC",
"]  c #99441B",
"[  c #C8E5EB",
"{  c #B15325",
"}  c #9FD3E3",
"|  c #63B7BD",
" . c #59D6D9",
".. c #BD643C",
"X. c #8B4320",
"o. c #EBA362",
"O. c #4BA0A2",
"+. c #AF623E",
"@. c #A1A9A8",
"#. c #699EA4",
"$. c #666361",
"%. c #EBE6E3",
"&. c #20282A",
"*. c #6B989F",
"=. c #30575A",
"-. c #3F7D7E",
";. c #58DEE0",
":. c #C17350",
">. c #589294",
",. c #B85829",
"<. c #B57C62",
"1. c #9C5838",
"2. c #6CB2BB",
"3. c #94A6A9",
"4. c #3F696B",
"5. c #CE754C",
"6. c #B7C4C8",
"7. c #5B5F5B",
"8. c #D5D7D6",
"9. c #5F6B6C",
"0. c #4EB1B3",
"q. c #304A4E",
"w. c #4C1E09",
"e. c #716A5D",
"r. c #B07156",
"t. c #ADB0AF",
"y. c #262B2E",
"u. c #C9D2D2",
"i. c #6F878A",
"p. c #568687",
"a. c #345054",
"s. c #354646",
"d. c #855D45",
"f. c #B99369",
"g. c #F1EFEE",
"h. c #C6CAC9",
"j. c #839494",
"k. c #836A5C",
"l. c #3C787B",
"z. c #8D4E2E",
"x. c #CA8049",
"c. c #71503E",
"v. c #FD8647",
"b. c #1B1D21",
"n. c #E0E1DF",
"m. c #273235",
"M. c #58787B",
"N. c #C8B7B0",
"B. c #6A3519",
"V. c #6B8D7F",
"C. c #55301C",
"Z. c #D2BEB5",
"A. c #C47C54",
"S. c #DD7C43",
"D. c #FA9250",
"F. c #A95C2F",
"G. c #CA8652",
"H. c #CF9760",
"J. c #368987",
"K. c #737A77",
"L. c #909E9E",
"P. c #5B8085",
"I. c #AF9688",
"U. c #402C21",
"Y. c #F68C4D",
"T. c #491A06",
"R. c #5F7C85",
"E. c #7B4021",
"W. c #F37D41",
"Q. c #FC9F5A",
"!. c #7CC3DB",
"~. c #C9A594",
"^. c #A8806E",
"/. c #F89F5C",
"(. c #F29956",
"). c #FCAC63",
/* pixels */
"; o           $ & #       X = r               + x = * 7 c +                       X * 6 X         o h ;       o B - = L } H } c ",
"5 & 0 X   7 & i L 9 X       , ;               $ i = * 4 = O                     X < i 0     X     $ v <       X L H c * ; + 2 9 ",
"O 4 q = $ 2 q * @ 9 q < O X # 0               $ l - O , [ +             X X o ; e W W 2 - 6 q , 4 , H *       % N c X           ",
"    ; N x _       O h [ 9 6 5 7               7 i r   o - , +         7 4 = [ N } , ; 9 q & h L N v N &       r N ;             ",
"      # N O         0 = @ # i %               r 5 7     % 0 * > < 0 4 , , < < W c o   X X     o O < i x o     2 x %             ",
"      ; 5 o         7 9 O r e %               ; -         X o # e < 0 @ $     B *                   O x 2     - c               ",
"      ; 9 %       X > 9 o 7 6 7               7 > 7           - +           7 B r                     & q     2 &               ",
"      o & O     X ; = O     9 , X             X * 2 _ N.t.M t.3.N.Z.Z.Z.%.  O [ 7                     ; i o   0 ,               ",
"      $ x [ ; 7 < h 4       @ c * X           @ u.i.j.b J.J.J.s.R E z.R <.%.O e $                     O x ; X O 9 o             ",
"    X & l h & - W 9 X         0 c & o X   @ ` j.p.0.0. .g K V.:.D.D C f C r.n.6 o                     $ v 4   o c 4             ",
"  X > e O     O 5 *             ; L l 2 h.L.p ^ g ~ #.g | e...v.).S.P n s d <.8.                    O , H 9 r o i B 7           ",
"0 * e @         0 9 O             0 B 3.b O.g ^ g *.R.=.a.E.W.(.x.k P n s z J k.n.          $ 4 = 5 B v H W v e l L c * ; + O O ",
"h i 6 X         % > = , 4 O %       6.b  .g U U O.4.&.: : X.Q o.F.k P n s z J 7.! n.% o % $ , c & 2 ; 7 h & + O 7 $ r < _ ; 4 & ",
"7 7 , ; X         o < 6 i c > %   h.>.K ~ ^ >.a.&.&.y.. C.f v.o.F.Z m n s z J B.>.>.u.* - , # 7       o & @ X               % 7 ",
"  X 2 h @               X 0 e + h.>.0.*.U p.Y b.y.. . . B.Z u H.R Z m n s z d I K.0.! %.O @           7 4 o                     ",
"  X X = * X               o x 6 L.O.T ~ M.m.&.t t . . U.J Q Q.G.m Z m f C y d s d.' b 6.w             O >                       ",
"    X 4 & X             % # 5 6.-.g ~ >.m.&.. . . . . U.8 v.Q.G.m Z m f C y d ,.1.! g M.g.            O # X                     ",
"    X ; 9 o             0 & _ j.O.~ U a.b.F . . . . . C.z v./.G.m Z m f C y 8 ,.1.i.~ O.@.            + h , 7                   ",
"    o , v +             > ; ` p.^ K P.&.y.. . . . . 3 X.W.D.D S j Z m n s y d d ..e.| 0.i.g.          0 5 6 q O                 ",
"% ; q q = 6 @ X         * O j.0.| g =.: . . . . . t 3 1 a u D S j k P n s y d 8 z e.^ | A M           7 - O 9 & %               ",
", & 2 $ % 2 c * X     0 c O i.0.#.i.&.y.. . . . . t 3 1 a u D S j k P n s y d 8 y C.9.K A M           % * 0 7 e 4             O ",
"> 7         2 } , X   , x l p.0.#.M.&.y.. . . . . . 3 1 Q S.A.R P k P f C y d 8 y G / ~ O.3.@           > 4   ; 6 7       O & c ",
"          X # v i , > x H 3.A  .' =.: t . . . . . . 3 1 y ,.d { ) s ) f 1 y J d S G l.'  .p V           < 4     * - 0 + 4 = , r ",
"          2 l 0 @ > ; < = 3.A ' K q.: t . . . . . . 3 1 { f k 5.y z m m ) d C 8 S G 4.2.T p `           ; > X   o 0 - l q @ X   ",
"        7 6 2           ; 3.b K ! Y : t . . . . . . 3 1 z d R r.:.:.5.k 8 s ] j R w./ U g p V           @ _ X       X , <       ",
"        4 >             % @.b | #.Y : t . . . . . . 3 1 Q 8 ( ) X.1.r.r.A.k f 8 { I 9.#.^ p `         X > , o       % * 0 X     ",
"      o - 7               @.A ;.T =.: t . . . . . . 3 1 a Y.G.X.I ( ( X.+.+.<.5.5.J V.T ;.p 8.< > 4 ; 0 q = 4 o     o & 0       ",
"      7 - o               @.b | #.s.: t . . . . . . 3 1 a u D ..j 8 ( ) I ( C R <.1.e.#.^ p ` % O @ 4 [ 9 o # = @ X 7 c r       ",
"      + & o               t.b K ! Y : t . . . . . . 3 1 a u D ..j k P y ) m ( I ) B.7.U g p V         * ,   7 * , > 4 9 o       ",
"      * e %               t.A ^ K q.: t . . . . . . 3 1 a u o...m k P f C z R s ] T.4.K ' p V         ; >   X X 7 ; 9 ,         ",
"@ @ ; c q * < + % X X + 2 @.A  .' =.: F . . . . . . 3 1 a u D 1.1 k P n j z J 8 ..G l.'  .p V         - *           ; -     % 7 ",
"9 [ x _ O ; , B 6 = & & < t.b K U Y : t . . . . . . 3 1 a u f.e.d.k P n s z J 8 S w./ *.g p V       o & <       o ; * 9 + > = e ",
"@ [ # X X   o # i } 9 o   M b K ! Y : t . . . . . . 3 1 a u f.K.k.k P n s z J 8 y G / U g p V     X > _       X 5 5 < , i B & ; ",
"} B o         o < 9 6 0   M A  .^ a.: t . . . . . . 3 1 a u H.e.d.k m n s z d 8 y G l.'  .p V   o & & ; + o % - W <   X ; c L v ",
"H 5               X < h $ M A ' | q.: t . . . . . . 3 1 a u D c.X.Z j n s y d 8 y G 4.| T p ` + c H L x c q q L h         X @ 4 ",
"5 h X               X h 4 M b K ! Y : t . . . . . . 3 1 a u o.c.X.Z j f C y d 8 y G / U g -.u.= } H - 7 7 0 * i ,               ",
"* x 7                 * < M b | *.Y : t . . . . . . 3 1 a u o.c.X.Z j f C z d 8 S G / #.^ p `   * v o     X   * 4               ",
"O x 4                 2 c t.A ;.T =.: t . . . . . . 3 1 a u D c.X.Z j n s z J 8 y G -. .;.p V   9 9           2 <               ",
"  = *                 * N @.A g ~ s.: t . . . . . . 3 1 a u H.$.z.Z j n s z J 8 f G 4.~ ^ p V O q +         % e *               ",
"  ; c O               * # M b K ! Y : t . . . . . . 3 1 a u f.K.k.k P n s z d 8 f G / U g p V 2 -           O L 2               ",
"  0 x q O             4 ; M A ^ ~ q.: F . . . . . . 3 1 a u f.K.d.k P n s y 8 8 y G 4.K ' -.8.= +           * l 7               ",
"  < 9 9 c r o       X , + M A ;.T =.: F . . . . . . 3 1 a u D d.1 k P k C y d 8 S G -.T ;.l.2.l o           e 9                 ",
"  0 , O e h q * 0 0 5 5   M b K U Y : t . . . . . . 3 1 a u D S j Z m f C z J 8 ..G / *.g -.u.B ,           i *                 ",
"  7 , 7 X 7 ; 4 , 6 v e O M b K ! Y : F . . . . . . 3 1 a u o.S j Z j f C z R s { ( 7.! g p V r i e < X   o x 4                 ",
"  % , ;         $ $ o < & t.A T g a.: F . . . . . . 3 1 a u o...m Z m y ) s { { f ..E.#. .p `   @ = x & X + N <                 ",
"  X * < X               + 3.A T | a.: t . . . . . . 3 1 a u o...P 8 ) { 8 z 5.5.<.E z.*.T p `       < N v l } 5 o               ",
"  X , ; X                 @.b K ! Y : t . . . . . . 3 1 Q S.x.C ] d f 5.:.:.<.F.1.( $.! g p V         & H # + q 6 O X           ",
"; = l 7                   M b K *.Y : F . . . . . . 3 1 f ,.{ S k A.:.:.E 1 X.I I T./ *.g p V         % 6 , X o * & 4 o     X % ",
"c e i                     M A ;.T =.: t . . . . . . 3 1 { f k <.E E z.) ( I I j { w.-.T ;.p `         X + 9 o     @ # 9 - 2 * e ",
"7 + 6 o                   M b g ~ s.: t . . . . . . 3 1 8 8 J 1.( I I ) ( 8 R 8 f G 4.~ ' p `           7 e 7       % > x W 6 # ",
"X O 6 ;                   t.b K U Y : F F F F F F F 3 1 Q ,.I I ( j ) n s y d 8 y G / *.g -.8.          * e + 7       X ; h $   ",
"  % _ , r X X           w 6.b >.R.m.b.: : : : : : : : P a Y.x.R P Z m n s y d 8 S w.q.P.O.p.6.- 7 o o ; N c = , # 2 $ % + 5 $   ",
"    X 2 N l , ; + + 0 ; 4 6 3.9.9.$.$.$.$.$.$.7./ / 7.R a u o.S j Z j f C y d d E k.9.7.9.h.; & , , 6 L x 0 7 O < 5 c 0 , 9 %   ",
"      X # H L e = , * 4 < < 7 0 , @ o o o o _ 6 x l 8.+.Q u D S j Z j f C z J R N.@ 7 l * o o o O r + # e         o , v N r     ",
"        % & + % % % X           > 4       $ # h 9 O %.E Q u D S j Z m f C ,.f.8.@   $ B 9 > 4 , 5 B i x L o           = q       ",
"        o e 0                   * N 2 % < - , - O   %.E Q u D ..j k P y r.I.g.    % , v * 7 o 7 r 4 & h } *           * ,       ",
"  o + 7 r N *               7 , c h 5 e & @         %.E Q u D +.m k 1 r.V       % # 9 + X               5 h           O = +     ",
"& 5 B [ L v 6           X + = , @   o * -           %.E Q u D +.] :.@.6.; %   o = 6 7                   e 5           X , L 9 # ",
"2 ; O @ - h W ; X     o 4 , ; X       @ -           %.E Q D.D +.^.M N W N q e N !.q X X               o [ -           % o 6 H h ",
"          7 = i ;   4 q & 0     X     O , %         @ ~.+.+.E I.l 5 , ; 0 < # q B v - %               ; v ; $ X           ; 6 o ",
"            X * i l } = o     ; * # # e L ;           _ V V u.6 7                 + & > X           X q L q = 0           4 =   ",
"              X * H c - > 7 > q * 2 2 4 # 6 ; %           > 4 X                     7 * 7           0 c + @ @ * +         , e   ",
"                + e $ o > 6 N <           > c ; X   % + 6 = o                       % , @           , #       > ,         e q   ",
"                ; -     w < B O             > q < X > q v <                         7 e @           9 <       ; h o     O W q   "
};
