/* XPM */
static char *db4de469dc8549ba9492e2c5b9f40a50[] = {
/* columns rows colors chars-per-pixel */
"64 64 202 2 ",
"   c white",
".  c #FFFFFE",
"X  c #FEFEFE",
"o  c #F8FBFB",
"O  c #E0F1F5",
"+  c #FEFFFE",
"@  c #F9FCFC",
"#  c #F3FAFA",
"$  c #EBF6F6",
"%  c #FDFEFE",
"&  c #E7F4F6",
"*  c #F0F8F8",
"=  c #FBFDFD",
"-  c #E9F5F7",
";  c #F6FBFB",
":  c #F2FAF9",
">  c #D4EAEF",
",  c #E3F1F4",
"<  c #CBE7ED",
"1  c gray99",
"2  c #E5F3F4",
"3  c #F5FBFB",
"4  c #D5EBF0",
"5  c #D2EAF0",
"6  c #FAFDFD",
"7  c #CDE8EE",
"8  c #D9ECF0",
"9  c #DAEDF1",
"0  c #C6E4EC",
"q  c #DBEFF2",
"w  c #FDFDFD",
"e  c #EDF7F9",
"r  c #BADFE9",
"t  c #B7DDE7",
"y  c #C4E3EB",
"u  c #EE0000",
"i  c #BDE1EA",
"p  c #EEF7F7",
"a  c #F4F4F4",
"s  c #DEF0F3",
"d  c #D7ECF1",
"f  c #E2E2E2",
"g  c #E1F0F2",
"h  c #C1E2EB",
"j  c #E8F4F5",
"k  c #E7E7E7",
"l  c #F6F6F6",
"z  c #B70303",
"x  c #D0D4D4",
"c  c #643332",
"v  c #A90001",
"b  c #D0E9EF",
"n  c #F3F8F9",
"m  c #DEEFF2",
"M  c #A5D5E4",
"N  c #EDF3F4",
"B  c #C9E5ED",
"V  c #5B2E2E",
"C  c #AED9E5",
"Z  c #E9EFF0",
"A  c #FDFFFF",
"S  c #B3DCE7",
"D  c #E40000",
"F  c #8F0202",
"G  c #B8BBBB",
"H  c #D00001",
"J  c #D1E9EE",
"K  c #ACACAB",
"L  c #DBDAD9",
"P  c #93CEE0",
"I  c #F1F6F7",
"U  c #C7C9CA",
"Y  c #773C3C",
"T  c #EB0000",
"R  c #E00000",
"E  c #F8F8F8",
"W  c #9D0000",
"Q  c #F1F1F1",
"!  c #ECEBEB",
"~  c #AEB0B0",
"^  c #9CD1E2",
"/  c #F5FAFA",
"(  c #A5A7A8",
")  c #DDDFDF",
"_  c #DA0000",
"`  c #B1B6B6",
"'  c #4D2728",
"]  c #D3D1D0",
"[  c #BBBEBF",
"{  c #703839",
"}  c #C0C1C1",
"|  c #6B3535",
" . c #9D9E9C",
".. c #D5E1E4",
"X. c #C8C4C4",
"o. c #562221",
"O. c #A0A2A1",
"+. c #462222",
"@. c #C30101",
"#. c #9A9393",
"$. c #DCE6E9",
"%. c #B7C2C5",
"&. c #D2D9DB",
"*. c #DAD7D6",
"=. c #ABD8E5",
"-. c #CA0404",
";. c #654747",
":. c #9F6868",
">. c #8A7C7B",
",. c #D0CCCC",
"<. c #730202",
"1. c #A3ABAD",
"2. c #E5ECED",
"3. c #BA2C2D",
"4. c #B64343",
"5. c #BE1B1B",
"6. c #988687",
"7. c #C3A39A",
"8. c #820001",
"9. c #B4A0A0",
"0. c #8A4B4C",
"q. c #834343",
"w. c #898A8B",
"e. c #665353",
"r. c #865F60",
"t. c #6F1415",
"y. c #847472",
"u. c #EAF1F3",
"i. c #BBB7AF",
"p. c #989A99",
"a. c #8B8573",
"s. c #D7C2A1",
"d. c #C91111",
"f. c #F30000",
"g. c #5D0707",
"h. c #BDAAAA",
"j. c #DFE9EB",
"k. c #9B8B8C",
"l. c #AA898A",
"z. c #705F5F",
"x. c #7F5353",
"c. c #702121",
"v. c #C1B0B0",
"b. c #C6CED0",
"n. c #6F2B2B",
"m. c #B19994",
"M. c #FD0000",
"N. c #4D0C0C",
"B. c #7D3434",
"V. c #F0DAC1",
"C. c #877C64",
"Z. c #BFCACD",
"A. c #9C1B1B",
"S. c #7E7A79",
"D. c #A59A99",
"F. c #C1B699",
"G. c #673D31",
"H. c #A99F82",
"J. c #7E541E",
"K. c #9F7612",
"L. c #CEBDBD",
"P. c #D8C8C9",
"I. c #AE817F",
"U. c #C4908B",
"Y. c #846C6D",
"T. c #8E7374",
"R. c #AABBBF",
"E. c #9E5F60",
"W. c #832122",
"Q. c #870F10",
"!. c #551818",
"~. c #E6D3A9",
"^. c #B8AD90",
"/. c #FDDF8F",
"(. c #CAA60B",
"). c #B2CDD6",
"_. c #A65051",
"`. c #756C6E",
"'. c #C4827F",
"]. c #977676",
"[. c #975758",
"{. c #893434",
"}. c #7D6565",
"|. c #C53939",
" X c #7B4748",
".X c #A40D0E",
"XX c #C37272",
"oX c #FBBEAB",
"OX c #F3E2B6",
"+X c #A39777",
"@X c #A39146",
"#X c #8A6512",
"$X c #E4DDDD",
"%X c #7CC3DB",
"&X c #75848E",
"*X c #50403F",
"=X c #E0A598",
"-X c #FFF1D0",
";X c #913131",
":X c #FFCAB6",
">X c #B18D0E",
",X c #6E6340",
/* pixels */
": X           % q ,       . 9 #               ; r 9 j = B ;                       . 2 4 .         X 0 *       % h , 9 S M P ^ B ",
"7 9 # .   = q y S d .       g *               % y 9 u.p 8 @                     . p y /     .     % r e       . S P < 2 : ; - d ",
"6 $ 7 9 % j J j o 8 J p 6 . , #               + i , @ g 0 ;             . . % * 4 M M - , 4 7 s $ s ^ &       + C B .           ",
"    # C r *       6 0 B 4 4 < =               = y /   % , m ;         = $ 9 B =.^ s : 8 7 9 0 S C t =.q       # =.#             ",
"      , C @         / 9 o O y +               / 7 =     + # j j * / $ m g * * =.< %   . .     X @ e y r %     & r +             ",
"      : < %         = d 6 / J +               : ,         . % , > p n @ +     h 2                   6 r -     , <               ",
"      # d A       . $ 8 % 6 > =               = N =         X s :           = h #                     9 b     - q               ",
"      % q @     . : 8 @     8 s .             . 2 2 .       6 5 A           @ B 6                     * y %   # g               ",
"      % r B # = * 0 p       @ B 2 .             / 5 + + l k x %.k l         @ J %                     6 r : . @ 8 %             ",
"    . m i 0 m , M 4 .         / < m % .         A ..L.'.4.3.5.5.3.4.U.$X    ; > %                     % t e   X < e             ",
"  . $ > @     6 7 2             # S h j / = A Q 7.4.d._ T u u u u T _ 3.7.o & d                     6 s ^ d # % y i =           ",
"/ 2 J o         / 8 @             # i C b O X._.-.R D D T T T T T T u u d.I.r 5 .           % $ 9 < h t P M t J i S B 2 * ; @ @ ",
"0 y > .         + $ 9 g e 6 +       q 0 + P.3.H R R D D T T u u u u u f.f.d.7.< , / = % A % g < q - # 6 0 m ; @ = % # * * : $ 9 ",
"= = m n .         X * 4 y < - +     * s f 4.H _ _ _ R R D D T T u u u u u T 3.)., 2 , , , g O =       % m @ .               + = ",
"  . j 0 @               . / J :     + 8 :.@.H -.@.H -.@.H R R R D D D D D D H l.A   = @ ; @           = $ %                     ",
"  . . 9 2 .               % r m .     L..X@.z v v v v z -.-.H H _ _ _ _ _ _ _ 4.Q                     @ N                       ",
"    . $ m .             + , < > g ; @ :.z v W W W W W v v v v v z z z z z z z A.]                     @ , .                     ",
"    . : d X             / 9 = @ 2 q Z.A.W F F F F F F 8.Q.W.{.0.:.I.l.9.h.h.h.m.~ a                   ; 0 g @                   ",
"    X s t ;             $ p       + 9.F 8.<.8.<.c.0.].9.X.L ! a / @ % % % A +   U x %                 / < 4 b 6                 ",
"+ : b 7 9 > @ .         2 ;     ! x k.c.x.T.r.h.*.Z n E l l a a a a a a a a a a x U 2 =               = 2 @ 8 q +               ",
"m m $ % + - < 2 .     # < ; e $.] a l X.[ ) k Q Q ! ! ! k k k f f ) ) ) ) f k ! *.[ * 2 %             + 2 # = J $             @ ",
"$ =         - ^ m .   g r J 4 x !   l Q ` R.f k f ) x ,.} ` ~ K (  . .O.p.p.O.K K [   2 n               - p   n > =       @ m B ",
"          . , t y g $ r P 4 + L k Q ! k G %.[ `  .p. .a.a.( [ U b.1.F.V. .%.U [ p.Z   p p               p $     j 2 / ; p 9 m / ",
"          - i / @ - n * > 2   ) [ L L U ` R. .s.H.X.L H.F.} U G ~ K V.-Xi.` ` G #.L   j p               n - .   X n , r J o .   ",
"        = 4 -           $ g   1 *.G G G f ` OX/.@X} f +X~.F.^.a.a.s.V.V.V.m.C.a.^.i.1 g /               o * .       . s p       ",
"        $ $             @ $       1 l 1 % X.OX/.+Xx 2.S.C.7.oX~.~.H.s.:XoX=X7.U.y.O.I 8 @ +   +       . - m X       + & # .     ",
"      % , =             = 2 %             *.s./.C.x I ( ( I.'.m.i.} F.s.s.7.D.l.D.p.4 B $ ; n p $ $ : / 7 9 $ X     X q #       ",
"      6 , %             % s #             l i.^.a.$.Z 1.Z *.L Q % + k ] ,.) o a k w.x % % % % = @ o $ 0 8 % g 9 @ . = < #       ",
"      ; q %             . 2 ,               Q  . .u.N ` %.u.I I I I $ Z &...u.u.[ ` [ f               2 s   = 2 m N $ 8 %       ",
"      2 5 +             . , 7 @ .           ,.z.G u.N 2.~ 1.%.b.b.Z.` ( O.O.~ 1.( Q Q G l             : $   . . = # d m         ",
"o @ n B J 2 p ; + . . ; , g I N * % + .   *.|.A.} Z u.N N &.G ~ ~ ` %.&.Z 2.&.) l     ] x             , 2           * 2     + = ",
"d B r * 6 n g h 4 9 m m - %   % m r 4 m $ XXf.5.U 2.2.f 2.I I $ N N I n / o % A A +   Q [ 1         % 9 p       % * j 8 ; $ 8 J ",
"@ B g . .   X , y ^ 4 %         2 < # $ ..|.M.d.G ..1.O.O.K G m.X.n n n n / o o = % X w } a       . $ p       . < < p g y h q : ",
"M h %         X p 4 4 # .       - 2 .   *.d.M.-.[.}.U l f ( n.v  Xx 2.I n n I n o @ = o [ Q     X m m * ; % + 2 M *   . # < S t ",
"P <               . p 0 ;       g p     h.z R @.W :.o l ! #..XH F W.r.k I I N Z E o o 2.G o = / B P S r B J 7 S 0         . @ e ",
"< 0 .               . 0 2     o , @     ].W H H z v.% a ) Y.@.M.f.@.t.U I I Z j.I n N Z.%.O g 8 M P , = = # j y g               ",
"2 r =                 2 j   = , ;     o 0.<.v R 5.] 1 Q x x._ M.T v n.&.u.N 2.$.Z Z &.1.t : = . & t X     .   & $               ",
"@ r e                 $ y n B b .     ,.n.g.g.@.5.L E Q x x.R M.T W r.$.$.j.$.$.j.&.~ f 7 2   . d d           - *               ",
"  9 2                 & M g B 0 n     6.V c c n.c.} E k ] y.Q.z v t. .&.....$.$.[ ~ k   - b   ; J ;         + J 2               ",
"  * < @               & 9     2 t m   k.V c c c V e.>.>.y.e.Y { | G.@X,Xe.C.>.y.e.L     @ 7 = 2 ,           6 S &               ",
"  # r J @             $ $     . - h e #.V c c c c c | Y Y Y q.q.Y J.(.G.| #XJ.Y r.a     X b & d ;           2 i =               ",
"  p d 8 B # %       . g *       . ; & #.+.o.V V c c | { Y Y Y Y { J.(.G.c #XJ.{ >.%     + i P i X           5 d                 ",
"  / m 6 5 0 b j / # 7 < =         E f ( }.G.o.N.N.N.!.!.!.o.o.o.o.c (.>XK.K.o.o.9.      $ J 2 h g           y 2                 ",
"  = m 6 . = # $ g > t > n .       ] x.;.#.X.X.v.l.:.0.B.c.c.t.t.c.~ H.K.K.C.n.{ K   X * , @   n y 5 * .   % r e                 ",
"  + g n         % % % p 8 /       9.| V V e.w.#.v.,.) ) ) *.] ,.] @ 9.F Q.i.U G 1.g < B @ .     @ 9 r q . ; =.*                 ",
"  . 2 * .               p 2 .   u.T.c | c k.U ;X-.5.3.0.r.T.>.6.6.>.c <.<.B.B.w.C r S S =           * C t i M 7 X               ",
"  . s * .               % g $ - Z.x.V | ;.U f 4.T T H W 8.q.>.;.e.N.N.<.F W F B.[ E : S 2             m P O ; 7 4 @ .           ",
"# 9 i @                 + @ 2 r K Y V | z.) a XXz z W 8.W.P.  l l l.g.g.<.8.F B.w.]   d b             + 4 g . % u.m $ %     . + ",
"< b y                       @ 8 6.| { Y y.f Q E.v A.{.[.P.        1 v.o.g.t.0.O.( ( . j.).%           . ; d %     o , 8 , & 2 > ",
"= ; 4 %                     ; ..r.| q.q.y.) l :.F U.Q E             k S.>.#.K K O.S.D.Y.z.i.            6 5 =       A - r M 4 O ",
". 6 > n                     3 R. X{ _.E.~ G *.k.:.!                 .. .K K ( p.z.V c { { ;.,.          j J ; @       . : 0 %   ",
"  + * m / . .           . + s &X{ q.E.m.1 Q L b.8               . - S x w.w.`.*X' V V V ' ' `.9 = % % : C < 9 m , - % + 3 7 %   ",
"    . j C i s * ; ; # * $ 9 4 b.K v.L.Q       & t 2 @ @ @ / e & d P =.w x z.+.' ' +.+.' ;.6.] 9 m s 4 S r / = 6 p 7 < # m d +   ",
"      . O ^ S J 9 m j $ p * % = 2 A         # 4 r i 2 & - j q 4 4 B i     k.+.+.+.' ;.S.] = + % @ / 3 O 5         X m t C #     ",
"        + q 3 + + + .         . j $       % , 0 8 o     . + . .   / 7 %   X.' ' ;.#.L i 9 j p g 7 h y r S %           9 b       ",
"        % 5 /                   & C - + * , g 2 6                 @ 7 6   k Y.D.f + O t 2 = % = / $ q 0 ^ 2           & g       ",
"  % ; 6 # =.j               6 g B 0 7 J 9 @                       % 5 p   X a     , 8 ; .               < 0           @ 9 ;     ",
"m 7 h B S t >           . ; 9 m o   X 2 2                         . 4 i : +   % 9 4 =                   5 7           . g S 4 O ",
"& : @ @ 2 y M : .     % $ m * .       o 2                   . + 3 b C M C b 5 C %X7 . .               % 0 ,           + % 4 P 0 ",
"          = 9 y *   $ J q /     .     @ g +                 % 8 B B s : # * , b h t , +               : t : % .           # > X ",
"            . 2 y i ^ 9 %     n 2 , , 5 S n               % j , @                 ; q $ .           . b S J 9 n           $ 9   ",
"              . j P B , $ = $ J j - - e O > n +         X j j .                     = j =           : < ; @ @ j /         s 5   ",
"                ; > % % $ > C p           $ < n .   + ; 4 8 %                       + g @           g O       $ s         5 b   ",
"                n ,     X p h @             $ J * . j 7 t e                         = 5 @           d p       # 0 %     6 M b   "
};
