/* XPM */
static char *ae3f936e993a4478b7ae34c929878bd4[] = {
/* columns rows colors chars-per-pixel */
"64 64 183 2 ",
"   c white",
".  c #FFFFFE",
"X  c #FEFEFE",
"o  c #E1F1F4",
"O  c #F5FBFB",
"+  c #FEFFFE",
"@  c #FDFFFE",
"#  c #E6F3F5",
"$  c #F9FDFC",
"%  c #EDF7F7",
"&  c #FBFDFD",
"*  c #D3EAEF",
"=  c #DFF0F2",
"-  c #D5EBEF",
";  c #F8FBFB",
":  c #E8F4F6",
">  c #EBF5F7",
",  c #D7ECF1",
"<  c #C6E4EC",
"1  c #EFF8F8",
"2  c #FCFFFD",
"3  c #E3F1F4",
"4  c #D1E9EE",
"5  c #F4F9FA",
"6  c #F2FAFB",
"7  c #CDE8EE",
"8  c #CBE7ED",
"9  c #F2F9F9",
"0  c #DBEDF1",
"q  c #E5F2F4",
"w  c #F7FCFC",
"e  c gray99",
"r  c #693434",
"t  c #C4E3EC",
"y  c #DDEFF2",
"u  c #D9ECF0",
"i  c #F7FBFA",
"p  c #BFE1EB",
"a  c #EBF7F8",
"s  c #FEFDFD",
"d  c #EEF1F1",
"f  c #B6DDE7",
"g  c #E30000",
"h  c #BCE0EA",
"j  c #F1F9FA",
"k  c #DAEEF2",
"l  c #F4F4F4",
"z  c #ECEDED",
"x  c #FEFFFF",
"c  c #743A3A",
"v  c #B2DBE7",
"b  c #BEBEBD",
"n  c gray90",
"m  c #F6F6F6",
"M  c #ADD9E6",
"N  c #F10000",
"B  c #DA0000",
"V  c #4B2424",
"C  c #A5D5E4",
"Z  c #B9DFE8",
"A  c #8E0202",
"S  c #EE0000",
"D  c #D6D8D9",
"F  c #9B9B9B",
"G  c #C9E5ED",
"H  c #F2F6F7",
"J  c #DEE8EA",
"K  c #E8E9E9",
"L  c gray63",
"P  c #D0CDCD",
"I  c #5F2F2F",
"U  c #A3A6A8",
"Y  c LightGray",
"T  c #F7F9F9",
"R  c #9A0304",
"E  c #93CEE0",
"W  c #B3B7B6",
"Q  c #C5D0D3",
"!  c #A40000",
"~  c #E0DCDC",
"^  c #780202",
"/  c #9CD1E2",
"(  c #E7EEF0",
")  c #8C7774",
"_  c #EA0000",
"`  c #D10101",
"'  c #C90001",
"]  c #D9DBDC",
"[  c #C8C6C5",
"{  c #B70102",
"}  c #EBF2F3",
"|  c #AF0202",
" . c #542C2C",
".. c #8A7D7D",
"X. c #C9CBCC",
"o. c #824646",
"O. c #DDE0E0",
"+. c #A7ACAD",
"@. c #DAE3E5",
"#. c #B72527",
"$. c #BF0203",
"%. c #BEC3C4",
"&. c #846565",
"*. c #958785",
"=. c #B6BABA",
"-. c #EDF4F5",
";. c #AFB3B3",
":. c gray68",
">. c #A88484",
",. c #511919",
"<. c #ABB0B2",
"1. c #BF1919",
"2. c #CED7D9",
"3. c #BFAAA6",
"4. c #E2E3E3",
"5. c #5E2122",
"6. c #892425",
"7. c #AD9697",
"8. c #FC0000",
"9. c #4F0909",
"0. c #898985",
"q. c #7F746C",
"w. c #833535",
"e. c #B6B1AD",
"r. c #645855",
"t. c #C3C9CA",
"y. c #A4977A",
"u. c #8A836A",
"i. c #D2BFBF",
"p. c #B64242",
"a. c #BCA19F",
"s. c #826D6D",
"d. c #726060",
"f. c #701818",
"g. c #732626",
"h. c #7E3F3F",
"j. c #DECCA5",
"k. c #BFB69C",
"l. c #986D6D",
"z. c #5A4747",
"x. c #B09E9B",
"c. c #610505",
"v. c #6D4E4F",
"b. c #CE0A0B",
"n. c #885A5A",
"m. c #AF3334",
"M. c #9A4B4C",
"N. c #A19393",
"B. c #986263",
"V. c #939391",
"C. c #D5BFA3",
"Z. c #F5D9BE",
"A. c #F8E8BF",
"S. c #6D4728",
"D. c #916B11",
"F. c #A37B14",
"G. c #CB9C97",
"H. c #875050",
"J. c #CEAFA8",
"K. c #B65152",
"L. c #D4E9ED",
"P. c #94ADB3",
"I. c #755454",
"U. c #C0B8B8",
"Y. c #8D1919",
"T. c #C5A10C",
"R. c #B3A685",
"E. c #F8D889",
"W. c #4D3A3A",
"Q. c #FABDAA",
"!. c #BC827D",
"~. c #66393A",
"^. c #7CC3DB",
"/. c #C37878",
"(. c #B86160",
"). c #D22121",
"_. c #C75353",
"`. c #9B7C7C",
"'. c #DBD2B7",
"]. c #A6972B",
"[. c #FFC5B3",
"{. c #B28979",
"}. c #957111",
/* pixels */
"9 X           2 k o       . 0 6               i Z k # & G O                       . # - .         X < j       X t q , v C E / G ",
"7 k 5 .   & k t f , .       = j               2 t 0 } % u w                     . % t T     .     2 Z %       . f E 8 # 9 O > , ",
"$ % 7 0 2 : 4 : ; u 4 % $ . 3 5               @ p q w = < i             . . X 1 - C C > q - 7 = a = / :       + M G .           ",
"    5 M Z 1       $ < G - - 8 &               & t O   X q y i         & > 0 G M / = 9 u 7 k < v M f M k       6 M 5             ",
"      o M w         O 0 ; o t +               O 7 &     + 5 # : 1 5 % y = 1 1 C 8 X   . .     X w 1 t h X     : Z +             ",
"      j 8 X         & , $ O 4 +               9 q         . X 3 * % 5 w @     p #                   $ Z >     o 8               ",
"      5 , @       . > u X & * &               & -.&         X = 9           & t 6                     k 4     > k               ",
"      X k w     . 9 u w     u = .             . q q .       $ * X           w G &                     j t X   5 =               ",
"      2 Z G 5 & 1 < %       w G # .             O * @ T K ~ Y Q l @         w 4 2                     $ h j . w u X             ",
"    . y h < y 3 C , .         O 8 y X .         2 Q G.K.#.1.1.#.p./.i.z     i * X                     2 f %   X 8 a             ",
"  . > * e     $ 7 #             5 v p : O & X & J.m.B _ S S N S _ g b.p.G.z a ,                     $ = / , 6 X t p &           ",
"O # L.;         5 u e             5 p M 4 = : a.1._ S _ _ _ _ _ _ _ g g ` p.U 4 .           2 a 0 8 p f E C f 4 p v G # 1 i w w ",
"< t * .         + > u = % $ +       y < X x i.1.N N N S S S S S _ g g g B B #.L # O & X @ 2 = 8 y : 5 & < y i w & 2 6 1 1 9 % k ",
"& & y 9 .         X 1 - t 8 > +     j k x d p.g S S S S S _ _ _ g g g B B ` ` #.[ : o q q = o &       X y w .               x & ",
"  . : < w               . O L.9     + = 6 J.b.g g g g g g g g B ` ' ' ` ' ' ` ' K.d X e O w           & % X                     ",
"  . . 0 # .               X h y .     5 u (.B B B B B B B ` ` ' ' $.| | | ! { $.| a.                  w -.                      ",
"    . > y .             + 3 8 * = i X   2.6.{ | { { { $.$.| ! ! ! ! ! R R R R ! { M.l                 w 3 .                     ",
"    . 6 , X             i 0 & e # 0 4 L.;.7.3.3.3.a.7.>.l.H.w.6.Y.A A A A A A A ! R i.                i < = e                   ",
"    X = Z i             > 1       X O @.%.  x @ X X X & ; l z ~ [ a.`.H.g.^ ^ ^ ^ A >.@               O 8 - 4 $                 ",
"+ 9 4 7 0 - w .         # i           ] X.l l l l l l l l l l m m T m d ~ e.&.&.n.f.) P K             & q e u k +               ",
"= y > 2 + > 8 # .     5 8 O % y > X   X.P z K 4.O.O.O.O.4.4.n K K K z z z d z D Y b l T D K           + # 5 & L.%             w ",
"> &         : / y .   = Z * * 0 < k o %.U :.L F F L L F U +.:.W b X.Y ] 4.K n Y =.z m X l ]             > %   9 * &       w y G ",
"          . 3 f t = > Z E - 2   X 6 q ( L W t.t.F '.C.L Q t.b <.0.u.F F F e.b t.b 4.z d z D             % %     : q 5 i % 0 y O ",
"          > p 5 w > 9 1 * #           n V.;.W W e.A.A.e.;.W t.t.k.R.X.Y y.C.L W %.%.D ] %.Y             9 > .   X 5 3 h 4 i .   ",
"        & - >           > =           b k.u.u.y.Z.Z.Z.j.*.u.R.k.j.y.Y D u.E.A.+.@.b =.W P T             ; 1 .       . = %       ",
"        % >             w >           e.) {.3.G.Q.[.j.y.j.Z.Q.J.) q.O.O.y.E.A.W L.i } L.$ +   x       . > y X       + : 5 .     ",
"      X 3 &             & # X         ;.F >.7.a.C.C.k.b b x.!.!.L F ( @.q.E.j.[ 4 3 - G > i 9 % > > 9 5 7 0 % X     X k 5       ",
"      & q X             X = 6       4.0.] l ; n P P 4.& x l ] Y d <.4.( 0.R.k.@.> @ $ & X X 2 & e ; > < u X o 0 w . & 8 6       ",
"      ; y X             . # q     z b b ;.( -.J D ( -.-.-.-.H } X.+.d -.+.V.4.* w                     # =   & # y -.% u X       ",
"      # * +             . o 7 & e b K T <.U <.L L U ;.%.Q Q %.+.+.4.-.} t.d.+.k .                     9 >   . . & 5 , y         ",
"; w 9 G 4 # % i + . . i 3 3 % % D [     T O.2.J d ] t.W <.<.=.Y d -.d ( 2.6.#.i.                      q #           1 q     + & ",
", G h 1 $ 9 = p - k y y > 2   2 b K   + @ @ 2 e ; 5 H -.-.> 1 H ( @.K ( 2.m.N _.T                   X 0 1       X 1 : u O > u 4 ",
"w G o . .   X o t / , X       e b T + 2 & e ; i 5 H H 5 P 7.W <.L L U 2.Q #.8.).~                 . > 1       . 8 8 1 = t t k 9 ",
"C t X         X 1 - - 5 .     ; b H X e ; T H 5 H H d D &.! 6.F ~ l D s.B.$.8.b.+.j .           X y y j i X + # C 1   . 5 8 v f ",
"E 8               . % < i     X b @.e ; T d d H H ( ) 6.A ' | ..n l 2 >.R $.B $.*.4 o & . . & O G E v h G 4 7 v <         . w % ",
"8 < .               . < #     & Q %.} 5 H J ( H H ] g.{ S 8.` I.D l & P 1.` ` ! n.5 4 f - = = u C E q & & 5 : t =               ",
"# Z &                 # :   & 3 H =.2.( } J J } } @.h.! g 8._ h.X.d T n #.g { ^ w.d + 4 t 9 & . : f X     .   : >               ",
"w Z a                 > t 5 G 4   z ;.Q J J J J J J ) A g 8.S h.t.z m K m.' c.9.5.U.  2 8 :   . , ,           > 1               ",
"  0 #                 # C = G < 9   z W W @.J @.@.] <.5.R $.R d.X.4.m D r g.I r I s.e   > 4   i 4 i         + 4 #               ",
"  1 8 w               : 0     q f y   z r.s...u.r.r.].S.r c h.v.q.) ..d.I r r r I s.e   w 7 & # q           $ v :               ",
"  5 Z 4 e             % %     . > p > e ) c S.D.r c T.D.c o.o.h.c c r I r r r r I ) X   X 4 : , O           # h &               ",
"  % , u G 6 X       . = 1       . i = 1 N.c S.}.r r T.D.r c c c c c c I I I  .V ,...    + p E h X           * ,                 ",
"  5 y $ * < 4 : O 5 7 8 &           X O +.V ,.D.F.F.T.S.V 5.5.5.,.,.,.9.9.9.,.~.d.F 4.l > 4 # p =           t #                 ",
"  & = & . & 5 > = * f * 9 .           $ P.~.g.q.F.F.y.U.r f.f.f.g.w.o.B.>.3.[ [ L r.v.e.: ;   9 t * 1 .   X Z a                 ",
"  + = 9         2 2 X % u T       & 1 4 P.=.[ [ 6.A >.e D X.P Y ] O.O.Y U.N.0.r. .I r *.i .     w k Z k . O M 1                 ",
"  . # 1 .               1 q . . % 3 3 j l e.c w.^ ^ 5...*.*...) &.M.m.1.b.Y.b L ~.r I &.z           1 M f h C 7 X               ",
"  . = 1 .               2 = > # L.w . e P o.A R A ^ 9.9.z.z.q.n.^ R ' _ S #.Y D I.r I o.P             y E o i 7 - e .           ",
"5 k h e                 x e # f a     O.V.o.A A ^ c.c.l.z H x ~ w.^ R | { K.d n ) r I r x.            + - = . X # y % X     . + ",
"8 4 t                       w 0 z d   W L U n.f.c.,.x.m         ~ B.w.Y.| p.K K *.c c r l.m           . i , X     ; 3 u q : # * ",
"& w - X                     w =.&.&.7...F :.:.F ..q.]           . ; K 7.A M.d n *.o.o.r H.]             & * &       @ > Z C - o ",
". $ L.9                     ] v.~.c r  .r.V.U :.:.L K               = J >.) D b W l.M.c c L 6           : * i e       . 9 < 2   ",
"  + 1 = O . .           . 2 *.V V  .I  .V W.d.0.0.X.            . > v 6 X D Y d X 3.B.o.r ..t o & X X j v 8 0 = 3 > 2 + O 7 2   ",
"    . : M p = 1 O i 5 1 > 0 Q N.z. .V V V  .V z.P.= w w e O a # , E M             l i.F :.Y 9 0 y = - v Z i & $ % 7 8 5 y , +   ",
"      . o / v 4 k y : > % 1 x $ Q N.v. .V V V s.Z p q # > : k - - G p               @ t 1   2 X w O O o *         X y f M 6     ",
"        + y O + + + .           > % n x.I. .V F k ;     . + . .   O 7 X           x 2 p u : % = 7 p t Z v X           k 4       ",
"        X * 5                   : M a   O.F &.Q 2                 w 7 $           + = f # & X & O > k < / #           : =       ",
"  X ; & 6 M :               & = G < 7 4 y $ l s                   X * 1         + 3 u i .               8 <           w u O     ",
"y 7 p G v f *           . i 0 = ;   X # q                         . - h j X   X 0 - &                   * 7           . = v - o ",
": 9 w w # < C 9 .     X % = 1 .       ; q                   . + O 4 M C M 4 * M ^.7 . .               X < q           x X - E < ",
"          & 0 t 1   a 4 0 i     .     w = +                 2 u G G = 9 5 1 o 4 p f 3 +               9 f j 2 .           5 * X ",
"            . # t p / 0 X     9 # 3 3 * f 9               X : 3 e                 i 0 > .           . 4 f 4 0 5           > 0   ",
"              . : E G 3 > & > 4 # : : % o L.9 +         X # : .                     & : &           9 8 i w w } i         = *   ",
"                i * 2 X > * M 1           > 8 9 .   + i - u X                       x = w           = o       > =         4 4   ",
"                9 3     X % t w             > 4 1 . : 7 Z %                         & * w           , %       5 < X     $ C 7   "
};
