/* XPM */
static char *d2a47060ec344123de098e6c50274752AunXmM8kBXjkoNAJ[] = {
/* columns rows colors chars-per-pixel */
"64 64 180 2 ",
"   c white",
".  c #FFFFFE",
"X  c #FEFFFE",
"o  c #FEFFFF",
"O  c #FEFEFE",
"+  c #FCFFFD",
"@  c #E6F4F6",
"#  c #FAFDFC",
"$  c #F8FCFB",
"%  c #E9F4F6",
"&  c #E1F0F3",
"*  c #FCFDFD",
"=  c #EBF6F6",
"-  c #F2F9F9",
";  c #EFF8F9",
":  c #D3EAEF",
">  c #DAEEF2",
",  c #F7FBFB",
"<  c #CAE6ED",
"1  c #EDF7F7",
"2  c #DFF0F2",
"3  c #F3F9FA",
"4  c #D1E9EF",
"5  c #C6E5EC",
"6  c #F2FAFA",
"7  c #CDE7EE",
"8  c #E4F1F3",
"9  c #F5FAFB",
"0  c #E5F3F4",
"q  c #DAEDF1",
"w  c gray99",
"e  c #E50000",
"r  c #DDEFF2",
"t  c #D6EBF0",
"y  c #D0E8EE",
"u  c #ED0000",
"i  c #C4E3EB",
"p  c #D7ECF1",
"a  c #EEF4F5",
"s  c #ECF0F1",
"d  c #E6E6E6",
"f  c #BBE0E9",
"g  c #ADD9E5",
"h  c #BEE1EA",
"j  c #C2E2EB",
"k  c #F6F8F8",
"l  c #E2F2F6",
"z  c gray95",
"x  c #C5C7C8",
"c  c #E2E2E2",
"v  c #B2DBE7",
"b  c #ECF1F3",
"n  c #F1F6F7",
"m  c #DC0000",
"M  c #4B2626",
"N  c #F5F6F5",
"B  c #D4D5D6",
"V  c #940001",
"C  c #B6DDE7",
"Z  c #A5D5E4",
"A  c #DDE7E9",
"S  c #CCCCCB",
"D  c #C50000",
"F  c #B9DEE8",
"G  c #E7EDF0",
"H  c #ECECEC",
"J  c #C1C2C2",
"K  c #D4DBDC",
"L  c #A39191",
"P  c #B39C97",
"I  c #93CEE0",
"U  c #703937",
"Y  c #D30000",
"T  c #B7B7B5",
"R  c #AC0404",
"E  c #9FA2A3",
"W  c #683434",
"Q  c #A9AAAB",
"!  c #B1B9B9",
"~  c #9CD1E2",
"^  c #623130",
"/  c #A7A6A6",
"(  c #A29C9C",
")  c #F20000",
"_  c #E0EAEC",
"`  c #9E0101",
"'  c #918586",
"]  c #B5B0B0",
"[  c #BEBDBB",
"{  c #B7BEC0",
"}  c #890506",
"|  c #7E4141",
" . c #A9AFB0",
".. c #CC0404",
"X. c #C4CBCC",
"o. c #7E0202",
"O. c #DCDEDD",
"+. c #B40102",
"@. c #CBD2D3",
"#. c #AAA2A1",
"$. c #894A4A",
"%. c #716060",
"&. c #793D3D",
"*. c #B84E4F",
"=. c #989897",
"-. c #B02E2F",
";. c #F9FAFB",
":. c #E0E9EB",
">. c #AAB5B8",
",. c #832B27",
"<. c #5A3835",
"1. c #DCCAA8",
"2. c #551515",
"3. c #7F3333",
"4. c #874646",
"5. c #D8E1E3",
"6. c #9B7676",
"7. c #CBB8B8",
"8. c #827B77",
"9. c #653C3C",
"0. c #8E8776",
"q. c #CABDBD",
"w. c #B17979",
"e. c #B18383",
"r. c #BD2020",
"t. c #721E1E",
"y. c #532C29",
"u. c #7A7371",
"i. c #FD0000",
"p. c #8F908E",
"a. c #A2827E",
"s. c #F4E4BE",
"d. c #5D0405",
"f. c #A3987C",
"g. c #C2D6DB",
"h. c #975556",
"j. c #D7CFCF",
"k. c #963F3F",
"l. c #D1C7C7",
"z. c #861717",
"x. c #755859",
"c. c #73686A",
"v. c #B3B1A3",
"b. c #856018",
"n. c #807254",
"m. c #BC7070",
"M. c #C7B0B0",
"N. c #C50B0C",
"B. c #604646",
"V. c #836869",
"C. c #C8BCA1",
"Z. c #F3D7BC",
"A. c #991314",
"S. c #FCC0AD",
"D. c #8E6363",
"F. c #6D0505",
"G. c #CAA40B",
"H. c #B9A7A7",
"J. c #C4B597",
"K. c #F9DA8C",
"L. c #D6C6C7",
"P. c #BE3030",
"I. c #9F6565",
"U. c #C59890",
"Y. c #7AC3DB",
"T. c #ADD1D9",
"R. c #A31E1E",
"E. c #C4807F",
"W. c #724949",
"Q. c #552323",
"!. c #835454",
"~. c #D8BB9A",
"^. c #C1AA90",
"/. c #9C7F1E",
"(. c #B28F15",
"). c #908465",
"_. c #936F5F",
"`. c #AE9494",
"'. c #7B5253",
"]. c #571C1E",
/* pixels */
"- O           * > 8       . q 9               , f > % # < ,                       . 0 t .         O 5 ;       O j l q v Z I ~ < ",
"7 > 9 .   * > i C p .       2 ;               * i q 0 1 q $                     . 1 i 9     .     * F 1       . C I 7 0 - , % p ",
"# 1 y q * % y % , p 4 1 # . 8 9               + h l $ 2 5 ,             . . O ; : Z Z % l t y 2 = 2 ~ @       X v < .           ",
"    3 g f ;       # 5 5 t t 7 *               * i 9   O 8 r ,         * = q < g ~ 2 - p y > 5 v g C g >       9 g 3             ",
"      8 g $         9 q , & i X               9 7 *     X 9 0 % ; 9 = r 2 ; ; g < O   . .     O $ ; i f O     @ F X             ",
"      - 7 O         * t # 9 4 X               - 8         . O 8 : 1 3 $ +     j @                   # f %     l 7               ",
"      3 p X       . = t O # : #               # a *         O 2 -           * j 9                     > 4     % >               ",
"      O > $     . - q $     p 2 .             . 0 0 .       $ 4 *           $ < #                     - i O   9 2               ",
"      * F 5 3 # ; i 1       $ < 0 .             9 : o o k H A h +           $ 4 *                     # f - . $ p O             ",
"    . r f 5 r 8 Z p .         9 < r O .         + g.M.m.*.P.-.*.m.7.z       , : O                     * F 1   O < 1             ",
"  . = : w     # 7 0             3 v h @ 9 * o H U.-...e u u u u e ..*.L.o . @ p                     # 2 ~ p 9 O i h *           ",
"9 0 4 ,         9 p $             3 h g 4 l x *...e e u u u u u u u e r.M.0 j 4 .           * = q 7 h F I Z F 4 h v < 0 ; , $ $ ",
"5 i : .         X a q & 1 # X       r 5 o q.-.Y m e e u u u u u u u ) u r.l.# 5 8 9 # O X * & < r % 3 # i r , $ # * 9 ; n - = > ",
"# # r - .         O ; t i < % X     ; 2 L.-.Y m m m e e e u u u ) ) ) u e *.N 7 & 0 8 8 8 2 & *       O r $ .               o * ",
"  . % 5 $               . 9 4 -       B k.D ....Y Y ..Y m e e e e e e e e N.7.> #   * w , $           * = O                     ",
"  . . q 0 .               O f r .   O w.+.D +.R +.R +...Y Y Y m m m m m m m m.7 ,                     $ %                       ",
"    . = r .             X 8 < : 2 # j.R.+.` V ` ` ` R R R R +.D D D D D D D -.K -                     $ 8 .                     ",
"    . 6 p O             9 q # # % r 6.` V V V V V V } } } z.,.k.h.I.w.e.e.w.6.>.> o                   , 5 2 w                   ",
"    O 2 F ,             = n   z c B ,.} o.o.o.o.,.$.6.P q.B c s N , # * O + $ ! T.% $                 9 7 t y #                 ",
"X - y y q t $ .         0 $ c x K J | $.V.&.a.7.O.s k k k k N N N N N N N N k J K 3 8 #               * 8 $ p > X               ",
"2 r = * X % 7 0 .     9 < s x ;.  w S @.J B z z H H H H d d d c c c c d d H s x @.  1 0 O             X 0 9 # 4 =             $ ",
"= *         % ~ r .   2 f g.X.k z z B { ! B d c O.B S J T ] Q Q E / / E /  .[  .S     0 -               % 1   - : *       $ r < ",
"          . 8 C i & = f I g.T c d c [ @.x Q ] =.=.( 0.0.Q { x X.E C.1.=.{ ! / E z     1 1               1 1     % 0 9 , 1 q r 9 ",
"          % h 9 $ = - ; : 0 S ] J T T k x #.1.f.S B P J.x X.! T v.s.s.v.J x ! =.z     % 1               - % .   O 3 8 f y , .   ",
"        # t %           = & O c S B N * T s.K.).X.K f.1.J.^.).f.1.s.Z.Z.0.8.0.v.S   X & 9               , n .       . 2 1       ",
"        = =             $ =           ;.v.s.K.f.K c u.n.^.S.Z.1.f.1.S.S.U.J.a.0.[ # 9 p $ X   o       . % r O       X @ 9 .     ",
"      O 8 #             * 0 O           J ~.K.n.O.s E / e.E.P [ T C.1.~.P L a.' >.@ t < = , - 1 = a - 9 y q = O     O > 9       ",
"      # 8 O             O 2 9           N [ J.p.G d  .b K c a O w O.S S c N H x =.N # # O O * # w , = 5 p O & q $ . * < 9       ",
"      , r O             . 0 8             w E / a b  .x s a a a a a G K G a G  .[ x O                 @ 2   * 0 r % 1 p O       ",
"      0 : X             . 8 y w .       o B 8.X.s a :. .Q { X.X.J >.E E E >.E { * x c                 - =   . . * 3 p r         ",
", $ 3 < y 0 1 , X . . , 8 & n a ; *   H E.P.3.@.G s b s B { >.>.! X.5.s 5.@.5.w   H J O               l 0           ; 0     X # ",
"p < f ; # 3 & j t > r r % *   O r h K *.e i.-.B _ G s b a a a b a n k ;.w + X X   O J z             O q 1       O ; % p , = q 4 ",
"$ 5 & . .   O 8 i ~ p O         @ 5 w.e i.) R.X.:.G G s s b a a n n k k 9 , $ * O   S d           . = n       . 7 7 1 & i j > - ",
"Z j O         O 1 t t 9 .       ; J r.e e m R ( :.A _ G G s b a a n n n 3 n , $ # o x d         O r r - , O X 0 Z ;   . 3 < v C ",
"I 7               . 1 i ,       @ e.+.Y ..D V &.@.A A :.G G s b a a a n n G k ;.$ a ! s   . * 9 < I v f < 4 y v 5         . $ 1 ",
"7 5 .               . i @     , 0 w.D m D V F.V h.@.:.A A :._ G s b a n a :.a 9 n B >.C t 2 2 p Z I l # * 9 % i &               ",
"@ F #                 0 %   * 8 n *.Y N.R z.d.o.V k.] 5.:.A A A :.G G b G A G s 5.! H : j - * . @ C O     .   % =               ",
"$ F 1                 = i 3 < : d D.e.7.l.l.#.&.} ` A.h.#.@.A :.:.A A A A A :.K p.S   * 7 @   . p p           % ;               ",
"  q 0                 @ Z & < < { B * * w *   [ Q.t.t.t.t.B.8.( ! X.K 5.A A J c.%.[     % 4   , y ,         X 4 0               ",
"  ; < $               @ q     @  .S z z z z N x <.&.$.$.$.4.4.| 9./.n.c.8.0.W.W u.Q     $ y * 0 8           # v %               ",
"  9 F y $             1 1       K Q O.O.B x x  .<.W | | | | | | U G.b.U U b.&.W %.p.*   O 4 @ p ,           0 f *               ",
"  1 p p < 6 O       . 2 ;       k / T ' !.3.,.,.Q.^ U U U U U U ^ (./.<.b.b.^ <.8.8.S   X h I f O           : p                 ",
"  9 r # : 5 y % 9 9 7 7 *         K u.` e u e D o.2.2.2.2.2.2.2.M n.G.G.(.y.d.<.( D.L   = 4 0 h &           i @                 ",
"  * 2 # . * 3 = 2 : C : 3 .         P Y i.i.) } '.!.4.&.3.3.3.3.a.H _.,._.] P =.' %.c ; 8 $   - i : ; .   O f 1                 ",
"  X 2 3         * * O 1 t 9       o ] +.u m m } ( B O.O.c c c c H B 3.V ,.( ( p.#.V.g.< $ .     $ > F > . , g ;                 ",
"  . 0 ; .               n 0 . . n 0 5.$.V V V F.A.r.-.k.$.x.%.x.B.y.d.o.o.<.p.' V.%.T.v #           ; g C f Z 7 O               ",
"  . 2 ; .               * & = % : $   c `.6.a.6.N.i.e R o.D.J H.].d.} R V 6./ ( ] d - v 0             r I 2 , y t $ .           ",
"3 > f w                 o w 0 C %             @.A.Y D V F.7.  H 9.d.o.V o.H.          p 4             X t 2 . O 0 r = O     . X ",
"7 4 i                       $ q $           X ! $.r.R z.| #.s ] %.^ t.z.&.' s         @ f O           . , p O     , 8 p l % 0 : ",
"# $ t O                     9 8 O           w J c j.7.l.H S d T Q / ( E  .E d         @ I @             # : *       X % F Z t & ",
". # : 3                     ; > O             [ O.s z s H T z T =.Q Q Q / =.N         : Y.v -           % : , w       . - i *   ",
"  X ; 2 9 . .           . X > g $       ;.j.M.' ' ] [ T ( T w O.c.c.u.u.%.%.#.q.z     v i l 5 l # O O - v < q 2 8 % * X , 7 *   ",
"    . % g h 2 ; , , 9 ; = q t : 0       q.I.h.4.U 9.9.9.9.x 6 5.B.M M M y.^ U W.L O O v %   3 q r 2 t v f 9 # # 1 7 < 9 r p X   ",
"      . & ~ v 4 > r % = 1 ; O # 8 w   O L 4.4.&.U W ^ W ^ #.l { y.M M M M y.^ ^ x.z   j % O * O $ 9 , & :         O r F g 9     ",
"        X r , X X X .         . % =   z x.W U U W W W W ^ '   ] M M M M M M M M <.B o j p % 1 & 7 h i F v O           > 4       ",
"        O : 9                   @ g = N #.L P P P P P P P q.  j.L L ' L L L L L L d & C 0 # O # 9 = > 5 ~ @           @ &       ",
"  O , # 9 g %               # & < 5 7 : 2 #                       o t 6           8 p , .               7 5           $ q ,     ",
"r 7 j 5 v C :           . , q 2 ,   O 0 0                         . t h - O   O q t *                   : 7           . 2 v p & ",
"% - $ $ 0 i Z - .     O 1 2 ; .       , 0                   . X , 4 g Z g 4 : g Y.y . .               O 5 8           o O t I 5 ",
"          * q i ;   = 4 > 9     .     $ & X                 * p < < 2 - 9 ; l 4 j C 8 X               - C - * .           3 : O ",
"            . 0 i h ~ q O     3 0 & 8 : C 3               O % 8 w                 , > = .           . y C 4 q 3           = q   ",
"              . % I < 8 = # = y % % % 1 & : 3 X         O % % .                     * % *           6 < , $ $ % 9         2 :   ",
"                , : * O = : g 1           = 7 3 .   X , t q O                       o & $           & &       = 2         4 4   ",
"                3 8     O 1 j $             = y ; . % y F 1                         * : $           p 1       3 5 O     # Z 4   "
};
