/* XPM */
static char *_c570be747d549f595a6dff7b379efebaJNkHmnWWNPCQqnG[] = {
/* columns rows colors chars-per-pixel */
"64 64 214 2 ",
"   c #87ABA7",
".  c #88AAAC",
"X  c #91B6AF",
"o  c #9AAFB2",
"O  c #9BB5B7",
"+  c #9FB9B8",
"@  c #A0B3B9",
"#  c #A4BABC",
"$  c #AABCBE",
"%  c #B7BDBD",
"&  c #A4C4BF",
"*  c #94BEC3",
"=  c #9CBFC7",
"-  c #9EBBCB",
";  c #A5BEC2",
":  c #ABBCC0",
">  c #99C5C6",
",  c #9DC2C8",
"<  c #9FC9C8",
"1  c #ADC3C4",
"2  c #A9C9C4",
"3  c #A2C3CC",
"4  c #ABC3CA",
"5  c #A5CACF",
"6  c #ADCCCB",
"7  c #B3C5C5",
"8  c #B3C9C7",
"9  c #BAC9C6",
"0  c #B4C5CD",
"q  c #B8C7CA",
"w  c #B5CCCD",
"e  c #BBCBCB",
"r  c #B4D1CF",
"t  c #BBD0CD",
"y  c #AACFD7",
"u  c #AFCCDA",
"i  c #B5C6D0",
"p  c #B4CED1",
"a  c #BACDD3",
"s  c #B4CBDB",
"d  c #B6D2D2",
"f  c #BBD3D3",
"g  c #B8D9D2",
"h  c #BCD5DD",
"j  c #BDDBDC",
"k  c #BFDEE0",
"l  c #BDDFE8",
"z  c #C4CDCE",
"x  c #C2CCD3",
"c  c #C4D3D4",
"v  c #CAD4D6",
"b  c #C3D9D6",
"n  c #CBD9D5",
"m  c #C2D4DA",
"M  c #CDD5DA",
"N  c #C5DBDB",
"B  c #CCDCDC",
"V  c #D0D5D6",
"C  c #D3D7DD",
"Z  c #D2DDDD",
"A  c #DBDCDF",
"S  c #C1E3DD",
"D  c #CAE1DE",
"F  c #D2E1DE",
"G  c #C1D1E0",
"H  c #CAD6E2",
"J  c #C4DCE3",
"K  c #CCDDE3",
"L  c #C7DCED",
"P  c #D4DDE1",
"I  c #DDDEE2",
"U  c #D4DFEC",
"Y  c #DBDFEA",
"T  c #C5E3E3",
"R  c #CDE3E3",
"E  c #CAEAE6",
"W  c #C7E3E9",
"Q  c #CCE4EA",
"!  c #C1EDEC",
"~  c #CEEBEB",
"^  c #D4E3E3",
"/  c #DBE4E5",
"(  c #D4E9E6",
")  c #DCE9E7",
"_  c #D5E5E9",
"`  c #DBE6EA",
"'  c #D5EBEB",
"]  c #DCEBEB",
"[  c #D6F0ED",
"{  c #DDF1EE",
"}  c #C8E6F0",
"|  c #DEE7F0",
" . c #D4EAF0",
".. c #DCEDF2",
"X. c #D0EEF8",
"o. c #CFF7F9",
"O. c #D1F2F7",
"+. c #DDF3F4",
"@. c #DCF9F5",
"#. c #DDF4FA",
"$. c #D3FFFF",
"%. c #DCF9FD",
"&. c #E1E4E6",
"*. c #E8E3E7",
"=. c #E5EBE7",
"-. c #E3E6EB",
";. c #E2EBEC",
":. c #EAECEE",
">. c #E3F1EE",
",. c #EAF0EE",
"<. c #ECFAED",
"1. c #F0F2EF",
"2. c #F1F9EE",
"3. c #E3E7F0",
"4. c #E3EEF2",
"5. c #EBEEF2",
"6. c #E6EEF8",
"7. c #F0EEF1",
"8. c #F9EFF7",
"9. c #E4F3F3",
"0. c #EBF3F4",
"q. c #E4F9F6",
"w. c #ECF8F6",
"e. c #E4F4FB",
"r. c #ECF6FA",
"t. c #E5FBFC",
"y. c #EDFCFD",
"u. c #F2F3F5",
"i. c #FCF6F6",
"p. c #F3FAF6",
"a. c #FCFCF7",
"s. c #F3F6FA",
"d. c #FDF6FD",
"f. c #F1FFFD",
"g. c #F3FFFD",
"h. c #F1FFFF",
"j. c #F0FFFF",
"k. c #F2FEFE",
"l. c #F2FFFF",
"z. c #F3FFFF",
"x. c #F2FCFE",
"c. c #F7FDFD",
"v. c #F4FEFD",
"b. c #F5FFFC",
"n. c #F4FCFF",
"m. c #F5FDFF",
"M. c #F4FDFF",
"N. c #F4FEFF",
"B. c #F4FFFF",
"V. c #F5FFFF",
"C. c #F4FFFE",
"Z. c #F6FEFF",
"A. c #F6FFFF",
"S. c #F7FFFF",
"D. c #F7FEFF",
"F. c #F7FCFF",
"G. c #F5FEFE",
"H. c #F9F9FB",
"J. c #F9FBFA",
"K. c #FAF8FB",
"L. c #FFF9FA",
"P. c #FBFDFB",
"I. c #F9FFFB",
"U. c #FBFFFB",
"Y. c #F9FDFA",
"T. c #FDFEF9",
"R. c #FFFDFA",
"E. c #FFFDFB",
"W. c #FCFEFB",
"Q. c #FDFFFA",
"!. c #FFFEFB",
"~. c #FFFFFB",
"^. c #FFFEFA",
"/. c #FEFDF9",
"(. c #FAFAFD",
"). c #FFF9FF",
"_. c #FFFBFF",
"`. c #FFFAFE",
"'. c #F9FFFD",
"]. c #F8FEFC",
"[. c #FBFFFD",
"{. c #F8FDFF",
"}. c #F9FDFF",
"|. c #FBFCFF",
" X c #F9FEFF",
".X c #F8FFFF",
"XX c #F9FFFF",
"oX c #FAFEFF",
"OX c #FBFEFF",
"+X c #FBFFFF",
"@X c #FAFFFF",
"#X c #FFFDFD",
"$X c #FFFCFD",
"%X c #FCFFFD",
"&X c #FFFEFC",
"*X c #FFFEFD",
"=X c #FEFFFD",
"-X c #FFFFFD",
";X c #FCFDFF",
":X c #FDFCFF",
">X c #FFFDFE",
",X c #FFFCFF",
"<X c #FFFDFF",
"1X c #FEFDFF",
"2X c #FDFEFF",
"3X c #FCFFFF",
"4X c #FDFFFE",
"5X c #FEFEFF",
"6X c #FFFEFF",
"7X c #FEFFFF",
"8X c white",
"9X c #FEFEFE",
"0X c gray99",
"qX c #FCFEFE",
/* pixels */
"r.S.S.z.6X{.z.y.' 9.6X6X6X{.;.g.6X6X6X6X{.{.{.S.N ..9.{.P {.6X6X6XE.0X6X6XK.{.S.S.S.0.&.6XF.{.6X(.{.U y.6XE.).6Xl $.X.h u - s L ",
"/ ) z.S.{.S.4.N f ] {.6X6X{.) w.6X6X6X6X6X6X6X{.D ] 9.x.` S.{.6X6X6X6X6X6X{.{.z.S.y.P {.{.{.{.S.S.z.G t.{.6X).6Xh *  .#.y.y.e...",
"6X0.^ ' S.r.Z r.z.` / r.x.S.9.S.6X6X6X6X6X6X6X6Xb 9.S./ Z {.{.S.{.J.6X6X{.{.z.y.' w 1 t.9.' R +.t.%.= t.S.E.6X6Xa J S.{.S.{.{.S.",
"6X6Xz.e B r.{.6X6XS.B B ( ) ^ z.6X6X6X6X6X6X6X6XZ t.S.S.0.-.r.{.{.{.6X{.0._ K p ; +.z.' K ] K w p h y O.z.Y.K.{.a z.z.{.6X6X6XU.",
").6Xz.q.8 S.6X6X6X{.t.9.z.' b S.{.6X6X6X6X6X).(.^ z.{.6X(.(.u.0.r.S.0.` 0.z.y.w ' S.r.{.{.{.S.{.S.z.W j z.Y.S.9.a y.S.6XE.E.E.E.",
"6X6XS.9.^ S.6X6X6XS.S.( S.z.' y.{.{.{.{.{.6X).K.-.S.J.6X6XK.6X:.Z r.F.S.S.S.S.m ] S.{.6X(.6X{.6X6XS.z.f 9.S.z.>.' z.S.E.E.L.a.a.",
"6X6X{.{./ z.{.6X6X{.9.( {.{.^ z.{.6X6X6X6X6X6X).r.S.{.6X{.{.{.,.p.U.6X6X6XS.S.B S.z.{.6X6X6XU.6X6X6XS.( ) S.{.9.^ S.{.U.E.E.U.{.",
"6X6XF.{.;.S.S.S.S.S.( {.6X6X( ] S.{.{.6X{.6X6X6X;.9.S.S.{.S.z.Z {.E.E.6X6X6XS.Z z.{.{.6X6XE.U.E.E.E.6Xz.B S.{.F.9.S.6X6XE.6X{.S.",
"S.{.6X{.c B z.z.y.b z.{.6X).S.B r.S.{.{.{.6X6X6XS.B {.x.{.S.0.^ {.a.6XK.6X{.S./ {.{.6X6X6XE.E.E.E.6X6X{.m r.6X(.` {.).).6X).6X6X",
"{.F.6X-.c ^ ] 9.1 ] z.6X).).6XS.B ) S.z.{.{.(.6XS.( S.{.{.S.r.) {.6X6X6X6X{.x.) S.{.6X6X6XE.6X6X6X6X{.{.K t.S.{.U e.6X6X6X6X6X(.",
"6X6Xr./ S.z.S.z.( 9.S.{.).).{.{.S.q N 9.z.S.6X6X9.( {.F.s.6XS.4.S.{.6X6X(.6X4.` {.6X6X6X).6X6X6X{.S.z..., o.y.y.k j r.{.U.U.{.{.",
"u.s.Z z.S.S.y.S.g./ {.{.6X6X(.S.z.S.B q / ;.-.s.7 ) S.x.{.{.{.0.r.S.{.6X5.5.P ` z.{.6X).6X6X6X0.` ^ H J = 5 d ' N d _ 9.<.p.w.g.",
"I M ) S.z.S.6X6X{.r.) :.0.{.{.{.{.{./ P {.F.6X6X>.b z.S.S.x.r.P Z {.s.:.5.x.z.K e.y.S.{.{.S.9.^ 4.4.s.F.Q e.{.6X{.S.F.p.2.p.0.;.",
"{.S.;.y.S.6X6X6X{.{.:.I Z Z 9.{.6X6X{.-.{.{.6XS.z.D 7 v ;.9.r.r.g.J.:.u.6X{.z.K +.4.;.;.] ;.9.y.S.{.6X(.6.x.(.6X6X6X(.6XE.E.{.{.",
"6X{.>.n {.6X6X).6X(.6X6X{.y.' t.{.S.{.-.r.{.6X6Xz.( >.0.J.6XF.6X{.p.6X6X6X6X{.) S.{.6X6X{.J.Y.{.Y.a.6X6X0.S.6XE.6X6X{.6XE.0X).6X",
"6Xr.S.) :.6X).6X6X6X6X6Xz.S.t ] S.{.{.r.-.{.{.{.S.] S.6X6X6X6X6X6XE.6X6XK.6X{.Z S.{.6X).6X6X6XE.U.U.E.K.r.S.Y.E.6X6X6X6XE.0X).).",
"6X6XS.u.-.K.6X).6X6X6X(.{.0.Z ( ;.S.S.S.;.0.{.{.0.w.{.6X6X6X6XE.E.6X6X6X6X6X{.;.S.{.6X6X6X6X6X6X6X6XE.{.w.z.S.{.6X6X6X6X6X).6X).",
"{.{.6XY./ {.{.6X{.6X6X6XF.;.r.S.4.` Z / / S.{.r.0.J.6X6X6X6X6X6X6X6X6X6X6X{.{.5.) S.{.6X6X6X6X6X6X6X6XY.n ] S.S.6X6X6X6X6X6X6X6X",
"S.S.S.9.c S.{.x.6X6X6X6Xu.0.{.S.{.{.{.0./ S.{.0.0.6X6X6X6X).6X6X6X6XK.{.6X{.{.0.v 0.x.6XU.6X6X6X6X6X6Xp.] ( Z {.6X6X6X6X6X).U.{.",
"S.w.Z Z >.^ S.S.{.{.{.{.0.z.{.{.{.S.S.{.r.{.{.4.0.{.(.{.6X6X6XK.0X6X6X6X{.S.S.0.0.x.0.J.6X6XE.6X6X).6XU.>.z.^ -.(.6X6X6X6X6X{.Y.",
") ;.0.{.z.9.N 9.S.{.{.r.^ y.r.] r.S.S.S.9.e.z.^ K z.S.{.{.F.6X6X6X6X6X{.{.{.S.r.{.{.0.0.6X6XE.E.6X6X6X6X;.z.{.Z u.6X{.{.6Xs.{.S.",
"x.{.6XF.{.z.y.# r.x.S.9.f ' _ 9.v ;.9.4.v N t.] q ^ ;.9.0.0.S.{.{.6X{.{.{.S.9.^ z.S.S.;.J.{.6X6X6X6XK.6Xw.0.S.g.A S.{.{.6X{.>.n ",
"6XK.6X6XS.S.t.e v 0.z.N + ~ y.S.{.0.;.S.0.;.S.S.{.S.0.5.s.F.0./ 0.s.5.-.M c v Z S.{.{.0.u.6X6X6X6X0X6X6Xr.0.S.{.0.0.z.S.0.) / S.",
"6X6X).).{.r.e z.{.5.x.y...q.S.{.{.6X6X{.5.:.S.{.{.{.6X{.6X6X6Xs.:.5.;.x.r.;.` ;.S.z.{.0.0.6XE.6X6X6X6X(.x.;.{.{.{.r.9.c ^ {.Y.S.",
"{.6X6X6X{.F q.S.{.).6X{.r.) 6X6X6X6X6X6X6X&.{.{.6X6X(.6X6X6X6X6X{.{.{.{.{.S.) v z.S.{.-.{.{.6XU.6X6X6X{.S.w.{.{.{.{.S.;.J.6X{.S.",
"{.6X6X6X:.w.z.S.6X6X6X6XS.0.6X).6XE.6X6X6X0.&.6X6X{.6X6XJ.J.6X6X6X{.{.{.S.{.S.Z ) z.x.&.U.6X6X6X{.{.6X{.;.9.{.S.6X{.{.;.u.6X{.{.",
"{.6X6X6X0.S.S.S.(.6X6X(.{.0.K.6X6X6Xp.{.6X{.&.&.{.{.6XJ.{.6X{.{.6X{.{.{.{.S.S.r.P 9.-.Z p.U.u.1.0.0.{.{.Z / 0.{.S.x.{.-.K.6X6X6X",
"6X6X).0Xu.J.{.{.6X).6X6XJ.;.J.6X{.6X6X6X6X{.{.=.-.6X{.6X6X{.6X6X6X6X6X{.{.S.{.r.r.{.{.p.6X6XK.6XJ.{.:.V 9.S.;.` {.{.S.Z u.6X6X{.",
"6X(.6X6X-.{.{.{.6X6X{.{.{.>.;.{.{.p.6X6X(.6X6X6Xu.5.7.6X).).0X6X6X6X6X6X{.{.S.Z S.{.{.{.6X6XE.6X{.{.6X:.` {.{.5./ 0.r.;.{.(.6X{.",
"6X{.{.5.P {.{.{.{.6X{.S.S.;./ g.{.6X(.6X6X6X6X6X6X(.A u.6X6X6X).6X6X6X6X{.{.s.^ {.x.S.6X6X6X6X6X{.{.6XK.0.{.S.{.{.S.^ ) {.6X{.{.",
"z.y.r.^ ` r.r.S.{.J.6X6X;.4.r.0.0.{.S.{.{.{.{.{.{.6XF.&.J.6X{.6X6X6X6X6X6X{.:.s.{.{.{.6X6XK.6X6X6X6X6X5.:.{.{.F.{.{.r.r.6X{.F.{.",
"' R b z.z.r.;.B ;.0.-.&.u.6X{.{.;.c -.-.0.{.{.{.S.x.S.;.S.{.{.{.6X6X6X6X(.{.;.9.S.{.6XK.6X6X6X6X{.6X).*.s.{.{.{.S.y.r.^ {.r.;.^ ",
"t.T 4.{.{.{.S.9.N : 3.6X6X).E.{.0.P {.0.:.u.J.) ^ ( N ( S.S.6X6X6X6X6X).6X{.( b z.{.(.6X6X6X6X{.z.S.5.8.6X{.S.S.R N t.e.m N +.y.",
"5 J S.6X(.U.{.z.y._ ` 6X).6XE.p.r.;.{.6X6X6X6XJ.z.z.9.' S.S.{.{.{.S.6X6X{.9.D w c z.{.6X6X{.6XS.y. .5.(.{.S.S.9.1 y.S.S.z.R w t ",
"3 W S.(.6X6X{.S.S.S.r.C (.{.{.S.>.r.{.(.6X6X6X6X6X{.S.Z S.S.S.z.y.z.{.6X0.( t.S.r.Z ..z.z.S.S.t.! > h m B ( ( f D S.{.6X6XF.{.Y.",
"} Q S.F.6XE.a.U.{.{.{.M 4.{.S.y.>.S.{.{.6X6X6X6X6XJ.6Xp.z ;.` e f N v ;.S.g.{.S.{.{._ f ] 9.) ] < * t.z.S.y.+.N 9.S.6X).6X6XE.0X",
"t.h S.{.6XL.E.E.6X{.S.r.r.S.y.9.w.{.6X6X6X6X6X{.{.{.{.0.% -.F.x._ S.0.6X6X6X6X6XF.{.{.Z N S.F.{.y.h S.6X6X6XS.9.s.6X6X).6X6X0XE.",
"y.m e.{.6XE.E.L.E.6XS.t.P y.K _ {.{.J.6X6X6X6X6X{.{.S.V S.6X6X{.` S.{.6X6X6X6X6X6X{.{.{.^ 0.(.6X_ _ 6X6X6X).{.r.u.6X6X6X).6X6XK.",
"z...4.{.{.E.E.E.6X{.S.t.$ t.B B z.S.{.6X6X6X6X6X6X{.{.4.S.{.{.{.) e.6X6X).6X6X6X{.S.{.{.4.;.{.S.^ S.6XK.6X6Xz.^ 5.6X{.{.6X6X6X{.",
"S.z.P S.{.6X6X6X6X6X{.9.] z.{.r.e { {.J.6X6X6X6X6X{.S.x.S.{.{.{.' _ {.6X6X6X6XE.6X6X{.{.6XC S.9.;.S.Y.6X6X{.z.t 0.(.{.{.6X6X6X{.",
"{.x.c ^ S.{.6X6X6X6XS.9.r.S.{.{.y.e r.{.6X0X6X6X6XS.x.z.S.{.{.z.m m x.{.6X6X6X6X6X).6X6X{.` t.' t.g.{.{.{.S.q.b {.6X{.{.6X6X6X6X",
"F.J.;.] F r.{.6XF.{.S.] r.{.6X6XS.S.;.;.{.{.{.{.S.{.^ P S.S.{.z.( t._ z.S.6X6X0X).6X6X{.S.B # b z.S.S.{.{.{.R ] {.6X{.6X6X6X6X6X",
"6Xp.;.z.^ B Z r.{.S.Z Z {.{.).6XU.{.S.z.] ] S.z.9.^ 0.r.;.0.S.r.y.S.J [ S.Y.6X6X6X6X6XS.y.N t.B ) 6X6X6X6X{.B 9.{.6X6X6XE.E.E.E.",
"{.{.) z.S.S.S.5.-.-.z -.S.{.6X6X6X6X{.z.w f f c ] S.{.{.{./ P P Y z.y.2 [ z.{.6X6XS.S.9.] z.S.r.P P (.{.S.S.m t.{.6X6XE.U.E.E.E.",
"{.{.;.S.S.x.{.{.6X{.{.x.^ {.6X{.6X{.S.B ] z.9.c S.{.S.{.{.S.y.c M K Q S g D S.z.y.q.T T z.y.S.S.y.] x ..z.y.p y.S.{.J.E.U.E.E.E.",
"6X{.0.0.S.{.6X6X6XK.6XS.0.r.z.{.u.:.;.x.S.S.S.r.0.S.{.{.z.S.y.9.S.e.o ~ y.R / ) B f g j S.{.{.{.S.S.z.0 h h 4 R y.{.6X6XU.E.6X6X",
"{.{.5.s.{.6XK.6X6XE.p.{.{.) e.r./ 6X{.S.{.y.S.r.: ..4.r.4./ 0.{.x.S.t._ S.6XK.6XS.z.z.q 0.{.6X6X{.{.{.4.# #.z.P 4.F.6X6XJ.6X6X).",
"S.` x {.6X6X6X6XE.E.6X{.S.S.t.e s.{.6X6X{.S.S.' ^ t.r.x.0.6X6X6X{.z.S.` {.6X6X).S.S.S.;.P 6X).6XE.K.6X{...+.z.{.4.;.5.6X{.{.).6X",
"^ ^ B S.6X6X6X6X6X6X6XE.{.6XS.-.{.6X6X6X6X{.S.] {.F.6X6X6X6X6X6X{.{.S.^ {.{.6X6X6X{.F.r.N z.6X).E.E.6X{.z.( {.6X{.{.;.| e.t.e.` ",
"S.S.) S.S.(.6X).6X6X6X6X6X6Xx.;.{.6X6Xi.6X6XY.;.x.{.6X6X6X6X6X{.F.{.S.^ S.{.6X6X6X(.{.+.O y.6X).6XE.6X6XS.^ {.6X{.z.S.y.a i _ ..",
"6X{.^ y.z.{.6X6X6X6X6X6X6X{.y.{ S.S.{.J.6X6XS.w.0.{.6X6X).).6X{.6X6X;.) g.{.0X).).).z.#.. p y.{.{.S.S.z.e.( {.{.g.S.{.S.S.K {.{.",
"6X6Xr.) z.y.r.{.{.{.6X6X6XS.( 7 S.{.{.{.{.F.{.z.) S.{.6X6X6X{.S.F.S.9 S.S.{.).6X).6Xz.w T t.K ..z.S.z.z.0 _ ;.) >.>.{.S.y.P F.6X",
"{.6X{.r.7 N +.t.z.z.Y.g.9.] ) ;.5.6X{.6X{.6X{.r.v 9.S.S.{.S.9.9.+.@ m y.y.S.6X).d.6Xz.w t.S.t.' ] 4._ 0 K S.{.{.w.B B S.+.] S.6X",
"6X(.6X{.9.# g R ) ;.;.0.w.y.z.S.-.6X6X(.6X6Xx.;.e Z 9.9.0.r.( '  .Q m z.S.{.6X6X6X6Xz.N x.{.z.z.S.z.z.e._ S.{.S.z.z.9.c 7 y.{.6X",
"6X6X6X(.{.] S.S.{.6X6X{.{.6X6X6Xr.r.{.{.{.x.4.P 0.x.{.{.{.{.{.{.z.S.R z.S.{.).6X6X(.y.N ^ 0.w.+.K N J J a y.{.{.S.S.S.-.( z.6X(.",
"6X6X6X6X{.` t.{.6X6X).6X6X6X(.{.9.q r.{.r.9.9.;.{.6X6X6X{.{.6X6X6XS.^ y.S.{.6X).).{...a r.{.{.S.z.t. .W 4 e.{.{.{.S.{.0.4.S.{.6X",
"{.{.S.S.y.w e.S.6X).).).{.{.S.] B R Z / ` z.S.{.6X6X6X6X6X6X6X6X6X6X^ z.{.6X).).6X4.` F.6X6X).6X{.S.S.z.~ N z.6X{.6X6X(.` S.{.{.",
"-.P Z B a f ' S.6X6X).6X{.r.` ] z.S.S.) r.S.S.{.6X6X6X6X6X6X6X6X(.{.+.b S.x.6X{.9.^ {.6X6X(.6X6X6XF.S.z.W ~ {.6X6X6Xs.6X6.x e.] ",
"0.{.F.S.t.T 1 z.{.(.6X6X0.-.s.6X{.{.z.z.0.{.6X6XK.6X6XJ.6X6X6X{.z.W 2 6 w ' ' r   ~ S.{.S.{.E.E.E.6X6X{.N +.{.6X).).6XF.{.` O T ",
"{.{.6X{.x.z.+.f y.z.z.Z ) {.6X).6X{.z.y.9.S.6X6X6XU.{.6X6X6X6X-.N T +.y.t.t.[ E T r 9.S.S.S.E.E.0X6X).x.b y.{.6X6X6X(.{.S.y.+.y.",
"6XU.{.S.{.S.S.t.j S & [ z.{.6X6X:.;.9.] e {.6X6X6X{.{.{.6X).u.=.6X6X{.p.{.{.S.S.z.S.` r.z.{.6X6XL.6X{./ f R -.u.6X6X6X).{.e._ y.",
"E.E.{.{.6X6XF.S.y.X E @.9.S.F.M s.0.9.t.;.Z {.6X(.6X{.{.{.0.5.6X6X0X6X6X6X6X6X{.(.6X{.9.S.{.(.6X6X{.w.^ t.y.S.u.p.6X6X6XS.4._ S.",
"a.a.6X6X).).).6Xx.) z.z.9.9.7 S.{.F.{.S.{.r.V 6X6X(.S.S.B ) S.{.{.{.6X).6X).{.{.6X6XS.4.F.6X6XU.6XU.4...z.S.{.:.=.{.6X6Xy.' ( z.",
"E.E.6X).).).).).(.;.S.z.S.9.N S.{.6X6X6Xx.{.F.A s.6X9.R N t.S.{.S.{.).).).6X{.{.).6X6X^ 6XK.E.E.6X{.` r.z.S.6XU.n {.6Xx.z.8 R S."
};
