/* XPM */
static char *_73dd4cec7404fc7efe668ad897ada59GxDPaRoxpntuJDdO[] = {
/* columns rows colors chars-per-pixel */
"64 64 256 2 ",
"   c white",
".  c #FFFFFE",
"X  c #FDFEFE",
"o  c #FBFDFD",
"O  c #F9FDFC",
"+  c #E1F1F3",
"@  c #F5FAFB",
"#  c #FEFFFE",
"$  c #FFFEFE",
"%  c #E6F3F5",
"&  c #EBF5F6",
"*  c #E4F2F4",
"=  c #F7FCFB",
"-  c #EFF8F8",
";  c #E8F4F6",
":  c #F1F9F9",
">  c #EDF7F7",
",  c #DBEEF1",
"<  c #CCE7ED",
"1  c #C6E4EC",
"2  c #DDEFF2",
"3  c #FEFDFC",
"4  c #D2EAF0",
"5  c #F3F9FA",
"6  c #DEF0F3",
"7  c #C3E3EC",
"8  c #D9EDF1",
"9  c #D7ECF1",
"0  c #D4EBF1",
"q  c #154A2A",
"w  c #B4DCE7",
"e  c #CFE8EE",
"r  c #F3FBFB",
"t  c #D2E9EE",
"y  c #BCE0E9",
"u  c #256235",
"i  c #134528",
"p  c #103D21",
"a  c #E6F2F4",
"s  c #FBFBFB",
"d  c #ADD9E6",
"f  c #19532F",
"g  c #B9DEE8",
"h  c #347643",
"j  c #114226",
"k  c #317A42",
"l  c #3E8B4D",
"z  c #C0E2EB",
"x  c #256739",
"c  c #215D32",
"v  c #519651",
"b  c #1A5831",
"n  c #0A381E",
"m  c #A8D6E3",
"M  c #61B063",
"N  c #184F2C",
"B  c #8AA79A",
"V  c #F0F4F1",
"C  c #5DAC5F",
"Z  c #559B54",
"A  c #95CFE1",
"S  c #F5F8F7",
"D  c #294422",
"F  c #296C3C",
"G  c #4B9F58",
"H  c #D2E2D9",
"J  c #A0D3E3",
"K  c #D5EAEE",
"L  c #E6EBE8",
"P  c #CAE6ED",
"I  c #398648",
"U  c #4F5234",
"Y  c #43914F",
"T  c #378147",
"R  c #479953",
"E  c #EDEFEC",
"W  c #1F543C",
"Q  c #4A9C55",
"!  c #2C7342",
"~  c #59210D",
"^  c #31703B",
"/  c #4B1B09",
"(  c #6BBD69",
")  c #6C803F",
"_  c #587D6B",
"`  c #2A5A3E",
"'  c #98AEA2",
"]  c #B6C5BD",
"[  c #52A95C",
"{  c #58A55A",
"}  c #334D2B",
"|  c #8AB794",
" . c #3B7D46",
".. c #FAF6F0",
"X. c #FBFAF9",
"o. c #7B9B8C",
"O. c #29503A",
"+. c #366451",
"@. c #BACEBF",
"#. c #4DA45B",
"$. c #4A6034",
"%. c #682418",
"&. c #F1A732",
"*. c #DCE2DF",
"=. c #99502E",
"-. c #174E36",
";. c #5F8676",
":. c #DFE7E2",
">. c #63652D",
",. c #A71728",
"<. c #864028",
"1. c #C5DAD3",
"2. c #508D46",
"3. c #68AD5F",
"4. c #76B068",
"5. c #76341B",
"6. c #5A2D21",
"7. c #D4895A",
"8. c #ECD1B1",
"9. c #6C8E81",
"0. c #3C6B52",
"q. c #CBD6CC",
"w. c #38462C",
"e. c #9EB7A8",
"r. c #44705E",
"t. c #37633B",
"y. c #4C7041",
"u. c #246040",
"i. c #882025",
"p. c #609A5A",
"a. c #71AA5D",
"s. c #62A558",
"d. c #4A8650",
"f. c #326B36",
"g. c #3B1D0A",
"h. c #9EC2C0",
"j. c #8D9E94",
"k. c #26552F",
"l. c #B0CAC5",
"z. c #20371E",
"x. c #67713C",
"c. c #ABB9B3",
"v. c #478241",
"b. c #DEECED",
"n. c #4C7637",
"m. c #254A28",
"M. c #6E4B2A",
"N. c #C4D0CA",
"B. c #4E9053",
"V. c #739B50",
"C. c #7DA98A",
"Z. c #7FB679",
"A. c #675B2E",
"S. c #547B47",
"D. c #8AAC57",
"F. c #75BA6C",
"G. c #868C47",
"H. c #6D9D77",
"J. c #DBDBD7",
"K. c #CAC2BD",
"L. c #F7E7CB",
"P. c #F5D996",
"I. c #E49626",
"U. c #F8EFE0",
"Y. c #CF8152",
"T. c #F6CD55",
"R. c #F0DFD6",
"E. c #EC8E16",
"W. c #663D2E",
"Q. c #E5831E",
"!. c #3B829C",
"~. c #9EBBB4",
"^. c #B17755",
"/. c #452A1D",
"(. c #1F6D8F",
"). c #1D71AB",
"_. c #66B466",
"`. c #8EB0AB",
"'. c #BAD2D1",
"]. c #699579",
"[. c #A8C2B3",
"{. c #75A177",
"}. c #2E624A",
"|. c #886D39",
" X c #C1132A",
".X c #E35415",
"XX c #568649",
"oX c #7A5E37",
"OX c #9BC49C",
"+X c #B13410",
"@X c #87C7DB",
"#X c #B5663D",
"$X c #EED5CC",
"%X c #BE6E42",
"&X c #B9A19B",
"*X c #F1B53F",
"=X c #CCAEA7",
"-X c #E14056",
";X c #397355",
":X c #984226",
">X c #EE9C45",
",X c #A8BEA7",
"<X c #494624",
"1X c #8DCE7A",
"2X c #B65617",
"3X c #536A3A",
"4X c #912F2F",
"5X c #E0898E",
"6X c #AB856F",
"7X c #7CC36F",
"8X c #A5CCAA",
"9X c #967E2D",
"0X c #CD933A",
"qX c #82B28E",
"wX c #E6BFB4",
"eX c #DA9565",
"rX c #F3E4AA",
"tX c #F1BE6B",
"yX c #2B2C13",
"uX c #937A64",
"iX c #9B5C35",
"pX c #DEA398",
"aX c #E0AB2C",
"sX c #E7C592",
"dX c #C5811B",
"fX c #145461",
"gX c #D5BC8D",
"hX c #E7AF70",
"jX c #523C20",
"kX c #F1B76F",
"lX c #EF7925",
"zX c #C58973",
"xX c #7A675B",
"cX c #54402F",
"vX c #B9454A",
"bX c #708C5E",
"nX c #AB9B45",
"mX c #DB2038",
"MX c #C02B1D",
"NX c #9D6661",
"BX c #E24865",
"VX c #919E4C",
"CX c #6DAA74",
"ZX c #83C978",
"AX c #CA7C39",
"SX c #40A7E8",
"DX c #D8D8C2",
"FX c #DEB192",
"GX c #CA5159",
"HX c #C6A966",
"JX c #D27169",
"KX c #A76427",
"LX c #6FC183",
"PX c #DC7188",
"IX c #55A4CD",
"UX c #94C36D",
/* pixels */
": X           X , +       . 8 @               @ y , % o P @                       . % 0 .         X 1 :       X z * 8 w J A J P ",
"e , @ .   o 2 7 w 9 .       6 :               X 7 8 a > 8 O   U.L.              . > 1 @     .     X g >       . w A < % 5 @ & 9 ",
"O > e 8 X ; e ; = 9 t > O . + @               # y * = 6 1 =   rXtX3     . . X - 0 m m & * 0 e 6 & 6 A ;       # d P .           ",
"    5 d y -       O 1 P 9 0 < o               o 7 @   # * 2 ..T.&.L.  X > , P d J 6 : 9 e , 1 w d g d ,       @ d 5             ",
"      + d O         @ , = 6 7 #               @ < o $ U.L.rXP.T.&.tXP.8.DX& - m P X   . .     X O - 7 y X     ; g #             ",
"      : < X         o 9 O @ t #               5 *     L.*X*XT.T.&.&.I.I.8.X   z %                   O g &     * <               ",
"      5 9 #       . & 9 X o K o               o & o     L.&.&.aXI.Q.Q.8.    o 7 @                     , t     & ,               ",
"      X , O     . : 8 O     9 6 .             . a * .     P.*XE.Q.E.kX#     = P o                     : 7 X   @ 6               ",
"      X g 1 5 o - 1 >       = P % .             @ t o   . P.I.dXdXE.>X..    = t X                     O y : . = 9 X             ",
"    . 2 y 1 , * m 9 .         @ P 2 X .         O K o   X.sXsX{.y.gXhXU.    = K X                     X g >   X P >             ",
"  . & 4 O     O < %             5 w z ; @ o o X * 0 .   3 ..q.C F B ..X.  . % 9                     O 6 A 9 @ X 7 z o           ",
"@ % t =         @ 9 s             5 z d t 2 ; ; d <       :.4.Z F ` ] # > * 7 t .           X > 8 < z g A J g t z w P % - = = O ",
"1 7 K .         # & 8 6 > O #       2 1 X X X X * z = # s 8X_.v n.f _ H % @ = 1 + @ o X # X + P 2 ; 5 o 1 2 = O o X @ - - : > , ",
"o o 2 : .         X - 0 7 < & #     : , X         1 m m OX3.C Z 9Xy.` e.U.3   < + a + * * 6 + o       X 2 = .               # o ",
"  . ; 1 =               . @ t 5     # 6 >         9 1.| p.x.C v f.l  .y.] S @ 0 o   o o @ =           o > X                     ",
"  . . 8 % .               X y 2 .     @ 2 o . . o K H OXF.V.G T F x ^ N ` ;.N.e =                     O &                       ",
"    . & , .             # + P K 6 @ X . 2 & . . & @.{.Z ( { ! $.3XT x f _ @.S 6 -                     O + .                     ",
"    . : 9 X             @ , o O % 8 t K t 5   = b.@.Z.M T c } NXvXU Y l ;Xe.J.& 6 #                   = 1 6 o                   ",
"    X 6 g =             & -       X @ ; 8 # 3 H OXp.l u b x M.BXmX%.q x u f _ `.l.% O                 @ < K e O                 ",
"# : e e 8 K = .         % @           X & # $ 1.`.' o. .) Z ) ,.,.6.p n O._ ;.o.*.: * o               o * s 9 , #               ",
"2 , & X # & < % .     @ P @ > 2 & X   # 2 : o 4 N.R.8XD.0XV.[ } z.j q } U e.S > X   > a X             # % @ o t >             = ",
"& o         ; J 2 .   6 g t K 8 1 , 6 6 z g & 8 zX6XZXa.) 2.^ c b u c uXiXO.9.] E X   a S               & >   : K o       O 2 P ",
"          . + w 7 + & y A 0 X   X @ * & % t V :.,Xs.G  .k u x T I Q l $.<Xq r.`.E     > >               > >     ; a @ @ > 8 2 @ ",
"          & y @ = & 5 - 4 %             > t H | R k f.x.u f.XXC 2.v s.F b N W o.E     ; -               : & .   X 5 * y e = .   ",
"        o K &           > +             S l.| B.h c ) AXA.v V.D.nXS.I u q >.D q ;.l.*.b.@               = - .       . 6 >       ",
"        > &             O &             s 1.h.N.qXn.AX.X+Xs.( VXE.>.f j xXJXi.m.u.+.' t = #   #       . & 2 X       # ; @ .     ",
"      X * o             o % X             # 1.C.l v =.+XoX3.#.2.>.m.i z.vX-X XU B 1.1 P & = : > & & : @ e 8 > X     X , @       ",
"      o * X             X 6 @           L [.H.H.CXF.4.p.C v ^ l M T F k.%.,.i.q u.' L S X X X o O = & 1 9 X + , = . o P @       ",
"      = 2 X             . % *           S :.H OXVXUXZX3.R c i k LX#.Q k ` w.m.0.9.j.L                 % 6   o % 2 & > 9 X       ",
"      % 4 #             . + e O .         . H Z.G.v f.c b +.W c _._.Q x f b f t.,XO $XwX              : &   . . o 5 9 2         ",
"s = 5 P e % > = # . . = + + > & - X o = V @.4.|.<.p p q }.IX).-.h v ^ w.z.p i q W B =XpX              * %           - *     # o ",
"9 P y - O 5 + z K , , , & X   X 2 y H | ].h S.cX/.D } t.$.).(.u.f c q /./.p z.p j i r.' :.          X , -       X : ; 9 @ & 8 t ",
"= 1 + . .   X + 7 J 9 X         % < S :.] c.j.F t.NX<.t.h h k T T x N i i } 9XA.p r.o.c.E         . & -       . < < - + 7 z , : ",
"J z X         X - 0 K @ .       & %   b.V L CXI oXBX XA.G G Q { { R h c $.HX&.2XD r.N.          X 2 2 : = X # % m -   . 5 P w w ",
"A <               . > 1 =       + & S '.[.H.k ! $.,.i.S.Z s.( M 2.[ G I x.>XlX.X<Xj W ;.' @.V @ P A w y P t e w 1         . = > ",
"< 1 .               . 1 %     = * V q.H. .F ^ Y R d.d.Z a.G.3.^ |.) _.[ S.2X.X2XD q -.+._ ~.b.8 J @X* o o @ ; 7 6               ",
"% g o                 % ;   o * E hXR.L q.C.Z G.a.M 4.F.7Xp.u w.GX4Xa.( 2.n.U } q A.A.9.w = # . ; w X     .   ; >               ",
"O g >                 & 7 5 P t ..8.U.H Z.Q 3.G.4.D.D.{ Y c j D i.%.t.M p.Z h b u >.U O.r.' c.L 8 9           & -               ",
"  8 %                 % m + P 1 1.e.{.XX3XZ F.( 3.0XKXc N D } x k.j i u  .v R v.>.x u.W -.}.B V t 5         # t %               ",
"  : P =               ; 8   . ; m B {.bXoXa.C l ^ M.jXj i $.) l T u N j p f I n.$.u x u.u.].l.'.~.E         O w ;               ",
"  @ g e s             > >   E @.8X| CXv v.! b i p p q b x I Q G Z XXu q p n j q q q N b b f b }.o.S         % y o               ",
"  > 9 9 P @ X       . 6 -   V | d.h F u f i p q O.W.t.F l M ( [ [ Q f.y.k.p n n n D n n ` +._ `.V           4 9                 ",
"  @ 2 O 4 1 e ; @ @ e < o     V &XxXB B O.p q !.!.+.^  .{ 7XM Y C C ! t.;X!.fXj p oX5.U B @.gX'.+           7 %                 ",
"  o 2 o . o 5 & 6 K g 4 5 X   X.PX5XH bXm.b x (.(.! h Z D.v.k b Q M F q !.SX).-.U 5X-X4Xc.8.Q.8.1 4 - .   X g >                 ",
"  # 6 5         X X X > K E s 3 q.B S.^.M.f.l l ! ! 2.nX0XM.q q x l N j fX).(.f W.-X Xi.O.' $X3 X 6 w 8 . @ d -                 ",
"  . % - .             3 H b.X.L qXd.^.5XMX$.C { Y R G.kX>X+Xw.u f f p p N W -.b w.,.,.6.i -.;.] J.[.] m g y J e X               ",
"  . 6 - .             S ,XqX| CXv v.:XmX X>.[ s.{ #.9XlX.XMXU l k c m.c c u x F k t.w.p i q i q +.o.:.t @X+ @ e 0 s .           ",
"5 , y o               # *.qXB. .h ^ U i.<.XXv |.) G v :X+X<.h G Y y.=.U k ! k I l l 3XcXj q } D +.B ' o.'.* . X a 2 > X     . # ",
"< 4 7                     s e.d.) ) R B.Z C V.4XA.C #.d.y. .R #.#.x.,.W.I R Y 2.n.I x.W.N i M.jXj W _ @.@ 9 X     = + 9 * ; % K ",
"o = 0 X             X.V = > 1.Z.s.4.( ( F.C Y  .a.C l C M [ #.C [ B.<X} h Y { V.v.l Q Y h f j p +.] s   o 4 o       # & g m 0 + ",
". O K 5             S e.H.p.v G 3._.Q T  .F k F.M k h 1X( G { 1XM #.T q N c ) aX>.f F T k ! c -.-.9.*.X & t = o       . 5 1 X   ",
"  # - 2 @ . .         L B h k I T x f i j q B.Z u W v 1XG ! h 7XR [ G u n n D |.D n n i f c c b f q }.o.h.1 8 2 + & X # r < X   ",
"    . ; d y 6 - @ = @ :.[.C.;Xu 0.;.O.j W ].I b 0.~.Z.v u z.D Y x k G k i O.p i n n i p j 0.` ` r.` r.;.h.S o O > < P @ 2 9 #   ",
"      . + A w t , 2 ; > : L ] N.H *.B ' ] C.].~.w h.| _ yXg.g.k.D yXk.u 0.] j.c.9._ j.B 9.q.*.q.L :.E * 0         X 2 g d @     ",
"        # 2 r # # # .           & ;     s E + P 9 V X &X/ ~ %./.g./ g.g.j.o X   $ X.E 7 9 a - * e 7 7 g w X           8 t       ",
"        X 4 @                   ; d & # - % 6 % O     K.6.5.5.%./ / / / K.        # + w % o X o @ & , 1 J %           ; 6       ",
"  X = o @ m ;               o + P 1 < t , =           J.iX=.:X5.~ ~ / 6.J.      # + 9 = .               < 1           O 8 @     ",
"2 e z P w g K           . = 8 2 =   X % *             R.^.%X#X=.5.%.~ 6.J.    X 8 K o                   4 <           . 6 w 0 + ",
"; : = = % 1 m : .     X > 2 - .       = *             R.7.Y.Y.#X<.%.~ 6.h.4 4 d @Xe . .               X 1 *           # X 0 A 1 ",
"          o 8 1 :   > t , @     .     = 6 #         . $XeX7.7.%X=.5.~ ~ K.r + e z w * #               5 w : X .           5 K X ",
"            . % 7 y J 8 X     5 % + + 4 w 5           wXeX7.7.%X=.<.~ / &X        = , & .           . e w t 8 5           & 8   ",
"              . ; A P * & o & e % ; ; > + t 5 #     s FX7.Y.Y.#X=.<.~ / uXX         o ; o           5 < = = = ; @         6 4   ",
"                @ K X X & K d -           & < 5 .   X E K.=XpXzX^.6X6X=X*.          # + =           6 +       & 6         4 t   ",
"                5 *     $ > z O             & e - . ; e y - 3 ....s                 o 4 =           9 >       5 1 X     O m e   "
};
