/* XPM */
static char *d5387eb5fee34f20cfd8b5d42fa3e6faSkEWQMKqB82Vmv34[] = {
/* columns rows colors chars-per-pixel */
"64 64 108 2 ",
"   c #411617",
".  c #4A1618",
"X  c #451618",
"o  c #521617",
"O  c #431617",
"+  c #471618",
"@  c #4C1617",
"#  c #4A1316",
"$  c #501517",
"%  c #471718",
"&  c #3D1216",
"*  c #4E1517",
"=  c #451416",
"-  c #471216",
";  c #411417",
":  c #3E1617",
">  c #7A4321",
",  c #421116",
"<  c #390F15",
"1  c #621F18",
"2  c #8B4823",
"3  c #471417",
"4  c #491417",
"5  c #743C20",
"6  c #541617",
"7  c #1D5023",
"8  c #6A2B1A",
"9  c #391416",
"0  c #4C1417",
"q  c #17321D",
"w  c #14371F",
"e  c #521718",
"r  c #222319",
"t  c #7A401E",
"y  c #173F20",
"u  c #194522",
"i  c #5D1013",
"p  c #4F1717",
"a  c #154221",
"s  c #143C20",
"d  c #321616",
"f  c #381717",
"g  c #1C271A",
"h  c #1D4A20",
"j  c #4F1216",
"k  c #182C1B",
"l  c #291E18",
"z  c #1D4D23",
"x  c #2F1A17",
"c  c #5A2019",
"v  c #1B5322",
"b  c #4B1015",
"n  c #322119",
"m  c #561715",
"M  c #20371D",
"N  c #215622",
"B  c #194822",
"V  c #262E1B",
"C  c #5B1D18",
"Z  c #271916",
"A  c #541E18",
"S  c #20421F",
"D  c #2F0F14",
"F  c #551114",
"G  c #174C22",
"H  c #235B24",
"J  c #2C271C",
"K  c #5D1C17",
"L  c #91190B",
"P  c #A31A0B",
"I  c #302F22",
"U  c #642B1B",
"Y  c #CC2008",
"T  c #24424D",
"R  c #681514",
"E  c #BC1C09",
"W  c #316C22",
"Q  c #285C66",
"!  c #975225",
"~  c #274F20",
"^  c #64502C",
"/  c #7D170E",
"(  c #5A2916",
")  c #296975",
"_  c #1D4F48",
"`  c #394E25",
"'  c #414523",
"]  c #583B24",
"[  c #501E18",
"{  c #E57B09",
"}  c #5B1C18",
"|  c #411C16",
" . c #D7540C",
".. c #6A3D20",
"X. c #3D3A1F",
"o. c #6D683B",
"O. c #462419",
"+. c #743616",
"@. c #D76B0B",
"#. c #B69C86",
"$. c #8B7017",
"%. c #DCC7B0",
"&. c #978573",
"*. c #3D7E98",
"=. c #43829A",
"-. c #4A8425",
";. c #9C3F11",
":. c #B33E0F",
/* pixels */
": . @ @ ; ; 4 4 4 ; ; 4 4 0 ; ; 4 3 4 = ; 4 3 4 3 ; 4 4 4 3 ; 4 3 4 3 ; 4 3 3 3 ; 3 4 4 3 ; 4 3 4 3 ; 4 4 3 3 ; 4 4 4 4 X . @ f ",
"* R F b A A K C K [ A K C K A A K C K A A K } K C A K C C C [ K K C C A K C K C [ C C } C [ K C C C [ C } K } [ C } } K , F R . ",
"% F % > 2 2 2 2 2 2 2 2 2 2 2 2 2 2 2 2 2 2 2 2 2 2 2 2 2 2 2 2 2 2 2 2 2 2 2 2 2 2 2 2 2 2 2 2 2 2 2 2 2 2 2 2 2 2 2 2 2 O.j X ",
"  + 2 +.9 = ; : 3 3 3 = 3 = = = = 3 = = = 3 3 = = = = = 3 3 = = = = = = = = 3 = = = 3 3 3 = = 3 = 3 = = = 3 3 3 : f 3 & 5 ! =   ",
"0 1 > D % ; ( +., p . + X + + + + X + + + + X + + + + X X + + + X X + + + X X + + + + X + + + + + + + + + % % # J V # % D > 1 # ",
"3 1 t , b < ! @.< - # e X e e e $   o e e e X @ e e o . + e e 6 * X e e e . X 6 e o $   e e e 6 X . e e 6 3 b , ~ B , F - t 1 - ",
"& c t A t +.@.{ t t 8 9 = * . . + : 4 4 4 0   X . 4 . X X j -   f & 0 . . X   . 4 4 .   . . + .   % * # & J I I H B V I Z t c & ",
"4 1 5 [  .{ { { { @.] y q x 9 3 * @ p % O p p p @ O * b f n M h h S J d - 0 @ p   . p p p X X $ 0 3 f J y q u H H 7 v y Z t 1 3 ",
"# 1 > D p :.@.{  .( w 7 N ~ M J f = 0 - = j j # 0 ; n V h N N G G 7 N N V n ; 0 ; # j # j # ; | J M h z N y g y H N w l < > 1 # ",
"3 1 > - 9 !  . .{ O.g w ! ` v v z S q M V V V V M u v H _ B q ..I q h W v H B M M V V V M M S h v N 7 Q s g r 7 a a S ; , > 1 - ",
"& A > < 8  .+.(  .;.D l r w s u v ~ ^ N N v v H N 7 u _ T g Z ( | Z k q u z v N H N H v N ^ N 7 z a s T r D V y g g y J < > c & ",
"- 1 > < c I w s I ( X 0 9 f r q s y ] S u H H a t X.w g d O . ; ; : ; d g w ' 2 u B h W B ] M w q g x < O O r q w w g l & > 1 - ",
"# 1 > , x w u u s Z 4 % : 3 9 d Z r g k g M y q n r Z d : . . @ + : + X 9 Z r n k q k ~ k g r Z d & 3 : X + d s 7 h w f & > 1 # ",
"# 1 > & n s h z u l 0 @ @ p   + @ 3 0 ; : , & O : 9 @ @ @ @   . @ . p O % p = : 9 ; = & 3 ; ; p @ p . : @ 0 l u 7 7 y n , > 1 - ",
"; A > , x s a Q _ l 4 @ * *   + @ . * + O * @ . .   @ * p *   . * 0 * X + * . @   . @ @ * X X * 0 * .   0 0 l y H N q f , > c ; ",
"= c > & l s h B s r + %   @ . . + : @ . . @   X @ . @   9 @ . . %   @ O % %   @ . . .   . . . @   X @ . @ X r y W H s r & > 1 = ",
"# 1 > , l y h z y l * @ O o $ p 0   * * * $   3 * p * p K % + F j ; @ 1 m + X $ p * *   @ * * 0 X . $ p p 4 r u h z y l , > 1 # ",
"# 1 > & x w B h s l . . . O : % . % @ X O @ % . % ; 9 L Y P | k k n P Y P & . .   % . . . X d M l 4 %   @ X l y z h s x & > 1 # ",
"; c > - f w B h s l $ p 4 O.| 4 $ $ o . X o $ o j n g L Y E P ( ( L E E P l n F X @ o o o # V W M ; p   $ * r s 7 h w x , > c ; ",
"; c > & f k H W q x % O Z X.I 9 %   . % % .   : V B u L Y E P Y Y P E Y P M u V f + % : % , M W a x . X % ; Z s u B q x < > c ; ",
"# 1 > - 4 k y y k : e & S H B J *   o o o o = J 7 ^ S / E L R / / / L P L M Q 7 J * $   o   h H a n $ o o + f k y y k = , > 1 # ",
"# 1 > & O r s s Z 9 . l B ~ z q ; % . O   . x B N ..S J m o / m @ L % m | a Q z u x + % 3 g z 7 a q :   + % ; l s s l X & > 1 # ",
"& A > - . 9 g g & : o f q y s r 0 o o . + # M 7 v G z a J P E p % E P J y 7 h N B w O 6 * : Z k l f + X o o o = r k : e - > c & ",
"= c > & % X f d %   % ; Z r l 9 O : + X ; J u _ 7 7 B k / Y P f d L Y L k u 7 ~ $.h g ; % X   9 9 X % O .     % f f : O & > 1 = ",
"# 1 > - m 6 @ X 6 o o @ O * 0 p *   o e j g 7 ) 7 z w Z m / R     K L m x q z ~ ^ z k & e o o 6 X @ 6 o 6 . + 6 o o X . - > 1 # ",
"# 1 > & % O X   X   + X   %   X +   + X f M v z 7 u r & f f : X   f d d 9 l y z G 7 M f X O O +   X X   +     X   X O X & > 1 # ",
"; c > - . . 6 o o O o o o 6 X @ 6 6 o * d y 7 v v a l 3 . 6 o o @   o e o x s N N z w : 6 + X 6 e o * O o $ o o O $ o 6 - > c ; ",
"; c > & X X X O +   + X O +   X + O + X x s 7 ^ ` s d   O + O X X   X   X x q W W a s x 3 O X ; ; % X   + X X +   X X % & > c = ",
"# 1 > - 6 o . X 6 o o @ X o o 6 p   o 6 ; M v > ' s d $ o o O $ o o o O @ f s h 7 z y f $ * , T J b e e o + . 6 o 6 X . - > 1 # ",
"# 1 > & + X X   + X + X   4 X + +   + + f w z v v s x ; X +   X X X +   X f y H h B s x - I Q Q _ T & X +     + X +   X & > 1 # ",
"; A > - . + o o $   $ o o o X . o o $ . & g B 7 G 7 q & % e e o @ O e e # k 7 7 ) z q ; 0 I Q =.) T 9 O o o o o   * e e - > c ; ",
"; c > & X O 3 X +   + + X .   X + X 3 X & r a ~ o.z y l ; . X + X   . 3 l u z z Q u g : = I Q *.Q T 9   . + + 4   + + . & > c ; ",
"# 1 > , e o . X e p e . O e $ p p @ p p p f w ` $.z 7 u l : : * $ . ; l B v v 7 h s x   4 I T Q T T ; p $ X + o p e X % - > 1 # ",
"# 1 > & @ . X ; . 3 4 +   0 4 4 4 4 . 4 + & g a a 7 z 7 h M V n n J s B G ^ ' B u k 9 : + ; D T l < + 4 . ; X . 4 0 ; X , > 1 # ",
"; c > , % X p @ . : @ @ @ p   + p @ * X   @ : g u h _ ) z N v 7 7 N N ~ 7 ' X.a k d + @ @ O   = . p .   @ @ @ @ : . @ p , > c ; ",
"; c > , + X * 0 0   0 0 0 *   3 * 0 * 3 O * 0 d k u B z 7 G ^ ` N B $.o.u G a q Z = . @ * X ; @ @ 0 .   0 0 0 0   . 0 * , > c ; ",
"0 1 > , @ @ +   @ . @ +   @ . @ . : @ . . @   ; d k y h z G ] ' 7 z ~ h u y k x = . .   . . . @   + @ . @ X X @ . @ O % , > 1 # ",
"# 1 > , $ $ 4 X $ * $ 0 O $ * * 0   * * p $ O + . f r w y u a B u u y y q r d = @ * *   * * p $   . $ * $ 3 3 $ * $ X . - > 1 # ",
"; c > & X O . . . : . . % .   X . % . X   . % % % : X f r g k k q g r r d : % .   % . % .     . % % % : . % % + : + % . & > 1 3 ",
"; c > - . 3 o o $ O $ o $ o X . o o o . X o o o *   o $ = ; 9 9 9 & ; & 3 $ o o X @ o o o 4 + $ o $ @ O o o $ $ O * $ o - > c - ",
"# 1 > & % % X   % X % X   + % % X : + % % +   X % X %     % X % X : % X % O   % % % + : + X X + : O % X +     . X %   X & > 1 3 ",
"# 1 > , o o 0 X o o o * X o o o p   o o o o X @ o o o 4 + 6 o o @ X o o o @ X 6 o o $ O $ o $ o X @ o o o + 3 o o o 3 . - > 1 # ",
"; c > &     X O X : X X   + :   X   X     X   X X : X O O X : X X O X   O X   X   O X   +     X   X O : X   O X : X O X & > c ; ",
"; c > - . . m 6 o O o o o 6 X @ 6 o 6 @ + 6 o o $   o o o o   p o o 6 X @ 6 o o + * 6 o 6 . + 6 o 6 p O o o o o X o o m - > c ; ",
"0 1 > & X X ; : +   + X ; +   X X ; + X   +   X X   + O   +   X X ; +   X X ; +   X X   + O O + ; X X   + ; ; X 9 ;   X & > 1 # ",
"# 1 > - m # V M 4 6 o * X 6 o o $ O o o o o X @ 6 o 6 . + 6 o 6 @ X 6 o 6 @ X 6 o o o O o o o 6 X @ 6 o 6 + . # M V & . # > 1 # ",
"3 c t & = r h h n = X X   + O X X : + X O +   X + O 3 O   + O X X   + O X X   + O X X : + X X +   X X ; X   ; n z B r ; & > 1 - ",
"& A t - O q 7 h y d $ e o 6 X @ o o o . X 6 o o p   o o o o O j 6 e o X @ 6 o o X @ o o 6 . X o o o @   e o f S h h k 3 - > A & ",
"# 1 > & f w h u u M f - % .   X + X . X   4 X + + : 4 + X 0 & J n = .   X + X .   X + X . X O 4 X 3 X   # : M B a B w f & > 1 - ",
"# 1 t , n y B s w h u r , e e e @   o o o o O . e $ e + 3 = V 7 z k f $ e . O e e e p   $ o $ o   . o - x S z w S ' s l , > 1 # ",
"3 1 > < l a 2 X.k _ ) h M : # 0 .   . . + .   X . . 0 = x M z a B z s f # - X . + . . : . . + . ; - f V u ) u k ] 5 s l < > 1 - ",
"& A t & r y X.S r r a u z u V n X # * 4 X o $ $ # 9 n q G z B q q B ` u M J X 0 ; . o p $ 3 ; 3 n V h 7 u _ g r a y y g < > A & ",
"3 1 > & l y B a g d r q y a w y S V J n f : | n V S h ` S y q Z Z V ! S G 7 S V n n f f n n V S h w u a q Z D g u h y r < > 1 3 ",
"4 1 > & J y S s r O ; d g q #.o.w 7 z 7 u 7 7 N H v u 2 ] g f 3 ; d l w y B N v G 7 h h 7 v v a ` &.M g d : : r a B y g < > 1 # ",
"- 1 > , x w s w l 4 + O D O.#.%.o.w B B ) 7 a W W w w g Z 9 X @ X 9 9 Z k w s ' > u z B a -.7 ^ %.#.n 9 +   ; l s y w x & > 1 - ",
"& A t & : k y q f   . @ : i L ! ^ g k q T w q k r r x f X . : . @ % .   9 x r I O.q q q q M r ] ! L F d p . . f q y k f & > A & ",
"3 1 > , 3 Z w g =   @ 0 X L Y i D ; 9 d Z x d 9 & 9 3 0 @ *   @ * * * O + 4 = 9 D d f d d d ; D F E L   * p @ 3 r w Z 3 , > 1 3 ",
"# 1 t & . 3 x d . % @ O : P Y / f : . . . @   X . . . O O . . . X   . . . X   @ . @ . : . . % : / Y L : .     . : x 9   & > 1 # ",
"# 1 2 & m e . X 6 e e p f p P E p : 6 e e 6 X @ 6 e 6 . . 6 e 6 p % 6 e 6 @ % 6 e e e X e e @ m E P : % m % . e p $ % p , > 1 # ",
"  = 2 U D < < < < < < < < D & j D < < < < < < < < < < < < < < < < < < < < < < < < < < < < < < D b < D < < < < < < < < D ( ! ;   ",
"% F | ! t 5 5 5 5 5 5 5 5 5 ....5 5 5 5 5 5 5 5 5 5 5 5 5 5 5 5 5 5 5 5 5 5 5 5 5 5 5 5 5 5 5 5 ..5 5 5 5 5 5 5 5 5 5 5 ! ( F @ ",
"@ R j % 8 U 8 8 8 U U 8 8 8 8 8 8 8 8 8 U 8 8 8 8 U 8 8 8 8 U 8 8 8 8 U 8 8 8 8 U 8 8 8 8 U 8 8 8 8 U 8 8 8 8 U 8 8 8 8 | b R @ ",
". R R R b F i i i j F i i i F j i i i F j i i i F b i i i F - i i i i b i i i i b i i i i b i i i i b i i i i b i i i i $ R R . ",
"f ; ;   :   O O O :   O O O : : O   O   : O   O   :     O   : O O O   : O       :     O   : O     O :     O   :   O   O f ; ; f "
};
