/* XPM */
static char *_9d31ca270bd4a7cba1ddcddfba08afdlANAmaBAlW138NRh[] = {
/* columns rows colors chars-per-pixel */
"64 64 240 2 ",
"   c #2D1C1D",
".  c #271E19",
"X  c #351D1E",
"o  c #3C1D1E",
"O  c #36141A",
"+  c #1C2D1C",
"@  c #2C221F",
"#  c #23241F",
"$  c #33211E",
"%  c #3C221F",
"&  c #372A1F",
"*  c #30341F",
"=  c #2F1E20",
"-  c #221E21",
";  c #341E20",
":  c #3C1E20",
">  c #3C1420",
",  c #1B2B22",
"<  c #1F2622",
"1  c #133424",
"2  c #1C3424",
"3  c #153A26",
"4  c #1C3B25",
"5  c #163D28",
"6  c #1B3C29",
"7  c #0B3626",
"8  c #242520",
"9  c #2B2420",
"0  c #242C22",
"q  c #2C2C21",
"w  c #362121",
"e  c #3B2021",
"r  c #322C21",
"t  c #3D2C22",
"y  c #302C2D",
"u  c #223423",
"i  c #2C3322",
"p  c #213B24",
"a  c #2A3B24",
"s  c #2B3B28",
"d  c #333222",
"f  c #3B3323",
"g  c #383923",
"h  c #31323A",
"j  c #441D1E",
"k  c #4B1D1E",
"l  c #461519",
"z  c #541D1E",
"x  c #5B1E1F",
"c  c #521616",
"v  c #621D1E",
"b  c #6A1D1B",
"n  c #621A16",
"m  c #731D19",
"M  c #7A1B17",
"N  c #43221E",
"B  c #4C211E",
"V  c #48281E",
"C  c #53211F",
"Z  c #5D221E",
"A  c #5E291D",
"S  c #582A16",
"D  c #4D301F",
"F  c #63201F",
"G  c #68291A",
"H  c #7D231A",
"J  c #71251C",
"K  c #6A3519",
"L  c #763918",
"P  c #7F370E",
"I  c #421E21",
"U  c #4C1D20",
"Y  c #471421",
"T  c #531E20",
"R  c #5B1F20",
"E  c #561523",
"W  c #621F20",
"Q  c #6A1F21",
"!  c #432122",
"~  c #4D2221",
"^  c #462925",
"/  c #562021",
"(  c #5C2021",
")  c #552B26",
"_  c #413822",
"`  c #543632",
"'  c #632120",
"]  c #6B2321",
"[  c #602825",
"{  c #722521",
"}  c #762621",
"|  c #722522",
" . c #792622",
".. c #7B2822",
"X. c #732F28",
"o. c #6A3626",
"O. c #6C3830",
"+. c #723831",
"@. c #0E4228",
"#. c #1D4226",
"$. c #15442A",
"%. c #1A442A",
"&. c #144B2B",
"*. c #1B4B2A",
"=. c #164425",
"-. c #15542B",
";. c #1D532B",
":. c #1C5B2C",
">. c #185928",
",. c #1D5235",
"<. c #1A4935",
"1. c #244326",
"2. c #2A4426",
"3. c #244B27",
"4. c #224D29",
"5. c #2B482B",
"6. c #364A27",
"7. c #22542B",
"8. c #2B552B",
"9. c #235B2C",
"0. c #295E2B",
"q. c #275825",
"w. c #36582A",
"e. c #245E3A",
"r. c #275C31",
"t. c #335F30",
"y. c #1D622D",
"u. c #1E6130",
"i. c #24632D",
"p. c #2A642E",
"a. c #2E692D",
"s. c #38622D",
"d. c #2C6633",
"f. c #286835",
"g. c #336A35",
"h. c #3A7738",
"j. c #7C4116",
"k. c #7A421A",
"l. c #7D5515",
"z. c #78671F",
"x. c #464B29",
"c. c #564E2A",
"v. c #475A2A",
"b. c #59562A",
"n. c #67582B",
"m. c #714B2F",
"M. c #42793F",
"N. c #4E612A",
"B. c #656825",
"V. c #6F6F27",
"C. c #2A3C47",
"Z. c #1C5C5F",
"A. c #1D5547",
"S. c #225D42",
"D. c #274756",
"F. c #1F635E",
"G. c #1A5864",
"H. c #1D6E76",
"J. c #28657E",
"K. c #226260",
"L. c #286462",
"P. c #4C5D48",
"I. c #6C6053",
"U. c #861D18",
"Y. c #991D17",
"T. c #A71D16",
"R. c #BD1A15",
"E. c #B0160B",
"W. c #8C231A",
"Q. c #9C2319",
"!. c #982419",
"~. c #883718",
"^. c #963C0C",
"/. c #A32218",
"(. c #A82418",
"). c #B32519",
"_. c #BB2517",
"`. c #B43411",
"'. c #A73D2E",
"]. c #C01F15",
"[. c #C01D0E",
"{. c #C32516",
"}. c #CA2A18",
"|. c #D42C19",
" X c #DA2A17",
".X c #C73912",
"XX c #D9321B",
"oX c #EA351B",
"OX c #9A460E",
"+X c #9B580F",
"@X c #9D5611",
"#X c #864A17",
"$X c #A94609",
"%X c #A6550D",
"&X c #B8500C",
"*X c #9F6014",
"=X c #AA6611",
"-X c #B27316",
";X c #8A4829",
":X c #904E31",
">X c #A6462E",
",X c #A85231",
"<X c #B45432",
"1X c #8B7227",
"2X c #A46236",
"3X c #D24A0D",
"4X c #CC4B13",
"5X c #CA5509",
"6X c #D86506",
"7X c #C8780F",
"8X c #CD730C",
"9X c #E87A07",
"0X c #FA710B",
"qX c #B15A45",
"wX c #85785B",
"eX c #B66652",
"rX c #A87463",
"tX c #945748",
"yX c #C15941",
"uX c #46843D",
"iX c #539543",
"pX c #AA8828",
"aX c #DB840F",
"sX c #EC8C0C",
"dX c #E8860A",
"fX c #F78907",
"gX c #EE980E",
"hX c #F8990D",
"jX c #F39E11",
"kX c #EB8E14",
"lX c #FAA40E",
"zX c #F9A513",
"xX c #FFC015",
"cX c #1E6F88",
"vX c #276B84",
"bX c #257B9A",
"nX c #2981A0",
"mX c #A49884",
"MX c #E4BEA9",
"NX c #CD9687",
/* pixels */
"X X   X X X   o X X X   X o X   X o X   X X X   X X X X   X X X   X X X X X X X X X X X X X   X X X   X X X   X X X X X X X   X ",
"I I o j U I j U U U U o U U U I I U U o U U U o U U U I o U U U o I I U I j U U U I j U U U o U U U o U U U o I U U j I U U X : ",
"I j  .( ' ..] T ' } { } ] T { } { T { } } ( ] } } ( ' } } ] ( } } } ( ' } { } ( ] } } ' ( } } { T { } } ] ( } ] ] ' } ] / } j : ",
": o ' ( ( R K K R ' ' R ' / ' R ' / ( R ' ( ( R W ( ( ' R ( / ' R ' ( ( R R ' ( ' R ' ( ( ' R ' / ' ( R ( ( ' R G k.T ' / ' o : ",
"I o ' { { > 7X-XE | R ' } } ] ( }  .] ( } {  .' ' } } ] T } { { ( ' } } ' ' } { } ( ' } } { ( { } } { / { ] { E =XgXk Q Q { j I ",
": o z L L j.hXgXP L L z x ' ( / ' R ( / ' R ' ( ( R R ' / ] x x T x ' ' ( ( ' R ' ( ( R R ' / ( ( ' ' T z L L L dXlX@XK k.A X : ",
": j ( +XhXlXhXlXzXhX=X1.i U R | { ( ] } } ( ] { } ' '  .] ~ q 4.3.u / T ] } { / ] { } ( ] } } ' R ] ~ i #.l.sXlXlXlXhXhX-XF I I ",
": o R O ^.6XjXjX6X^.2 9.0.3.2.t B k x x v T W v v T T % a 7.p.-.9.9.7.1.r B x T v v v R R v x ! d 2.9.q.i.3 G 5XsXhX6X$Xj T o : ",
"I o '  .k 8X9X9XdXj 9 1 1XV.y.i.9.1.4 p q i r 0 i 1.3.f.f.9.*.n.a $.d.iX9.9.1.r i r q r q 2 #.7.i.p.9.K.,.& > =XfX9XsXC { Z X I ",
": o ( T j.fX$X$XfXj.l 8 2.4.*.*.9.a.v.a.i.9.9.p.y.i.q.F.Z.+ 8 ;XB < #.7.;.a.p.-.p.p.p.9.i.b.s.;.7.%.*.G.< j A dX5X$XfX+XT C X : ",
": j ..T +XOX2 2 #X%X' z   0 2 3 $.5.,X5.*.7.g.&.m.m.@., 0 j x l v x % , 6 &.5.m.9.9.p.h.7.,Xx.@.5 2 2 . j W j.%Xi 2 P &X/  .j I ",
": o ' / j 8 ;.9.1 N ' k z k j X 0 2 , 2 1 r.g.7 o.) # j k ( ( ( ' R x j X , _ >X4 5 %.uX6 1 , u $ o j T o ( k 8 :.7., j C ' o : ",
"! o ] ..{ q 4.0.g.~  .B ] T ' ] x z z k $ 8   N j z ] ] ' ( { { ] T ] { ' x k k j $ $   k k z k ' } { ] j { ( 2 :.i.p (  .( : ! ",
": X ( ( z 0 -.r.M.j ' j x T R x R R R R T z z x T R z x ( ( x R ( T R W ( ( T ( z x T T R R ( / ( x R R o ' k p pXv.2 k ' C X : ",
": /  .' k 2 x.w.1 k { k ' ] ] T ' ] T ' ] ] T ' ] ] T R ( ' ( ' { { ' I / { ] ' T ] ] ] R ' { ] { ( ' ] j { C 4 N.p.5 z ( } k : ",
"X j ' ( k , ;Xc.$.N R j x x x T R x T R x x T T x x U v Q.H U ~ Z z b /.W.z R R T x z x T R x Z Z T R R j R N 4 -.w.x.N R ' o : ",
"! o ]  .C 4 :.:.4 ~ } k ' ( T ' U R ' ' T R ' ' T ( j Q.oX|.H #.@.N _.oXXXz R ' ' ' T ' ] ] k S C ' / ' k ] C p -.n.:X$ ..] o I ",
": X ( ' z 2 9.;.3 N ' j x R U J J U x x T R x x z N 2 Q.oX{.).W.~.Q._.|.}.V q x x R T R x T A aXOXz / ( j R N 2 7.p.#.N W Z o : ",
"I j } ' k 4 7.w.f v { j ' ] j /._.k ( T ' ' ( k r ;.*./.XX).!.). XQ.).}.|.D >.u k ' ' ' ( Y %XxX9XA ' ' j ] x 0 7.q.#.N R } C : ",
": o F ( z 0 @.1Xo.k ' j z k W.XX|.Q.k T x x x r 7.s.2.m U.b z n n z n M Y.t H.e.* k x x T k 8XzX9XK T x o ( z 0 #.S.6 k / ' j X ",
"! o ] } { z 2 2 z / { k ( z _.oX|.).z ( ' T N 4.i.>Xm.2 $ k /.m j ).H X & %.G.e.>.0 k ' R K aXzXdX%Xj ( j ] ] z 2 H.y J } ( X ! ",
": X ( ' ' ( o $ R T ' j z j Y.).).Y.k z x k p a.a.w.5.$.r }. XH j }.oXH 1 7.q.0.m.6.% v z N X L S o U T j ( R R o # k ' ' z X I ",
"; C } ' ( } } ] ( { ] k F x k m M z k T v N 4.f.9.i.7.# b ).{.z j W._.Q.j 4 9.8.>X6.0 z T ' ' k U ' ' ' j ] ' T ] ' { ( ( } j : ",
"X j ' ( ( F R ( ( ' ' j z x k j o j x U x r ;.cXA.q.u j j o b j U z z X k @ %.:.-.9.p j T x x x T x x x j ( ( / ' R v T ( Z o : ",
"! X ' { { ' ( } { ] ] j ' T ( ' ' T ( ' x u 9.r.9.7.@ F ' z k F ( j x ] ' j #.1XB.9.1.N ] T T ' ' ( T ' j ] ] { ] T ] ] { ( X ! ",
": X ( ' ' ( T ' R ' ' j x T z x x T R x z u 9.a.9.*.% x z z x x T T x x x k 2 -Xz.u.1.j x T T x x T T x j ( W x ( / ' x ' z X : ",
"X B  .( ' } { ] / { { j ' ' ' T ' ' ' ( k a -.c.<X3.e R R ' ' T R ' ' T ( x u &.9.9.*.~ T ( v F U ' ' ' j ] ] ( ] } ' ( { ] j : ",
"X j ' ( ( ' ' ' / ' ' j z x ( z z x x R U q :.w.m.7.d z T x x T T x x T T j #.0.F.cX2 k T T x x T R x x j ( ' / ' v ( T ' ( o : ",
"I X ' { { ' ( } { ] ] j F T z ) [ I T ' v r 7.i.>.9.u z ' R T ' ' T T ' x q ;.i.e.A.4 C ' v k j x F U ( j ] { } ' ( { { { ( o ! ",
"I X ( ' ' ( ( ' W ' ' j x T [ qXeXqXc ( x j 2 9.v.w.*.r z R T x x / T v % *.b.b.9.#.9 z x ~ h vXC.~ U R j ( ' ' ( / ' R ' z X I ",
"; / } ] ( } { ] / } { j ] c rXtXO yXO.z T z 4 3.kXB.:.q.u j x v T x z r 4.>.;X;X>.%.e ' k vXvXvXJ.bXI ] j ] ] ( { { ] ( } { j : ",
"; k ' ' / ' ' ' / ' ' j ( z X.` l rX+.z T z   %.6.w.9.e.p.4.p d t d *.>.p.p.7.*.;.u j x ~ C.J.nXvXD.^ x j ' ( / ' F ' / ' ' o : ",
"I X ] } } ' ( } { ] { j ' / z b z qX+.z ' W j , &.;.,.bX,.p.v.v.i.:.B.z.i.9.9.*.4 k T ( k J.vXJ.vXbXe F j ] ] } ' / } { } ( X I ",
"I X ( ' ' ( / ' ' ' ' j x T ( ' k eX+.c R R U j 0 %.%.<.7.-.:X:Xy.:.z.1X&.*.$.4 $ z T R k C.C.bXD.C.! x j ' ' ' ' / ' ' ] z X I ",
"X / ..( ' } } ( ' { ] j ' ' ] ( l eXm.z T ' ' ' k q 2 *.*.;.#.4.;.;.$.@.%.5 2 % z / ' ' T c ! D.e n F ' j { ( ' { } ( ( { ] o : ",
"X k ] ( ( ' ' ( ( ' ' j x x x T j m.^ x T x x x T k o 0 4 3 &.$.$.$.%.6 2 @ j z T T x x T / z c k ( x x j ' T ( ' ' ( ( ' ' o : ",
"I o ] { { ( ] { ] T ] k ' ( T ' ' c z ' R R / R R ' T z j X 8 8 u 8 q o k x T ( ' F U ! z ' T ( ' ( T ' j ] ] { ( ( { ] { ( X I ",
": o ( ' ' / ' ' ' T ' j x R T x x ( T x F F Y A G x U R x x k k j j j z x x U x x x / o.~ x T T x x T x j x v ' R T ' ' ' z X I ",
"; / } ( ' { { / ' { ] j ( ' ' R T ' ' o 7X8X#X8X%XI ' ' U ( ' ' T ' ' ( U ( ' ( T j &X0XOXI ' ' U ( ' ' j ] ' ( { ] ] T ] ] o : ",
"; k ] ( ( ' ' ( ' ' ' j z x x T T x z b `.5XkX3X`.b x v U x x x T x x x U x x x U G dXsX6XA T x T x x x j ' ( ( ' ' ' T ' ' o : ",
"I X ] { { ( ( { { / ' k ' ( T ' ' ( o /.R.4XjX.XR.W.I ' ' ' T T I ( T ( ' ( U F T G zXlX9XA U ( ' ( U ( j ] ] { ] T ] ] } ( X I ",
"I X Z ' F ( ( F ' / ( j x T T x x x : v T.&X9X`.T.z U x x x T k !.J U x x x T Z U ~.hXhX9XL U x x x U x j Z ' ' ' T ' ' ' C X I ",
": B } / ' ] { ( ' { ] j ' ' ' U ( ' / b R.4XsX.X].b ( ' T ' T b  X/.k ' T R ' ' k &XgXsX9X%Xk ' U ' ' ' j ] ' / { { ' / ] ] o : ",
": k ] ( ( ' ' ( ( F ' j x x x U x x z b R.3XfX.X].v z x T x k Q.}.{.F z T T x x k o B P N N z x U x x x j ' ( / ' ' ( / ' ' o : ",
"I X ' { ] T ' ] ] T ] j ( T ( ' ' T T z n G j.J n k U ( ' ( z Y._._.m T ' ( U ( ( ' I o x ' T ( ' T T ' j ' ] ] ( ' ] ] { ( X I ",
"I X ( ' ' T ' F ' T ' j x T x x x T T z j j > k j k T x x x k o U.z j x x x U x x x U x x x T x x z T x j Z v F T ( ' ' ' z X I ",
": B { ( ' { ] T ] ] ] j ( ' ' R T ' ' R T ' ' ( R ' ' T R ' ' ( j Z ' R T ' ' ( T ' ' R T ' ' ( T ' ' ' j ' ' T ] ] ( ( ] ] o : ",
": k ] ( ( F ' / ' v ' j z x x z U x x z U x x z T x x U z x x z T x x z U x x z U x x z T x x z T x x x j x R T ' ' R T F ' o : ",
": X ( ] ] ( z ] ] ( / ' ] ( z ] ' ] T ( ] ' T ( ] ] ( / ] ] ' U [ ] U ( ] ' U ' ' ' k ' ] ] / ( ] ] T / ' ' U ] W k ] ] ' C X I ",
"I X ( ' ] v r ^ x ' ( ' ' ( ( ' ' ] T R ' ' R ( ' ] ( R ' ' ] z v ] / ' ' ' T ' ' ' T ' ' ' / ( ' ' ( R ' ' ( v t r v ' ] C X I ",
"; B { ' T % 7.9.0 k Q ' / ] ] ] T ( ] ] ( ( ] ] ( / ] ] ' k % 1.u % ' ' / ] ] ' T ] ] ] T ] ] ] T ' ] ] R z k i i.;.q R ( ] o : ",
": C ] ' T r ;.p.i.*.d k T b Q ] ( ( ' ' ( ( ] ] ' R b v N 2.0.p.p.9.4 ! R b Q ] / ' ' ' / ' ' ] ( Q b x N a 7.f.p.7.q R R ' o : ",
"I X ' { ] w 9.%.v.V.:.q.1.d X x ' ] z Q ] ] R z x N q 1.9.i.7.*.$.B.1X;.a $ ! x ] ] T ] { R R v k w q 1.9.i.S.vX#.9.u ( } / X I ",
"I X ( ] v i ;.$._ b.$.e.f.i.a.6.a d r f t f f 2.2.7.9.0.9.7.%., 1 x.n.:.9.9.9.2.i d r t f d g a 3.8.p.i.7.7.%., 4.w.1.C ] C ; I ",
"X B ] T R , M.g., - + Z.Z.4.;.i.d.y.p.p.i.p.p.9.p.i.6.,X1.3 8 z j , 7 $.g.d.9.a.y.9.i.9.p.p.9.i.8.-X8.$.5 4 @ 8 4.pX6.o ' ] o : ",
"; k ] ( / 2 g.d.4 k o , 2 1 I.P.=.2Xc.&.7.;.*.uXp.$.%.f # o k ( v k $ < r.7.$.8.c.7.;.*.*.7.h.$.4 wX5.1 8 o k u 7.8.#.w R ' o I ",
"I X ' { C 2 9.7.2 ( ' z z   rXMXP.g s 5 3 5 3 8.4 , $ o z ' ] ] ( ( ] z     , f '.2 5 5 5 %.t.0 mXNX^ j ' ] k u 7.9.6 ! } / X I ",
"I o ( ] z 4 7.7.2 x ( T ( x E.'.` - 9 9 9 @ 9   X j x Q ( ( ' ' ( / ' ' R U k o X X @ 9 9 X   : :X[.M T ] ' U 0 %.7.2 k ] C X I ",
"; k { ( ( & 5 2 % ] ] ] k Y.}.M l ( ] ] ] T ] { { ] T ] ] ] T ' ] ] ( ( { { ' ( { ] ] R ] { ] U c {._.z U ] ] j u *.q R ' ] j : ",
"; k ] ( ( z 8 9 z ' ' ' U b {./.k / F R ' T ( ' ' ( T ' ' ' T ( ' ' ( T F ' ' ( F ' ' T ' F ' U m {.U.j T ' ' x % 2 k ( ' ] o : ",
"I X ' { { ( x ' { ( / { ] j b T.z ' ] T ] ] ] ( ( { ] ] T ' ] ] T ' ] ] ( ( { ] ' / ] ] ' T { T U.U.o ' ] ] T ] ' v T ' ] / X ! ",
"I : ( ' ' / ( ' ' ( / F ' x X X k F Z T F F F ( / F Z F / ( F F T ( F F ( / F ' ( / F ' ( / ' x X X U ' F ' / ' ( ' U ( ' C : ! ",
"e e : X : : e X e ! ! : ; ! ! ! ; ; e e : X : : e ; : e e e ; : e e : ; e e : ; e e e X : e e ; e ! ! : ; e e e ; w e e X : e : ",
": : ; = w : : ; ; w w ; ; w w w ; ; w w w ; : : w ; ; w w w ; w w w ; ; w w w ; w w w = ; w w ; ; w w ; = w w ; ; w w w ; : : : "
};
